<?xml version="1.0" encoding="us-ascii" standalone="no"?><svg xmlns="http://www.w3.org/2000/svg" xmlns:xlink="http://www.w3.org/1999/xlink" contentStyleType="text/css" height="278px" preserveAspectRatio="none" style="width:467px;height:278px;background:#FFFFFF;" version="1.1" viewBox="0 0 467 278" width="467px" zoomAndPan="magnify"><defs/><g><!--class View--><g id="elem_View"><rect codeLine="1" fill="#F1F1F1" height="48" id="View" rx="2.5" ry="2.5" style="stroke:#181818;stroke-width:0.5;" width="66" x="147" y="7"/><ellipse cx="162" cy="23" fill="#ADD1B2" rx="11" ry="11" style="stroke:#181818;stroke-width:1.0;"/><path d="M164.3438,18.6719 C163.4063,18.2344 162.8125,18.0938 161.9375,18.0938 C159.3125,18.0938 157.3125,20.1719 157.3125,22.8906 L157.3125,24.0156 C157.3125,26.5938 159.4219,28.4844 162.3125,28.4844 C163.5313,28.4844 164.6875,28.1875 165.4375,27.6406 C166.0156,27.2344 166.3438,26.7813 166.3438,26.3906 C166.3438,25.9375 165.9531,25.5469 165.4844,25.5469 C165.2656,25.5469 165.0625,25.625 164.875,25.8125 C164.4219,26.2969 164.4219,26.2969 164.2344,26.3906 C163.8125,26.6563 163.125,26.7813 162.3594,26.7813 C160.3125,26.7813 159.0156,25.6875 159.0156,23.9844 L159.0156,22.8906 C159.0156,21.1094 160.2656,19.7969 162,19.7969 C162.5781,19.7969 163.1875,19.9531 163.6563,20.2031 C164.1406,20.4844 164.3125,20.7031 164.4063,21.1094 C164.4688,21.5156 164.5,21.6406 164.6406,21.7656 C164.7813,21.9063 165.0156,22.0156 165.2344,22.0156 C165.5,22.0156 165.7656,21.875 165.9375,21.6563 C166.0469,21.5 166.0781,21.3125 166.0781,20.8906 L166.0781,19.4688 C166.0781,19.0313 166.0625,18.9063 165.9688,18.75 C165.8125,18.4844 165.5313,18.3438 165.2344,18.3438 C164.9375,18.3438 164.7344,18.4375 164.5156,18.75 L164.3438,18.6719 Z " fill="#000000"/><text fill="#000000" font-family="sans-serif" font-size="14" lengthAdjust="spacing" textLength="34" x="176" y="27.8467">View</text><line style="stroke:#181818;stroke-width:0.5;" x1="148" x2="212" y1="39" y2="39"/><line style="stroke:#181818;stroke-width:0.5;" x1="148" x2="212" y1="47" y2="47"/></g><!--class StandardMainView--><g id="elem_StandardMainView"><rect codeLine="4" fill="#F1F1F1" height="48" id="StandardMainView" rx="2.5" ry="2.5" style="stroke:#181818;stroke-width:0.5;" width="164" x="7" y="115"/><ellipse cx="22" cy="131" fill="#ADD1B2" rx="11" ry="11" style="stroke:#181818;stroke-width:1.0;"/><path d="M24.3438,126.6719 C23.4063,126.2344 22.8125,126.0938 21.9375,126.0938 C19.3125,126.0938 17.3125,128.1719 17.3125,130.8906 L17.3125,132.0156 C17.3125,134.5938 19.4219,136.4844 22.3125,136.4844 C23.5313,136.4844 24.6875,136.1875 25.4375,135.6406 C26.0156,135.2344 26.3438,134.7813 26.3438,134.3906 C26.3438,133.9375 25.9531,133.5469 25.4844,133.5469 C25.2656,133.5469 25.0625,133.625 24.875,133.8125 C24.4219,134.2969 24.4219,134.2969 24.2344,134.3906 C23.8125,134.6563 23.125,134.7813 22.3594,134.7813 C20.3125,134.7813 19.0156,133.6875 19.0156,131.9844 L19.0156,130.8906 C19.0156,129.1094 20.2656,127.7969 22,127.7969 C22.5781,127.7969 23.1875,127.9531 23.6563,128.2031 C24.1406,128.4844 24.3125,128.7031 24.4063,129.1094 C24.4688,129.5156 24.5,129.6406 24.6406,129.7656 C24.7813,129.9063 25.0156,130.0156 25.2344,130.0156 C25.5,130.0156 25.7656,129.875 25.9375,129.6563 C26.0469,129.5 26.0781,129.3125 26.0781,128.8906 L26.0781,127.4688 C26.0781,127.0313 26.0625,126.9063 25.9688,126.75 C25.8125,126.4844 25.5313,126.3438 25.2344,126.3438 C24.9375,126.3438 24.7344,126.4375 24.5156,126.75 L24.3438,126.6719 Z " fill="#000000"/><text fill="#000000" font-family="sans-serif" font-size="14" lengthAdjust="spacing" textLength="132" x="36" y="135.8467">StandardMainView</text><line style="stroke:#181818;stroke-width:0.5;" x1="8" x2="170" y1="147" y2="147"/><line style="stroke:#181818;stroke-width:0.5;" x1="8" x2="170" y1="155" y2="155"/></g><!--class StandardView--><g id="elem_StandardView"><rect codeLine="7" fill="#F1F1F1" height="48" id="StandardView" rx="2.5" ry="2.5" style="stroke:#181818;stroke-width:0.5;" width="131" x="206.5" y="115"/><ellipse cx="221.5" cy="131" fill="#ADD1B2" rx="11" ry="11" style="stroke:#181818;stroke-width:1.0;"/><path d="M223.8438,126.6719 C222.9063,126.2344 222.3125,126.0938 221.4375,126.0938 C218.8125,126.0938 216.8125,128.1719 216.8125,130.8906 L216.8125,132.0156 C216.8125,134.5938 218.9219,136.4844 221.8125,136.4844 C223.0313,136.4844 224.1875,136.1875 224.9375,135.6406 C225.5156,135.2344 225.8438,134.7813 225.8438,134.3906 C225.8438,133.9375 225.4531,133.5469 224.9844,133.5469 C224.7656,133.5469 224.5625,133.625 224.375,133.8125 C223.9219,134.2969 223.9219,134.2969 223.7344,134.3906 C223.3125,134.6563 222.625,134.7813 221.8594,134.7813 C219.8125,134.7813 218.5156,133.6875 218.5156,131.9844 L218.5156,130.8906 C218.5156,129.1094 219.7656,127.7969 221.5,127.7969 C222.0781,127.7969 222.6875,127.9531 223.1563,128.2031 C223.6406,128.4844 223.8125,128.7031 223.9063,129.1094 C223.9688,129.5156 224,129.6406 224.1406,129.7656 C224.2813,129.9063 224.5156,130.0156 224.7344,130.0156 C225,130.0156 225.2656,129.875 225.4375,129.6563 C225.5469,129.5 225.5781,129.3125 225.5781,128.8906 L225.5781,127.4688 C225.5781,127.0313 225.5625,126.9063 225.4688,126.75 C225.3125,126.4844 225.0313,126.3438 224.7344,126.3438 C224.4375,126.3438 224.2344,126.4375 224.0156,126.75 L223.8438,126.6719 Z " fill="#000000"/><text fill="#000000" font-family="sans-serif" font-size="14" lengthAdjust="spacing" textLength="99" x="235.5" y="135.8467">StandardView</text><line style="stroke:#181818;stroke-width:0.5;" x1="207.5" x2="336.5" y1="147" y2="147"/><line style="stroke:#181818;stroke-width:0.5;" x1="207.5" x2="336.5" y1="155" y2="155"/></g><!--class StandardListView--><g id="elem_StandardListView"><rect codeLine="10" fill="#F1F1F1" height="48" id="StandardListView" rx="2.5" ry="2.5" style="stroke:#181818;stroke-width:0.5;" width="157" x="93.5" y="223"/><ellipse cx="108.5" cy="239" fill="#ADD1B2" rx="11" ry="11" style="stroke:#181818;stroke-width:1.0;"/><path d="M110.8438,234.6719 C109.9063,234.2344 109.3125,234.0938 108.4375,234.0938 C105.8125,234.0938 103.8125,236.1719 103.8125,238.8906 L103.8125,240.0156 C103.8125,242.5938 105.9219,244.4844 108.8125,244.4844 C110.0313,244.4844 111.1875,244.1875 111.9375,243.6406 C112.5156,243.2344 112.8438,242.7813 112.8438,242.3906 C112.8438,241.9375 112.4531,241.5469 111.9844,241.5469 C111.7656,241.5469 111.5625,241.625 111.375,241.8125 C110.9219,242.2969 110.9219,242.2969 110.7344,242.3906 C110.3125,242.6563 109.625,242.7813 108.8594,242.7813 C106.8125,242.7813 105.5156,241.6875 105.5156,239.9844 L105.5156,238.8906 C105.5156,237.1094 106.7656,235.7969 108.5,235.7969 C109.0781,235.7969 109.6875,235.9531 110.1563,236.2031 C110.6406,236.4844 110.8125,236.7031 110.9063,237.1094 C110.9688,237.5156 111,237.6406 111.1406,237.7656 C111.2813,237.9063 111.5156,238.0156 111.7344,238.0156 C112,238.0156 112.2656,237.875 112.4375,237.6563 C112.5469,237.5 112.5781,237.3125 112.5781,236.8906 L112.5781,235.4688 C112.5781,235.0313 112.5625,234.9063 112.4688,234.75 C112.3125,234.4844 112.0313,234.3438 111.7344,234.3438 C111.4375,234.3438 111.2344,234.4375 111.0156,234.75 L110.8438,234.6719 Z " fill="#000000"/><text fill="#000000" font-family="sans-serif" font-size="14" lengthAdjust="spacing" textLength="125" x="122.5" y="243.8467">StandardListView</text><line style="stroke:#181818;stroke-width:0.5;" x1="94.5" x2="249.5" y1="255" y2="255"/><line style="stroke:#181818;stroke-width:0.5;" x1="94.5" x2="249.5" y1="263" y2="263"/></g><!--class StandardDetailView--><g id="elem_StandardDetailView"><rect codeLine="13" fill="#F1F1F1" height="48" id="StandardDetailView" rx="2.5" ry="2.5" style="stroke:#181818;stroke-width:0.5;" width="174" x="286" y="223"/><ellipse cx="301" cy="239" fill="#ADD1B2" rx="11" ry="11" style="stroke:#181818;stroke-width:1.0;"/><path d="M303.3438,234.6719 C302.4063,234.2344 301.8125,234.0938 300.9375,234.0938 C298.3125,234.0938 296.3125,236.1719 296.3125,238.8906 L296.3125,240.0156 C296.3125,242.5938 298.4219,244.4844 301.3125,244.4844 C302.5313,244.4844 303.6875,244.1875 304.4375,243.6406 C305.0156,243.2344 305.3438,242.7813 305.3438,242.3906 C305.3438,241.9375 304.9531,241.5469 304.4844,241.5469 C304.2656,241.5469 304.0625,241.625 303.875,241.8125 C303.4219,242.2969 303.4219,242.2969 303.2344,242.3906 C302.8125,242.6563 302.125,242.7813 301.3594,242.7813 C299.3125,242.7813 298.0156,241.6875 298.0156,239.9844 L298.0156,238.8906 C298.0156,237.1094 299.2656,235.7969 301,235.7969 C301.5781,235.7969 302.1875,235.9531 302.6563,236.2031 C303.1406,236.4844 303.3125,236.7031 303.4063,237.1094 C303.4688,237.5156 303.5,237.6406 303.6406,237.7656 C303.7813,237.9063 304.0156,238.0156 304.2344,238.0156 C304.5,238.0156 304.7656,237.875 304.9375,237.6563 C305.0469,237.5 305.0781,237.3125 305.0781,236.8906 L305.0781,235.4688 C305.0781,235.0313 305.0625,234.9063 304.9688,234.75 C304.8125,234.4844 304.5313,234.3438 304.2344,234.3438 C303.9375,234.3438 303.7344,234.4375 303.5156,234.75 L303.3438,234.6719 Z " fill="#000000"/><text fill="#000000" font-family="sans-serif" font-size="14" lengthAdjust="spacing" textLength="142" x="315" y="243.8467">StandardDetailView</text><line style="stroke:#181818;stroke-width:0.5;" x1="287" x2="459" y1="255" y2="255"/><line style="stroke:#181818;stroke-width:0.5;" x1="287" x2="459" y1="263" y2="263"/></g><!--reverse link View to StandardMainView--><g id="link_View_StandardMainView"><path codeLine="16" d="M147.182,70.227 C134.417,85.097 120.204,101.652 109.021,114.678 " fill="none" id="View-backto-StandardMainView" style="stroke:#181818;stroke-width:1.0;"/><polygon fill="none" points="141.915,65.616,160.254,55,152.538,74.735,141.915,65.616" style="stroke:#181818;stroke-width:1.0;"/></g><!--reverse link View to StandardView--><g id="link_View_StandardView"><path codeLine="17" d="M213.178,70.227 C226.084,85.097 240.453,101.652 251.759,114.678 " fill="none" id="View-backto-StandardView" style="stroke:#181818;stroke-width:1.0;"/><polygon fill="none" points="207.786,74.693,199.963,55,218.359,65.516,207.786,74.693" style="stroke:#181818;stroke-width:1.0;"/></g><!--reverse link StandardView to StandardListView--><g id="link_StandardView_StandardListView"><path codeLine="18" d="M236.384,177.753 C222.242,192.744 206.421,209.5138 194.001,222.6784 " fill="none" id="StandardView-backto-StandardListView" style="stroke:#181818;stroke-width:1.0;"/><polygon fill="none" points="231.485,172.7448,250.301,163,241.669,182.3519,231.485,172.7448" style="stroke:#181818;stroke-width:1.0;"/></g><!--reverse link StandardView to StandardDetailView--><g id="link_StandardView_StandardDetailView"><path codeLine="19" d="M307.972,177.753 C322.256,192.744 338.235,209.5138 350.778,222.6784 " fill="none" id="StandardView-backto-StandardDetailView" style="stroke:#181818;stroke-width:1.0;"/><polygon fill="none" points="302.644,182.3087,293.915,163,312.78,172.6512,302.644,182.3087" style="stroke:#181818;stroke-width:1.0;"/></g><!--SRC=[Iyv9B2vM2CjCBLUevghbuae6yuDB4lDI4ejIV1Cpyt39uHBtoImkmINdabgIc9c3a0MpudHrCIp4b06BejYDB0kp5BSAXDK0]--></g></svg>