<?xml version="1.0" encoding="us-ascii" standalone="no"?><svg xmlns="http://www.w3.org/2000/svg" xmlns:xlink="http://www.w3.org/1999/xlink" contentStyleType="text/css" height="127px" preserveAspectRatio="none" style="width:485px;height:127px;background:#FFFFFF;" version="1.1" viewBox="0 0 485 127" width="485px" zoomAndPan="magnify"><defs/><g><!--class Customer--><g id="elem_Customer"><rect codeLine="1" fill="#F1F1F1" height="113.1875" id="Customer" rx="2.5" ry="2.5" style="stroke:#181818;stroke-width:0.5;" width="234" x="7" y="7"/><ellipse cx="84.75" cy="23" fill="#ADD1B2" rx="11" ry="11" style="stroke:#181818;stroke-width:1.0;"/><path d="M87.0938,18.6719 C86.1563,18.2344 85.5625,18.0938 84.6875,18.0938 C82.0625,18.0938 80.0625,20.1719 80.0625,22.8906 L80.0625,24.0156 C80.0625,26.5938 82.1719,28.4844 85.0625,28.4844 C86.2813,28.4844 87.4375,28.1875 88.1875,27.6406 C88.7656,27.2344 89.0938,26.7813 89.0938,26.3906 C89.0938,25.9375 88.7031,25.5469 88.2344,25.5469 C88.0156,25.5469 87.8125,25.625 87.625,25.8125 C87.1719,26.2969 87.1719,26.2969 86.9844,26.3906 C86.5625,26.6563 85.875,26.7813 85.1094,26.7813 C83.0625,26.7813 81.7656,25.6875 81.7656,23.9844 L81.7656,22.8906 C81.7656,21.1094 83.0156,19.7969 84.75,19.7969 C85.3281,19.7969 85.9375,19.9531 86.4063,20.2031 C86.8906,20.4844 87.0625,20.7031 87.1563,21.1094 C87.2188,21.5156 87.25,21.6406 87.3906,21.7656 C87.5313,21.9063 87.7656,22.0156 87.9844,22.0156 C88.25,22.0156 88.5156,21.875 88.6875,21.6563 C88.7969,21.5 88.8281,21.3125 88.8281,20.8906 L88.8281,19.4688 C88.8281,19.0313 88.8125,18.9063 88.7188,18.75 C88.5625,18.4844 88.2813,18.3438 87.9844,18.3438 C87.6875,18.3438 87.4844,18.4375 87.2656,18.75 L87.0938,18.6719 Z " fill="#000000"/><text fill="#000000" font-family="sans-serif" font-size="14" lengthAdjust="spacing" textLength="70" x="105.25" y="27.8467">Customer</text><line style="stroke:#181818;stroke-width:0.5;" x1="8" x2="240" y1="39" y2="39"/><text fill="#000000" font-family="sans-serif" font-size="14" lengthAdjust="spacing" textLength="97" x="13" y="55.9951">name : String</text><text fill="#000000" font-family="sans-serif" font-size="14" lengthAdjust="spacing" textLength="103" x="13" y="72.292">region : String</text><text fill="#000000" font-family="sans-serif" font-size="14" lengthAdjust="spacing" textLength="222" x="13" y="88.5889">details : List&lt;CustomerDetail&gt;</text><text fill="#000000" font-family="sans-serif" font-size="14" lengthAdjust="spacing" textLength="171" x="13" y="104.8857">confidentialInfo : String</text><line style="stroke:#181818;stroke-width:0.5;" x1="8" x2="240" y1="112.1875" y2="112.1875"/></g><!--class CustomerDetail--><g id="elem_CustomerDetail"><rect codeLine="8" fill="#F1F1F1" height="96.8906" id="CustomerDetail" rx="2.5" ry="2.5" style="stroke:#181818;stroke-width:0.5;" width="169" x="309.5" y="15"/><ellipse cx="335.3" cy="31" fill="#ADD1B2" rx="11" ry="11" style="stroke:#181818;stroke-width:1.0;"/><path d="M337.6438,26.6719 C336.7063,26.2344 336.1125,26.0938 335.2375,26.0938 C332.6125,26.0938 330.6125,28.1719 330.6125,30.8906 L330.6125,32.0156 C330.6125,34.5938 332.7219,36.4844 335.6125,36.4844 C336.8313,36.4844 337.9875,36.1875 338.7375,35.6406 C339.3156,35.2344 339.6438,34.7813 339.6438,34.3906 C339.6438,33.9375 339.2531,33.5469 338.7844,33.5469 C338.5656,33.5469 338.3625,33.625 338.175,33.8125 C337.7219,34.2969 337.7219,34.2969 337.5344,34.3906 C337.1125,34.6563 336.425,34.7813 335.6594,34.7813 C333.6125,34.7813 332.3156,33.6875 332.3156,31.9844 L332.3156,30.8906 C332.3156,29.1094 333.5656,27.7969 335.3,27.7969 C335.8781,27.7969 336.4875,27.9531 336.9563,28.2031 C337.4406,28.4844 337.6125,28.7031 337.7063,29.1094 C337.7688,29.5156 337.8,29.6406 337.9406,29.7656 C338.0813,29.9063 338.3156,30.0156 338.5344,30.0156 C338.8,30.0156 339.0656,29.875 339.2375,29.6563 C339.3469,29.5 339.3781,29.3125 339.3781,28.8906 L339.3781,27.4688 C339.3781,27.0313 339.3625,26.9063 339.2688,26.75 C339.1125,26.4844 338.8313,26.3438 338.5344,26.3438 C338.2375,26.3438 338.0344,26.4375 337.8156,26.75 L337.6438,26.6719 Z " fill="#000000"/><text fill="#000000" font-family="sans-serif" font-size="14" lengthAdjust="spacing" textLength="113" x="351.7" y="35.8467">CustomerDetail</text><line style="stroke:#181818;stroke-width:0.5;" x1="310.5" x2="477.5" y1="47" y2="47"/><text fill="#000000" font-family="sans-serif" font-size="14" lengthAdjust="spacing" textLength="151" x="315.5" y="63.9951">customer : Customer</text><text fill="#000000" font-family="sans-serif" font-size="14" lengthAdjust="spacing" textLength="115" x="315.5" y="80.292">content : String</text><text fill="#000000" font-family="sans-serif" font-size="14" lengthAdjust="spacing" textLength="157" x="315.5" y="96.5889">confidential : Boolean</text><line style="stroke:#181818;stroke-width:0.5;" x1="310.5" x2="477.5" y1="103.8906" y2="103.8906"/></g><!--reverse link Customer to CustomerDetail--><g id="link_Customer_CustomerDetail"><path codeLine="14" d="M254.462,63.5 C273.124,63.5 291.902,63.5 309.367,63.5 " fill="none" id="Customer-backto-CustomerDetail" style="stroke:#181818;stroke-width:1.0;"/><polygon fill="#181818" points="241.248,63.5,247.248,67.5,253.248,63.5,247.248,59.5,241.248,63.5" style="stroke:#181818;stroke-width:1.0;"/><text fill="#000000" font-family="sans-serif" font-size="13" lengthAdjust="spacing" textLength="8" x="249.0155" y="60.0847">1</text><text fill="#000000" font-family="sans-serif" font-size="13" lengthAdjust="spacing" textLength="23" x="278.406" y="76.198">0..*</text></g><!--SRC=[NOyn2m8n38Nt_ehGyS13ro8EwYAukRgKNku8z59euoJ-TskrfpNZUydtNfotAS7XbYJC6E6k80_R6S70HIBnL9I84mLkjG75aazPF5EIRMKSYxmhAoxmI0EoaFKd7iCNy53ADT7liqy1L_kOnQyyoRIsnsz8TlOXUBJyIbZUqXiDtGhqkkyx_Hzfu2fF]--></g></svg>