<?plantuml 1.2026.2beta3?><svg xmlns="http://www.w3.org/2000/svg" xmlns:xlink="http://www.w3.org/1999/xlink" contentStyleType="text/css" data-diagram-type="CLASS" height="210px" preserveAspectRatio="none" style="width:521px;height:210px;background:#FFFFFF;" version="1.1" viewBox="0 0 521 210" width="521px" zoomAndPan="magnify"><defs/><g><!--class Customer--><g class="entity" data-qualified-name="Customer" data-source-line="3" id="ent0002"><rect fill="#F1F1F1" height="80.5938" rx="2.5" ry="2.5" style="stroke:#181818;stroke-width:0.5;" width="102.6514" x="226.61" y="7"/><ellipse cx="242.8014" cy="23" fill="#ADD1B2" rx="11" ry="11" style="stroke:#181818;stroke-width:1;"/><path d="M245.7701,28.6406 Q245.192,28.9375 244.5514,29.0781 Q243.9107,29.2344 243.2076,29.2344 Q240.7076,29.2344 239.3795,27.5938 Q238.067,25.9375 238.067,22.8125 Q238.067,19.6875 239.3795,18.0313 Q240.7076,16.375 243.2076,16.375 Q243.9107,16.375 244.5514,16.5313 Q245.2076,16.6875 245.7701,16.9844 L245.7701,19.7031 Q245.1451,19.125 244.5514,18.8594 Q243.9576,18.5781 243.3326,18.5781 Q241.9889,18.5781 241.3014,19.6563 Q240.6139,20.7188 240.6139,22.8125 Q240.6139,24.9063 241.3014,25.9844 Q241.9889,27.0469 243.3326,27.0469 Q243.9576,27.0469 244.5514,26.7813 Q245.1451,26.5 245.7701,25.9219 L245.7701,28.6406 Z " fill="#000000"/><text fill="#000000" font-family="sans-serif" font-size="14" lengthAdjust="spacing" textLength="68.0039" x="257.0661" y="27.8467">Customer</text><line style="stroke:#181818;stroke-width:0.5;" x1="227.61" x2="328.2614" y1="39" y2="39"/><text fill="#000000" font-family="sans-serif" font-size="14" lengthAdjust="spacing" textLength="90.6514" x="232.61" y="55.9951">name: String</text><text fill="#000000" font-family="sans-serif" font-size="14" lengthAdjust="spacing" textLength="89.5576" x="232.61" y="72.292">email: String</text><line style="stroke:#181818;stroke-width:0.5;" x1="227.61" x2="328.2614" y1="79.5938" y2="79.5938"/></g><!--class CustomerAccess--><g class="entity" data-qualified-name="CustomerAccess" data-source-line="8" id="ent0003"><rect fill="#F1F1F1" height="80.5938" rx="2.5" ry="2.5" style="stroke:#181818;stroke-width:0.5;" width="159.6084" x="7" y="65"/><ellipse cx="27.1442" cy="81" fill="#ADD1B2" rx="11" ry="11" style="stroke:#181818;stroke-width:1;"/><path d="M30.113,86.6406 Q29.5349,86.9375 28.8942,87.0781 Q28.2536,87.2344 27.5505,87.2344 Q25.0505,87.2344 23.7224,85.5938 Q22.4099,83.9375 22.4099,80.8125 Q22.4099,77.6875 23.7224,76.0313 Q25.0505,74.375 27.5505,74.375 Q28.2536,74.375 28.8942,74.5313 Q29.5505,74.6875 30.113,74.9844 L30.113,77.7031 Q29.488,77.125 28.8942,76.8594 Q28.3005,76.5781 27.6755,76.5781 Q26.3317,76.5781 25.6442,77.6563 Q24.9567,78.7188 24.9567,80.8125 Q24.9567,82.9063 25.6442,83.9844 Q26.3317,85.0469 27.6755,85.0469 Q28.3005,85.0469 28.8942,84.7813 Q29.488,84.5 30.113,83.9219 L30.113,86.6406 Z " fill="#000000"/><text fill="#000000" font-family="sans-serif" font-size="14" lengthAdjust="spacing" textLength="116.1768" x="42.2874" y="85.8467">CustomerAccess</text><line style="stroke:#181818;stroke-width:0.5;" x1="8" x2="165.6084" y1="97" y2="97"/><text fill="#000000" font-family="sans-serif" font-size="14" lengthAdjust="spacing" textLength="143.0967" x="13" y="113.9951">customer: Customer</text><text fill="#000000" font-family="sans-serif" font-size="14" lengthAdjust="spacing" textLength="147.6084" x="13" y="130.292">employee: Employee</text><line style="stroke:#181818;stroke-width:0.5;" x1="8" x2="165.6084" y1="137.5938" y2="137.5938"/></g><!--class Employee--><g class="entity" data-qualified-name="Employee" data-source-line="13" id="ent0004"><rect fill="#F1F1F1" height="80.5938" rx="2.5" ry="2.5" style="stroke:#181818;stroke-width:0.5;" width="102.6514" x="226.61" y="123"/><ellipse cx="242.2015" cy="139" fill="#ADD1B2" rx="11" ry="11" style="stroke:#181818;stroke-width:1;"/><path d="M245.1703,144.6406 Q244.5921,144.9375 243.9515,145.0781 Q243.3109,145.2344 242.6078,145.2344 Q240.1078,145.2344 238.7796,143.5938 Q237.4671,141.9375 237.4671,138.8125 Q237.4671,135.6875 238.7796,134.0313 Q240.1078,132.375 242.6078,132.375 Q243.3109,132.375 243.9515,132.5313 Q244.6078,132.6875 245.1703,132.9844 L245.1703,135.7031 Q244.5453,135.125 243.9515,134.8594 Q243.3578,134.5781 242.7328,134.5781 Q241.389,134.5781 240.7015,135.6563 Q240.014,136.7188 240.014,138.8125 Q240.014,140.9063 240.7015,141.9844 Q241.389,143.0469 242.7328,143.0469 Q243.3578,143.0469 243.9515,142.7813 Q244.5453,142.5 245.1703,141.9219 L245.1703,144.6406 Z " fill="#000000"/><text fill="#000000" font-family="sans-serif" font-size="14" lengthAdjust="spacing" textLength="69.3369" x="256.3329" y="143.8467">Employee</text><line style="stroke:#181818;stroke-width:0.5;" x1="227.61" x2="328.2614" y1="155" y2="155"/><text fill="#000000" font-family="sans-serif" font-size="14" lengthAdjust="spacing" textLength="90.6514" x="232.61" y="171.9951">name: String</text><text fill="#000000" font-family="sans-serif" font-size="14" lengthAdjust="spacing" textLength="71.6133" x="232.61" y="188.292">user: User</text><line style="stroke:#181818;stroke-width:0.5;" x1="227.61" x2="328.2614" y1="195.5938" y2="195.5938"/></g><!--class User--><g class="entity" data-qualified-name="User" data-source-line="18" id="ent0005"><rect fill="#F1F1F1" height="80.5938" rx="2.5" ry="2.5" style="stroke:#181818;stroke-width:0.5;" width="63.9102" x="450.26" y="123"/><ellipse cx="465.26" cy="139" fill="#ADD1B2" rx="11" ry="11" style="stroke:#181818;stroke-width:1;"/><path d="M468.2288,144.6406 Q467.6506,144.9375 467.01,145.0781 Q466.3694,145.2344 465.6663,145.2344 Q463.1663,145.2344 461.8381,143.5938 Q460.5256,141.9375 460.5256,138.8125 Q460.5256,135.6875 461.8381,134.0313 Q463.1663,132.375 465.6663,132.375 Q466.3694,132.375 467.01,132.5313 Q467.6663,132.6875 468.2288,132.9844 L468.2288,135.7031 Q467.6038,135.125 467.01,134.8594 Q466.4163,134.5781 465.7913,134.5781 Q464.4475,134.5781 463.76,135.6563 Q463.0725,136.7188 463.0725,138.8125 Q463.0725,140.9063 463.76,141.9844 Q464.4475,143.0469 465.7913,143.0469 Q466.4163,143.0469 467.01,142.7813 Q467.6038,142.5 468.2288,141.9219 L468.2288,144.6406 Z " fill="#000000"/><text fill="#000000" font-family="sans-serif" font-size="14" lengthAdjust="spacing" textLength="31.9102" x="479.26" y="143.8467">User</text><line style="stroke:#181818;stroke-width:0.5;" x1="451.26" x2="513.1702" y1="155" y2="155"/><text fill="#000000" font-family="sans-serif" font-size="14" lengthAdjust="spacing" textLength="12.7764" x="456.26" y="171.9951">id</text><text fill="#000000" font-family="sans-serif" font-size="14" lengthAdjust="spacing" textLength="13.3506" x="456.26" y="188.292">...</text><line style="stroke:#181818;stroke-width:0.5;" x1="451.26" x2="513.1702" y1="195.5938" y2="195.5938"/></g><!--reverse link CustomerAccess to Customer--><g class="link" data-entity-1="ent0003" data-entity-2="ent0002" data-link-type="crowfoot" data-source-line="23" id="lnk6"><path codeLine="23" d="M174.569,78.6864 C194.609,72.5464 207.95,68.45 226.17,62.86" fill="none" id="CustomerAccess-backto-Customer" style="stroke:#181818;stroke-width:1;"/><line style="stroke:#181818;stroke-width:1;" x1="174.569" x2="166.92" y1="78.6864" y2="88.679"/><line style="stroke:#181818;stroke-width:1;" x1="174.569" x2="166.92" y1="78.6864" y2="73.381"/><line style="stroke:#181818;stroke-width:1;" x1="174.569" x2="166.92" y1="78.6864" y2="81.03"/></g><!--reverse link CustomerAccess to Employee--><g class="link" data-entity-1="ent0003" data-entity-2="ent0004" data-link-type="crowfoot" data-source-line="25" id="lnk7"><path codeLine="25" d="M174.568,131.8971 C194.608,138.0471 207.95,142.14 226.17,147.72" fill="none" id="CustomerAccess-backto-Employee" style="stroke:#181818;stroke-width:1;"/><line style="stroke:#181818;stroke-width:1;" x1="174.568" x2="166.92" y1="131.8971" y2="137.198"/><line style="stroke:#181818;stroke-width:1;" x1="174.568" x2="166.92" y1="131.8971" y2="121.902"/><line style="stroke:#181818;stroke-width:1;" x1="174.568" x2="166.92" y1="131.8971" y2="129.55"/></g><!--link Employee to User--><g class="link" data-entity-1="ent0004" data-entity-2="ent0005" data-link-type="association" data-source-line="27" id="lnk8"><path codeLine="27" d="M329.72,163.29 C367.52,163.29 417.92,163.29 449.98,163.29" fill="none" id="Employee-User" style="stroke:#181818;stroke-width:1;"/></g><?plantuml-src TOxB3SCW44JlLB4DG06-HL4gi580mXjd9JuHh0zHvDu3DWR9IZW0-uOPnkA3WGD4cfyC4qKqJC4BOQnE2QvBuk0mmaT0Nbux763aI7xU03fDjf7rRBiOWtdSpQR2eSarucN36tFkhTvwpa7-VR-a4dVFU_UKgRwdQJkKKaK-bLgbx4L-YQsEQ3LanYN_2m00?></g></svg>