<svg width="18" height="18" viewBox="0 0 18 18" fill="none" xmlns="http://www.w3.org/2000/svg">
<path fill-rule="evenodd" clip-rule="evenodd" d="M7.70972 0.463679C7.78997 0.283115 7.96903 0.166748 8.16663 0.166748C8.96228 0.166748 9.72534 0.482819 10.2879 1.04543C10.8506 1.60804 11.1666 2.3711 11.1666 3.16675V6.00008H15.3807C15.6937 5.99698 16.0037 6.06174 16.2893 6.18993C16.5759 6.31854 16.831 6.50791 17.0371 6.74492C17.2432 6.98193 17.3953 7.26092 17.4829 7.56255C17.5705 7.86418 17.5914 8.18125 17.5443 8.49178L16.3943 15.9917C16.3943 15.9918 16.3943 15.9916 16.3943 15.9917C16.3159 16.5082 16.0534 16.9794 15.6554 17.3177C15.258 17.6555 14.7521 17.8386 14.2307 17.8334H2.33329C1.75866 17.8334 1.20756 17.6051 0.801228 17.1988C0.394899 16.7925 0.166626 16.2414 0.166626 15.6667V9.83341C0.166626 9.25878 0.394899 8.70768 0.801228 8.30135C1.20756 7.89502 1.75866 7.66675 2.33329 7.66675H4.50836L7.70972 0.463679ZM5.33329 8.27286L8.48055 1.19153C8.89468 1.25735 9.28058 1.45227 9.58084 1.75253C9.95591 2.12761 10.1666 2.63631 10.1666 3.16675V6.50008C10.1666 6.77622 10.3905 7.00008 10.6666 7.00008H15.3833L15.389 7.00005C15.5581 6.99813 15.7256 7.03301 15.8799 7.10226C16.0342 7.17151 16.1716 7.27348 16.2825 7.4011C16.3935 7.52872 16.4754 7.67895 16.5226 7.84136C16.5697 8.00371 16.581 8.17436 16.5557 8.3415C16.5556 8.34157 16.5557 8.34143 16.5557 8.3415L15.4057 15.841C15.3635 16.1192 15.2221 16.3736 15.0077 16.5558C14.7933 16.738 14.5203 16.8366 14.2389 16.8334L5.33329 16.8334V8.27286ZM4.33329 16.8334V8.66675H2.33329C2.02387 8.66675 1.72713 8.78966 1.50833 9.00846C1.28954 9.22725 1.16663 9.524 1.16663 9.83341V15.6667C1.16663 15.9762 1.28954 16.2729 1.50833 16.4917C1.72713 16.7105 2.02387 16.8334 2.33329 16.8334H4.33329Z" fill="#397300"/>
</svg>
