<svg width="16" height="16" viewBox="0 0 16 16" fill="none" xmlns="http://www.w3.org/2000/svg">
    <path fill-rule="evenodd" clip-rule="evenodd" d="M3.2681 3.35738C4.57731 2.00754 6.15508 1.33325 8.00016 1.33325C9.84524 1.33325 11.4179 2.00309 12.7176 3.34214C14.0173 4.68182 14.6668 6.29325 14.6668 8.17833C14.6668 9.66659 14.2402 11.0056 13.3868 12.1961C12.5341 13.3866 11.4427 14.2101 10.1132 14.6666H9.99445C9.75635 14.6666 9.63699 14.5479 9.63699 14.3091L9.65223 13.6399C9.66175 13.2133 9.66683 12.8209 9.66683 12.464C9.66683 11.8888 9.5081 11.4621 9.19064 11.1847C10.1037 11.0653 10.8427 10.7726 11.4078 10.3066C11.9729 9.83992 12.256 9.01135 12.256 7.82151C12.256 7.10722 12.0275 6.49198 11.5716 5.97643C11.7703 5.40055 11.75 4.79547 11.5119 4.16055H11.3633C10.9068 4.16055 10.3411 4.39865 9.66683 4.87484C9.12453 4.72078 8.56391 4.64069 8.00016 4.63674C7.46429 4.63674 6.90873 4.71611 6.3335 4.87484C5.65858 4.39865 5.0935 4.16055 4.63699 4.16055H4.48905C4.25096 4.79547 4.23064 5.40055 4.42937 5.97643C3.97286 6.49198 3.74492 7.10659 3.74492 7.82151C3.74492 9.01198 4.02239 9.84055 4.57794 10.3066C5.1335 10.7726 5.8681 11.0653 6.78112 11.1847C6.56207 11.4025 6.42366 11.7104 6.36397 12.1072C6.12361 12.2268 5.85844 12.2879 5.59 12.2856C5.09413 12.2856 4.70746 12.038 4.42937 11.5415C4.17159 11.1053 3.82429 10.8672 3.3881 10.8272C2.97096 10.8272 2.9608 10.9663 3.35826 11.2437C3.6554 11.4025 3.90366 11.7402 4.10175 12.2558C4.12207 12.3352 4.16143 12.4298 4.22112 12.5383C4.2808 12.6475 4.44397 12.7917 4.71191 12.9701C4.97985 13.1485 5.30239 13.238 5.67953 13.238C5.95699 13.238 6.1754 13.2183 6.33413 13.1783V14.339C6.33413 14.5574 6.22493 14.6666 6.00651 14.6666H5.88778C4.53858 14.2101 3.44207 13.3917 2.59889 12.2113C1.75508 11.0304 1.3335 9.68627 1.3335 8.1777C1.3335 6.29262 1.97858 4.68563 3.2681 3.35611V3.35738Z" fill="white"/>
</svg>
