<svg width="63" height="77" viewBox="0 0 63 77" fill="none" xmlns="http://www.w3.org/2000/svg">
    <path d="M43.5147 3.51472C41.2643 1.26428 38.212 0 35.0294 0H10.9565C4.56522 0 8.74066e-10 5 1.23602e-09 12C1.59797e-09 19 7.27994e-05 58 8.70639e-10 65C-7.27976e-05 72 4.56514 77 10.9564 77C17.3478 77 52.0435 77 52.0435 77C52.0435 77 52.0435 77 52.0435 77C58.4348 77 63 72 63 65L62.5575 27.3877C62.5206 24.2542 61.2595 21.2595 59.0436 19.0436L43.5147 3.51472Z" fill="white"/>
    <path d="M12.0776 65C10.9731 65 10.0776 64.1046 10.0776 63V37C10.0776 35.8954 10.9731 35 12.0776 35H28.034C29.1386 35 30.034 35.8954 30.034 37V38.8887C30.034 39.9932 29.1386 40.8887 28.034 40.8887H18.9953C17.8907 40.8887 16.9953 41.7841 16.9953 42.8887V45.041C16.9953 46.1456 17.8907 47.041 18.9953 47.041H27.0139C28.1184 47.041 29.0139 47.9364 29.0139 49.041V50.9443C29.0139 52.0489 28.1184 52.9443 27.0139 52.9443H18.9953C17.8907 52.9443 16.9953 53.8398 16.9953 54.9443V57.1114C16.9953 58.2159 17.8907 59.1114 18.9953 59.1114H28.0341C29.1386 59.1114 30.034 60.0068 30.034 61.1114V63C30.034 64.1046 29.1386 65 28.034 65H12.0776ZM41.2001 52.168V63C41.2001 64.1046 40.3047 65 39.2001 65H36.3663C35.2617 65 34.3663 64.1046 34.3663 63V44.5C34.3663 43.3954 35.2617 42.5 36.3663 42.5H38.8648C39.9694 42.5 40.8648 43.3954 40.8648 44.5V46.4922C40.8648 46.5688 40.9269 46.6309 41.0035 46.6309V46.6309C41.0626 46.6309 41.1152 46.5932 41.1352 46.5375C41.6145 45.2051 42.414 44.1571 43.534 43.3936C44.68 42.6025 46.0448 42.207 47.6287 42.207C49.138 42.207 50.4471 42.5635 51.5557 43.2764C52.6737 43.9795 53.5401 44.9658 54.155 46.2354C54.7793 47.4951 55.0867 48.9697 55.0774 50.6592V63C55.0774 64.1046 54.182 65 53.0774 65H50.2436C49.1391 65 48.2436 64.1046 48.2436 63V52.0654C48.2529 50.8154 47.9501 49.8389 47.3352 49.1357C46.7295 48.4326 45.8864 48.0811 44.8057 48.0811C44.0883 48.0811 43.4547 48.2471 42.9051 48.5791C42.3648 48.9014 41.9455 49.3652 41.6474 49.9707C41.3585 50.5762 41.2094 51.3086 41.2001 52.168Z" fill="#17124B"/>
    <path d="M38.5192 7.39989L55.5987 24.5281C56.8559 25.7888 55.9629 27.9403 54.1825 27.9403L43.1063 27.9403L36.9999 27.9073C35.8953 27.9013 35.0047 27.0011 35.0107 25.8965L35.0374 20.9588L35.103 8.80129C35.1126 7.02334 37.2638 6.14088 38.5192 7.39989Z" fill="#17124B" stroke="#17124B"/>
</svg>
