<svg width="38" height="38" viewBox="0 0 38 38" fill="none" xmlns="http://www.w3.org/2000/svg">
    <g clip-path="url(#clip0_16828_14584)">
        <path d="M13.8205 2.64854L7.33008 9.13894L9.71133 11.5202L16.2018 5.02979C17.7889 3.44264 20.3363 3.4123 21.9764 4.91231L23.9484 6.85823L26.323 4.48333L24.3643 2.52436C21.4098 -0.289039 16.7211 -0.251997 13.8205 2.64854Z" fill="white"/>
        <path d="M12.1333 18.7388L19.2167 11.6554L26.2444 18.6831L19.161 25.7665L12.1333 18.7388ZM21.5592 28.1651L28.6426 21.0816L29.2917 20.4325C30.2576 19.4666 30.2576 17.9003 29.2917 16.934L28.6426 16.2849L21.6149 9.25724L20.9658 8.60848C19.9999 7.64222 18.4332 7.64222 17.4673 8.60848L16.8182 9.25724L9.73511 16.3407L9.086 16.9898C8.1201 17.9557 8.1201 19.522 9.086 20.4883L9.73511 21.1374L16.7628 28.1651L17.4116 28.8138C18.3778 29.7801 19.9441 29.7801 20.9101 28.8138L21.5592 28.1651Z" fill="white"/>
        <path d="M22.1429 32.4252C20.5554 34.0123 18.008 34.0427 16.3676 32.5423L16.3662 32.5441L14.3747 30.5523L11.9885 32.9388L13.98 34.9302C16.9341 37.744 21.6233 37.7073 24.5242 34.8064L31.0474 28.2832L28.6661 25.902L22.1429 32.4252Z" fill="white"/>
        <path d="M5.47463 21.6751C3.88748 20.0883 3.85714 17.5405 5.35716 15.9005L7.32636 13.9316L4.9317 11.5373L2.96285 13.5062L2.96956 13.5129C0.1558 16.467 0.192842 21.1558 3.09338 24.0567L9.58379 30.5468L11.965 28.1655L5.47463 21.6751Z" fill="white"/>
        <path d="M35.274 13.3757L28.7836 6.88531L26.4023 9.26656L32.8927 15.7569C34.4799 17.3441 34.5102 19.8915 33.0102 21.5316L31.0647 23.5036L33.4392 25.8781L35.3982 23.9192C38.2116 20.965 38.1745 16.2762 35.274 13.3757Z" fill="white"/>
    </g>
    <defs>
        <clipPath id="clip0_16828_14584">
            <rect width="38" height="38" fill="white"/>
        </clipPath>
    </defs>
</svg>