<svg width="80" height="59" viewBox="0 0 80 59" fill="none" xmlns="http://www.w3.org/2000/svg">
    <path fill-rule="evenodd" clip-rule="evenodd" d="M73.0613 0.44767C69.6514 0.229073 64.2324 0 56.5 0C48.7676 0 43.3486 0.229073 39.9387 0.44767C36.5278 0.666173 33.8162 3.03248 33.5132 6.20087C33.2529 8.92309 33 13.0319 33 18.7211C33 24.4104 33.2529 28.5192 33.5132 31.2413C33.8162 34.4097 36.5278 36.776 39.9387 36.9946C43.2104 37.2042 48.3316 37.4237 55.5708 37.4411L63.1563 43.4175C64.8501 44.752 67.4667 43.6459 67.4667 41.5952V37.2653C69.726 37.1861 71.5826 37.0894 73.0613 36.9945C76.4723 36.776 79.1838 34.4097 79.4868 31.2413C79.7471 28.5192 80 24.4104 80 18.7211C80 13.0319 79.7471 8.92309 79.4868 6.20087C79.1838 3.03248 76.4723 0.666173 73.0613 0.44767Z" fill="white"/>
    <path d="M50 14L60.4318 14L67 14" stroke="#17124B" stroke-width="6" stroke-linecap="round"/>
    <path d="M54 26L63.75 26H67" stroke="#17124B" stroke-width="6" stroke-linecap="round"/>
    <g clip-path="url(#clip0_0_1)">
        <path fill-rule="evenodd" clip-rule="evenodd" d="M7.7256 11.9586C11.0766 11.7249 16.4019 11.48 24.0006 11.48C31.5993 11.48 36.9246 11.7249 40.2756 11.9586C43.6275 12.1922 46.2922 14.722 46.59 18.1093C46.8458 21.0196 47.0943 25.4123 47.0943 31.4946C47.0943 37.5769 46.8458 41.9696 46.59 44.8798C46.2922 48.2671 43.6275 50.7969 40.2756 51.0306C37.0604 51.2547 32.0278 51.4894 24.9137 51.5079L17.4594 57.8973C15.7949 59.324 13.2235 58.1414 13.2235 55.9491V51.32C11.0033 51.2353 9.1788 51.132 7.7256 51.0305C4.3736 50.7969 1.709 48.2671 1.4112 44.8798C1.1554 41.9696 0.906898 37.5769 0.906898 31.4946C0.906898 25.4123 1.1554 21.0196 1.4112 18.1093C1.709 14.722 4.3736 12.1922 7.7256 11.9586Z" fill="white"/>
        <path fill-rule="evenodd" clip-rule="evenodd" d="M-11.7763 77.0613C-8.42527 76.8276 -3.09997 76.5827 4.49873 76.5827C12.0974 76.5827 17.4227 76.8276 20.7737 77.0613C24.1256 77.2949 26.7903 79.8247 27.0881 83.212C27.3439 86.1223 27.5924 90.515 27.5924 96.5973C27.5924 102.68 27.3439 107.072 27.0881 109.982C26.7903 113.37 24.1256 115.9 20.7737 116.133C17.5585 116.357 12.5259 116.592 5.41183 116.611L-2.04247 123C-3.70697 124.427 -6.27837 123.244 -6.27837 121.052V116.423C-8.49857 116.338 -10.3231 116.235 -11.7763 116.133C-15.1283 115.9 -17.7929 113.37 -18.0907 109.982C-18.3465 107.072 -18.595 102.68 -18.595 96.5973C-18.595 90.515 -18.3465 86.1223 -18.0907 83.212C-17.7929 79.8247 -15.1283 77.2949 -11.7763 77.0613ZM16.2699 89.8357C16.2894 90.1468 16.3022 90.5167 16.3022 90.9521C16.3022 91.3908 16.2892 91.7625 16.2695 92.0743C16.2021 93.1419 15.355 93.848 14.3495 93.8935C12.9472 93.9567 10.1064 94.0313 4.49873 94.0313C-1.08997 94.0313 -3.93007 93.9601 -5.33697 93.8993C-6.34997 93.8557 -7.20527 93.1443 -7.27247 92.0685C-7.29197 91.7574 -7.30477 91.3875 -7.30477 90.9521C-7.30477 90.5167 -7.29197 90.1468 -7.27247 89.8357C-7.20527 88.76 -6.34997 88.0486 -5.33697 88.005C-3.93007 87.9442 -1.08987 87.873 4.49873 87.873C10.0874 87.873 12.9275 87.9442 14.3344 88.005C15.3474 88.0486 16.2027 88.76 16.2699 89.8357ZM8.07253 101.18C8.08383 101.478 8.09113 101.83 8.09113 102.242C8.09113 102.659 8.08363 103.014 8.07213 103.313C8.03123 104.377 7.23653 105.157 6.18663 105.214C5.16743 105.269 3.40463 105.322 0.393129 105.322C-2.60117 105.322 -4.36067 105.271 -5.38197 105.219C-6.44047 105.164 -7.24547 104.379 -7.28617 103.305C-7.29747 103.007 -7.30477 102.655 -7.30477 102.242C-7.30477 101.83 -7.29747 101.478 -7.28617 101.18C-7.24557 100.106 -6.44057 99.3206 -5.38197 99.2662C-4.36067 99.2138 -2.60117 99.1633 0.393129 99.1633C3.38753 99.1633 5.14703 99.2138 6.16833 99.2662C7.22683 99.3206 8.03183 100.106 8.07253 101.18Z" fill="white"/>
        <path d="M16.214 39.0774C15.8822 40.2166 14.838 41 13.6514 41V41C11.8446 41 10.5598 39.2424 11.1081 37.5208L15.7046 23.0895C16.101 21.845 17.257 21 18.5631 21H21.3388C22.6449 21 23.801 21.845 24.1973 23.0896L28.7938 37.5209C29.3421 39.2424 28.0573 41 26.2505 41V41C25.0639 41 24.0198 40.2166 23.6879 39.0774L20.0474 26.5802C20.035 26.5373 19.9956 26.5078 19.951 26.5078V26.5078C19.9063 26.5078 19.867 26.5373 19.8545 26.5802L16.214 39.0774ZM14.5986 35.1406C14.5986 34.0188 15.508 33.1094 16.6298 33.1094H23.1967C24.3186 33.1094 25.228 34.0188 25.228 35.1406V35.1406C25.228 36.2624 24.3186 37.1719 23.1967 37.1719H16.6298C15.508 37.1719 14.5986 36.2624 14.5986 35.1406V35.1406ZM34.3804 21C35.8272 21 37 22.1728 37 23.6196V38.3804C37 39.8272 35.8272 41 34.3804 41V41C32.9336 41 31.7607 39.8272 31.7607 38.3804V23.6196C31.7607 22.1728 32.9336 21 34.3804 21V21Z" fill="#17124B"/>
    </g>
    <defs>
        <clipPath id="clip0_0_1">
            <rect width="48" height="48" fill="white" transform="translate(0 11)"/>
        </clipPath>
    </defs>
</svg>
