<svg width="63" height="77" viewBox="0 0 63 77" fill="none" xmlns="http://www.w3.org/2000/svg">
    <path d="M43.498 3.42199C41.2557 1.22836 38.2434 0 35.1065 0H9C2.6087 0 -3.61953e-10 3 0 10C3.61953e-10 17 7.27985e-05 60 0 67C-7.27985e-05 74 2.6087 77 9 77C15.3913 77 54 77 54 77C54 77 54 77 54 77C60.3913 77 63 74 63 67V27.548C63 24.3197 61.6992 21.2275 59.3915 18.97L43.498 3.42199Z" fill="white"/>
    <path d="M11 65C9.89543 65 9 64.1046 9 63V37C9 35.8954 9.89543 35 11 35H26.9564C28.061 35 28.9564 35.8954 28.9564 37V38.8887C28.9564 39.9932 28.061 40.8887 26.9564 40.8887H17.9177C16.8131 40.8887 15.9177 41.7841 15.9177 42.8887V45.041C15.9177 46.1456 16.8131 47.041 17.9177 47.041H25.9362C27.0408 47.041 27.9362 47.9364 27.9362 49.041V50.9443C27.9362 52.0489 27.0408 52.9443 25.9362 52.9443H17.9177C16.8131 52.9443 15.9177 53.8398 15.9177 54.9443V57.1114C15.9177 58.2159 16.8131 59.1114 17.9177 59.1114H26.9564C28.061 59.1114 28.9564 60.0068 28.9564 61.1114V63C28.9564 64.1046 28.061 65 26.9564 65H11ZM40.1225 52.168V63C40.1225 64.1046 39.227 65 38.1225 65H35.2887C34.1841 65 33.2887 64.1046 33.2887 63V44.5C33.2887 43.3954 34.1841 42.5 35.2887 42.5H37.7872C38.8917 42.5 39.7872 43.3954 39.7872 44.5V46.4922C39.7872 46.5688 39.8493 46.6309 39.9258 46.6309V46.6309C39.985 46.6309 40.0375 46.5932 40.0576 46.5375C40.5368 45.2051 41.3364 44.1571 42.4563 43.3936C43.6023 42.6025 44.9671 42.207 46.5511 42.207C48.0603 42.207 49.3694 42.5635 50.478 43.2764C51.5961 43.9795 52.4624 44.9658 53.0773 46.2354C53.7017 47.4951 54.009 48.9697 53.9998 50.6592V63C53.9998 64.1046 53.1044 65 51.9998 65H49.166C48.0614 65 47.166 64.1046 47.166 63V52.0654C47.1753 50.8154 46.8724 49.8389 46.2575 49.1357C45.6519 48.4326 44.8087 48.0811 43.7281 48.0811C43.0106 48.0811 42.377 48.2471 41.8275 48.5791C41.2871 48.9014 40.8678 49.3652 40.5697 49.9707C40.2809 50.5762 40.1317 51.3086 40.1225 52.168Z" fill="#17124B"/>
    <path d="M39.5192 6.39989L56.5987 23.5281C57.8559 24.7888 56.9629 26.9403 55.1825 26.9403L44.1063 26.9403L37.9999 26.9073C36.8953 26.9013 36.0047 26.0011 36.0107 24.8965L36.0374 19.9588L36.103 7.80129C36.1126 6.02334 38.2638 5.14088 39.5192 6.39989Z" fill="#17124B" stroke="#17124B"/>
</svg>