<svg width="78" height="54" viewBox="0 0 78 54" fill="none" xmlns="http://www.w3.org/2000/svg">
    <path fill-rule="evenodd" clip-rule="evenodd" d="M71.0613 0.44767C67.6514 0.229073 62.2324 0 54.5 0C46.7676 0 41.3486 0.229073 37.9387 0.44767C34.5278 0.666173 31.8162 3.03248 31.5132 6.20087C31.2529 8.92309 31 13.0319 31 18.7211C31 24.4104 31.2529 28.5192 31.5132 31.2413C31.8162 34.4097 34.5278 36.776 37.9387 36.9946C41.2104 37.2042 46.3316 37.4237 53.5708 37.4411L61.1563 43.4175C62.8501 44.752 65.4667 43.6459 65.4667 41.5952V37.2653C67.726 37.1861 69.5826 37.0894 71.0613 36.9945C74.4723 36.776 77.1838 34.4097 77.4868 31.2413C77.7471 28.5192 78 24.4104 78 18.7211C78 13.0319 77.7471 8.92309 77.4868 6.20087C77.1838 3.03248 74.4723 0.666173 71.0613 0.44767Z" fill="white"/>
    <path d="M45 15H58.5H67" stroke="#17124B" stroke-width="6" stroke-linecap="round"/>
    <path d="M47 25H58.25H62" stroke="#17124B" stroke-width="6" stroke-linecap="round"/>
    <g clip-path="url(#clip0_0_1)">
        <path fill-rule="evenodd" clip-rule="evenodd" d="M7.7256 6.95858C11.0766 6.72488 16.4019 6.47998 24.0006 6.47998C31.5993 6.47998 36.9246 6.72488 40.2756 6.95858C43.6275 7.19218 46.2922 9.72198 46.59 13.1093C46.8458 16.0196 47.0943 20.4123 47.0943 26.4946C47.0943 32.5769 46.8458 36.9696 46.59 39.8798C46.2922 43.2671 43.6275 45.7969 40.2756 46.0306C37.0604 46.2547 32.0278 46.4894 24.9137 46.5079L17.4594 52.8973C15.7949 54.324 13.2235 53.1414 13.2235 50.9491V46.32C11.0033 46.2353 9.1788 46.132 7.7256 46.0305C4.3736 45.7969 1.709 43.2671 1.4112 39.8798C1.1554 36.9696 0.906898 32.5769 0.906898 26.4946C0.906898 20.4123 1.1554 16.0196 1.4112 13.1093C1.709 9.72198 4.3736 7.19218 7.7256 6.95858Z" fill="white"/>
        <path fill-rule="evenodd" clip-rule="evenodd" d="M-11.7763 72.0613C-8.42527 71.8276 -3.09997 71.5827 4.49873 71.5827C12.0974 71.5827 17.4227 71.8276 20.7737 72.0613C24.1256 72.2949 26.7903 74.8247 27.0881 78.212C27.3439 81.1223 27.5924 85.515 27.5924 91.5973C27.5924 97.6796 27.3439 102.072 27.0881 104.982C26.7903 108.37 24.1256 110.9 20.7737 111.133C17.5585 111.357 12.5259 111.592 5.41183 111.611L-2.04247 118C-3.70697 119.427 -6.27837 118.244 -6.27837 116.052V111.423C-8.49857 111.338 -10.3231 111.235 -11.7763 111.133C-15.1283 110.9 -17.7929 108.37 -18.0907 104.982C-18.3465 102.072 -18.595 97.6796 -18.595 91.5973C-18.595 85.515 -18.3465 81.1223 -18.0907 78.212C-17.7929 74.8247 -15.1283 72.2949 -11.7763 72.0613ZM16.2699 84.8357C16.2894 85.1468 16.3022 85.5167 16.3022 85.9521C16.3022 86.3908 16.2892 86.7625 16.2695 87.0743C16.2021 88.1419 15.355 88.848 14.3495 88.8935C12.9472 88.9567 10.1064 89.0313 4.49873 89.0313C-1.08997 89.0313 -3.93007 88.9601 -5.33697 88.8993C-6.34997 88.8557 -7.20527 88.1443 -7.27247 87.0685C-7.29197 86.7574 -7.30477 86.3875 -7.30477 85.9521C-7.30477 85.5167 -7.29197 85.1468 -7.27247 84.8357C-7.20527 83.76 -6.34997 83.0486 -5.33697 83.005C-3.93007 82.9442 -1.08987 82.873 4.49873 82.873C10.0874 82.873 12.9275 82.9442 14.3344 83.005C15.3474 83.0486 16.2027 83.76 16.2699 84.8357ZM8.07253 96.18C8.08383 96.4782 8.09113 96.8303 8.09113 97.2424C8.09113 97.6589 8.08363 98.0138 8.07213 98.3132C8.03123 99.3773 7.23653 100.157 6.18663 100.214C5.16743 100.269 3.40463 100.322 0.393129 100.322C-2.60117 100.322 -4.36067 100.271 -5.38197 100.219C-6.44047 100.164 -7.24547 99.3788 -7.28617 98.3048C-7.29747 98.0067 -7.30477 97.6545 -7.30477 97.2424C-7.30477 96.8303 -7.29747 96.4782 -7.28617 96.18C-7.24557 95.106 -6.44057 94.3206 -5.38197 94.2662C-4.36067 94.2138 -2.60117 94.1633 0.393129 94.1633C3.38753 94.1633 5.14703 94.2138 6.16833 94.2662C7.22683 94.3206 8.03183 95.106 8.07253 96.18Z" fill="white"/>
        <path d="M14.214 33.5774C13.8822 34.7166 12.838 35.5 11.6514 35.5V35.5C9.84458 35.5 8.5598 33.7424 9.10815 32.0208L13.7046 17.5895C14.101 16.345 15.257 15.5 16.5631 15.5H19.3388C20.6449 15.5 21.801 16.345 22.1973 17.5896L26.7938 32.0209C27.3421 33.7424 26.0573 35.5 24.2505 35.5V35.5C23.0639 35.5 22.0198 34.7166 21.6879 33.5774L18.0474 21.0802C18.035 21.0373 17.9956 21.0078 17.951 21.0078V21.0078C17.9063 21.0078 17.867 21.0373 17.8545 21.0802L14.214 33.5774ZM12.5986 29.6406C12.5986 28.5188 13.508 27.6094 14.6298 27.6094H21.1967C22.3186 27.6094 23.228 28.5188 23.228 29.6406V29.6406C23.228 30.7624 22.3186 31.6719 21.1967 31.6719H14.6298C13.508 31.6719 12.5986 30.7624 12.5986 29.6406V29.6406ZM32.3804 15.5C33.8272 15.5 35 16.6728 35 18.1196V32.8804C35 34.3272 33.8272 35.5 32.3804 35.5V35.5C30.9336 35.5 29.7607 34.3272 29.7607 32.8804V18.1196C29.7607 16.6728 30.9336 15.5 32.3804 15.5V15.5Z" fill="#17124B"/>
    </g>
    <defs>
        <clipPath id="clip0_0_1">
            <rect width="48" height="48" fill="white" transform="translate(0 6)"/>
        </clipPath>
    </defs>
</svg>