<svg width="16" height="16" viewBox="0 0 16 16" fill="none" xmlns="http://www.w3.org/2000/svg">
    <g clip-path="url(#clip0_15081_869)">
        <path d="M9.6665 6.66675C9.11317 6.66675 8.6665 6.22008 8.6665 5.66675V2.33341C8.6665 1.78008 9.11317 1.33341 9.6665 1.33341C10.2198 1.33341 10.6665 1.78008 10.6665 2.33341V5.66675C10.6665 6.22008 10.2198 6.66675 9.6665 6.66675Z" fill="white"/>
        <path fill-rule="evenodd" clip-rule="evenodd" d="M9.6665 2.00008C9.48136 2.00008 9.33317 2.14827 9.33317 2.33341V5.66675C9.33317 5.85189 9.48136 6.00008 9.6665 6.00008C9.85165 6.00008 9.99984 5.85189 9.99984 5.66675V2.33341C9.99984 2.14827 9.85165 2.00008 9.6665 2.00008ZM7.99984 2.33341C7.99984 1.41189 8.74498 0.666748 9.6665 0.666748C10.588 0.666748 11.3332 1.41189 11.3332 2.33341V5.66675C11.3332 6.58827 10.588 7.33341 9.6665 7.33341C8.74498 7.33341 7.99984 6.58827 7.99984 5.66675V2.33341Z" fill="white"/>
        <path d="M13.6665 6.66675H12.6665V5.66675C12.6665 5.11341 13.1132 4.66675 13.6665 4.66675C14.2198 4.66675 14.6665 5.11341 14.6665 5.66675C14.6665 6.22008 14.2198 6.66675 13.6665 6.66675Z" fill="white"/>
        <path fill-rule="evenodd" clip-rule="evenodd" d="M13.6665 5.33341C13.4814 5.33341 13.3332 5.4816 13.3332 5.66675V6.00008H13.6665C13.8516 6.00008 13.9998 5.85189 13.9998 5.66675C13.9998 5.4816 13.8516 5.33341 13.6665 5.33341ZM11.9998 5.66675C11.9998 4.74522 12.745 4.00008 13.6665 4.00008C14.588 4.00008 15.3332 4.74522 15.3332 5.66675C15.3332 6.58827 14.588 7.33341 13.6665 7.33341H12.6665C12.2983 7.33341 11.9998 7.03494 11.9998 6.66675V5.66675Z" fill="white"/>
        <path d="M6.33317 9.33341C6.8865 9.33341 7.33317 9.78008 7.33317 10.3334V13.6667C7.33317 14.2201 6.8865 14.6667 6.33317 14.6667C5.77984 14.6667 5.33317 14.2201 5.33317 13.6667V10.3334C5.33317 9.78008 5.77984 9.33341 6.33317 9.33341Z" fill="white"/>
        <path fill-rule="evenodd" clip-rule="evenodd" d="M6.33317 10.0001C6.14803 10.0001 5.99984 10.1483 5.99984 10.3334V13.6667C5.99984 13.8519 6.14803 14.0001 6.33317 14.0001C6.51831 14.0001 6.6665 13.8519 6.6665 13.6667V10.3334C6.6665 10.1483 6.51831 10.0001 6.33317 10.0001ZM4.6665 10.3334C4.6665 9.41189 5.41165 8.66675 6.33317 8.66675C7.25469 8.66675 7.99984 9.41189 7.99984 10.3334V13.6667C7.99984 14.5883 7.25469 15.3334 6.33317 15.3334C5.41165 15.3334 4.6665 14.5883 4.6665 13.6667V10.3334Z" fill="white"/>
        <path d="M2.33317 9.33341H3.33317V10.3334C3.33317 10.8867 2.8865 11.3334 2.33317 11.3334C1.77984 11.3334 1.33317 10.8867 1.33317 10.3334C1.33317 9.78008 1.77984 9.33341 2.33317 9.33341Z" fill="white"/>
        <path fill-rule="evenodd" clip-rule="evenodd" d="M2.33317 10.0001C2.14803 10.0001 1.99984 10.1483 1.99984 10.3334C1.99984 10.5186 2.14803 10.6667 2.33317 10.6667C2.51831 10.6667 2.6665 10.5186 2.6665 10.3334V10.0001H2.33317ZM0.666504 10.3334C0.666504 9.41189 1.41165 8.66675 2.33317 8.66675H3.33317C3.70136 8.66675 3.99984 8.96522 3.99984 9.33341V10.3334C3.99984 11.2549 3.25469 12.0001 2.33317 12.0001C1.41165 12.0001 0.666504 11.2549 0.666504 10.3334Z" fill="white"/>
        <path d="M9.33317 9.66675C9.33317 9.11341 9.77984 8.66675 10.3332 8.66675H13.6665C14.2198 8.66675 14.6665 9.11341 14.6665 9.66675C14.6665 10.2201 14.2198 10.6667 13.6665 10.6667H10.3332C9.77984 10.6667 9.33317 10.2201 9.33317 9.66675Z" fill="white"/>
        <path fill-rule="evenodd" clip-rule="evenodd" d="M10.3332 9.33341C10.148 9.33341 9.99984 9.4816 9.99984 9.66675C9.99984 9.85189 10.148 10.0001 10.3332 10.0001H13.6665C13.8516 10.0001 13.9998 9.85189 13.9998 9.66675C13.9998 9.4816 13.8516 9.33341 13.6665 9.33341H10.3332ZM8.6665 9.66675C8.6665 8.74522 9.41165 8.00008 10.3332 8.00008H13.6665C14.588 8.00008 15.3332 8.74522 15.3332 9.66675C15.3332 10.5883 14.588 11.3334 13.6665 11.3334H10.3332C9.41165 11.3334 8.6665 10.5883 8.6665 9.66675Z" fill="white"/>
        <path d="M10.3332 12.6667H9.33317V13.6667C9.33317 14.2201 9.77984 14.6667 10.3332 14.6667C10.8865 14.6667 11.3332 14.2201 11.3332 13.6667C11.3332 13.1134 10.8865 12.6667 10.3332 12.6667Z" fill="white"/>
        <path fill-rule="evenodd" clip-rule="evenodd" d="M8.6665 12.6667C8.6665 12.2986 8.96498 12.0001 9.33317 12.0001H10.3332C11.2547 12.0001 11.9998 12.7452 11.9998 13.6667C11.9998 14.5883 11.2547 15.3334 10.3332 15.3334C9.41165 15.3334 8.6665 14.5883 8.6665 13.6667V12.6667ZM9.99984 13.3334V13.6667C9.99984 13.8519 10.148 14.0001 10.3332 14.0001C10.5183 14.0001 10.6665 13.8519 10.6665 13.6667C10.6665 13.4816 10.5183 13.3334 10.3332 13.3334H9.99984Z" fill="white"/>
        <path d="M6.6665 6.33341C6.6665 5.78008 6.21984 5.33341 5.6665 5.33341H2.33317C1.77984 5.33341 1.33317 5.78008 1.33317 6.33341C1.33317 6.88675 1.77984 7.33341 2.33317 7.33341H5.6665C6.21984 7.33341 6.6665 6.88675 6.6665 6.33341Z" fill="white"/>
        <path fill-rule="evenodd" clip-rule="evenodd" d="M0.666504 6.33341C0.666504 5.41189 1.41165 4.66675 2.33317 4.66675H5.6665C6.58803 4.66675 7.33317 5.41189 7.33317 6.33341C7.33317 7.25494 6.58803 8.00008 5.6665 8.00008H2.33317C1.41165 8.00008 0.666504 7.25494 0.666504 6.33341ZM2.33317 6.00008C2.14803 6.00008 1.99984 6.14827 1.99984 6.33341C1.99984 6.51856 2.14803 6.66675 2.33317 6.66675H5.6665C5.85165 6.66675 5.99984 6.51856 5.99984 6.33341C5.99984 6.14827 5.85165 6.00008 5.6665 6.00008H2.33317Z" fill="white"/>
        <path d="M5.6665 3.33341H6.6665V2.33341C6.6665 1.78008 6.21984 1.33341 5.6665 1.33341C5.11317 1.33341 4.6665 1.78008 4.6665 2.33341C4.6665 2.88675 5.11317 3.33341 5.6665 3.33341Z" fill="white"/>
        <path fill-rule="evenodd" clip-rule="evenodd" d="M3.99984 2.33341C3.99984 1.41189 4.74498 0.666748 5.6665 0.666748C6.58803 0.666748 7.33317 1.41189 7.33317 2.33341V3.33341C7.33317 3.7016 7.03469 4.00008 6.6665 4.00008H5.6665C4.74498 4.00008 3.99984 3.25494 3.99984 2.33341ZM5.6665 2.00008C5.48136 2.00008 5.33317 2.14827 5.33317 2.33341C5.33317 2.51856 5.48136 2.66675 5.6665 2.66675H5.99984V2.33341C5.99984 2.14827 5.85165 2.00008 5.6665 2.00008Z" fill="white"/>
    </g>
    <defs>
        <clipPath id="clip0_15081_869">
            <rect width="16" height="16" fill="white"/>
        </clipPath>
    </defs>
</svg>