<svg width="20" height="20" viewBox="0 0 20 20" fill="none" xmlns="http://www.w3.org/2000/svg">
    <path fill-rule="evenodd" clip-rule="evenodd" d="M8.77348 1.90283C9.14789 1.69204 9.57031 1.5813 9.99998 1.5813C10.4296 1.5813 10.8521 1.69204 11.2265 1.90283C11.6009 2.11363 11.9146 2.41736 12.1375 2.78473L12.1399 2.78869L19.1982 14.572L19.205 14.5835C19.4233 14.9616 19.5388 15.3902 19.54 15.8267C19.5412 16.2632 19.4281 16.6924 19.2119 17.0717C18.9958 17.4509 18.6841 17.767 18.3078 17.9883C17.9316 18.2097 17.504 18.3287 17.0675 18.3335L17.0583 18.3336L2.93248 18.3336C2.49598 18.3288 2.06834 18.2097 1.69212 17.9883C1.31589 17.767 1.00419 17.4509 0.788018 17.0717C0.571848 16.6924 0.458748 16.2632 0.459971 15.8267C0.461193 15.3902 0.576695 14.9616 0.794985 14.5835L0.801754 14.572L7.86009 2.78869L8.57496 3.21691L7.86248 2.78473C8.08531 2.41736 8.39907 2.11363 8.77348 1.90283ZM9.28848 3.64745L2.23555 15.4218C2.16457 15.5466 2.12703 15.6877 2.12663 15.8314C2.12622 15.9769 2.16392 16.1199 2.23598 16.2464C2.30804 16.3728 2.41194 16.4781 2.53735 16.5519C2.66166 16.6251 2.80281 16.6647 2.94697 16.6669H17.053C17.1971 16.6647 17.3383 16.6251 17.4626 16.5519C17.588 16.4781 17.6919 16.3728 17.764 16.2464C17.836 16.1199 17.8737 15.9769 17.8733 15.8314C17.8729 15.6877 17.8354 15.5466 17.7644 15.4218L10.7125 3.64911C10.7121 3.64856 10.7118 3.648 10.7115 3.64745C10.6373 3.52574 10.533 3.42509 10.4088 3.35514C10.284 3.28488 10.1432 3.24797 9.99998 3.24797C9.85675 3.24797 9.71595 3.28488 9.59114 3.35514C9.46691 3.42509 9.3627 3.52574 9.28848 3.64745Z" fill="#DA8F04"/>
    <path fill-rule="evenodd" clip-rule="evenodd" d="M10.0003 6.66675C10.4606 6.66675 10.8337 7.03984 10.8337 7.50008V10.8334C10.8337 11.2937 10.4606 11.6667 10.0003 11.6667C9.54009 11.6667 9.16699 11.2937 9.16699 10.8334V7.50008C9.16699 7.03984 9.54009 6.66675 10.0003 6.66675Z" fill="#DA8F04"/>
    <path fill-rule="evenodd" clip-rule="evenodd" d="M9.16699 14.1666C9.16699 13.7063 9.54009 13.3333 10.0003 13.3333H10.0087C10.4689 13.3333 10.842 13.7063 10.842 14.1666C10.842 14.6268 10.4689 14.9999 10.0087 14.9999H10.0003C9.54009 14.9999 9.16699 14.6268 9.16699 14.1666Z" fill="#DA8F04"/>
</svg>