<svg width="16" height="16" viewBox="0 0 16 16" fill="none" xmlns="http://www.w3.org/2000/svg">
<path fill-rule="evenodd" clip-rule="evenodd" d="M11 15C13.2091 15 15 13.2091 15 11C15 8.79086 13.2091 7 11 7C8.79086 7 7 8.79086 7 11C7 13.2091 8.79086 15 11 15ZM11.6699 8.33421L12.3333 8.33334V9.00044H11.6689C11.3007 9.00044 11.0022 9.29891 11.0022 9.6671V10.3449H12.3287V11.0116H11.0022V13.6667H10.3383V11.0116H9.66663V10.3449H10.3383V9.66754C10.3383 8.93184 10.9342 8.33517 11.6699 8.33421Z" fill="#6E6E6E"/>
<path fill-rule="evenodd" clip-rule="evenodd" d="M1.875 4.5V10.625C1.875 11.1083 2.26675 11.5 2.75 11.5H8V12.375H2.75C1.7835 12.375 1 11.5915 1 10.625V2.75C1 1.7835 1.7835 1 2.75 1H13.25C14.2165 1 15 1.7835 15 2.75V10.625C15 11.5336 14.3075 12.2805 13.4215 12.3667V11.4832C13.8227 11.4035 14.125 11.0496 14.125 10.625V4.5H1.875ZM4.0625 2.75117C4.0625 3.11361 3.76868 3.40742 3.40625 3.40742C3.04382 3.40742 2.75 3.11361 2.75 2.75117C2.75 2.38873 3.04382 2.09492 3.40625 2.09492C3.76868 2.09492 4.0625 2.38873 4.0625 2.75117ZM5.59375 3.40742C5.95618 3.40742 6.25 3.11361 6.25 2.75117C6.25 2.38873 5.95618 2.09492 5.59375 2.09492C5.23132 2.09492 4.9375 2.38873 4.9375 2.75117C4.9375 3.11361 5.23132 3.40742 5.59375 3.40742ZM8.43933 2.75117C8.43933 3.11361 8.14551 3.40742 7.78308 3.40742C7.42064 3.40742 7.12683 3.11361 7.12683 2.75117C7.12683 2.38873 7.42064 2.09492 7.78308 2.09492C8.14551 2.09492 8.43933 2.38873 8.43933 2.75117Z" fill="#6E6E6E"/>
</svg>
