<svg width="16" height="16" viewBox="0 0 16 16" fill="none" xmlns="http://www.w3.org/2000/svg">
<path d="M9.68 4.9C9.4415 3.97823 9.071 3.09577 8.58 2.28C8.3868 2.27003 8.19321 2.27003 8 2.28H7.55C7.05245 3.09719 6.67841 3.98344 6.44 4.91C6.95 4.91 7.44 4.91 8 4.91C8.56 4.91 9.13 4.94 9.68 4.9Z" fill="#9AA7B0" fill-opacity="0.8"/>
<path d="M6.22999 5.78C6.07543 6.59421 5.99842 7.42125 5.99999 8.25C6.00224 9.03129 6.0725 9.8109 6.20999 10.58C6.79999 10.58 7.38999 10.51 7.99999 10.51C8.60999 10.51 9.28999 10.51 9.90999 10.59C10.052 9.81814 10.1223 9.03481 10.12 8.25C10.1211 7.41796 10.0441 6.58765 9.88999 5.77C9.26999 5.82 8.63999 5.85 7.99999 5.85C7.35999 5.85 6.80999 5.82 6.22999 5.78Z" fill="#9AA7B0" fill-opacity="0.8"/>
<path d="M6.39999 11.46C6.64653 12.4344 7.03395 13.3675 7.54999 14.23H7.99999C8.1932 14.24 8.38679 14.24 8.57999 14.23C9.09028 13.3729 9.47423 12.4467 9.71999 11.48C9.15999 11.43 8.58999 11.41 7.99999 11.41C7.40999 11.41 6.91999 11.42 6.39999 11.46Z" fill="#9AA7B0" fill-opacity="0.8"/>
<path d="M11 8.25C11.0027 9.06133 10.9324 9.87125 10.79 10.67C11.6238 10.7685 12.4517 10.912 13.27 11.1C13.7549 10.2024 14.003 9.19604 13.9908 8.17593C13.9785 7.15581 13.7064 6.15566 13.2 5.27C12.395 5.4546 11.5804 5.59481 10.76 5.69C10.9229 6.53353 11.0033 7.3909 11 8.25V8.25Z" fill="#9AA7B0" fill-opacity="0.8"/>
<path d="M9.70001 14C10.9163 13.641 11.9876 12.9058 12.76 11.9C12.05 11.7454 11.3324 11.6285 10.61 11.55C10.4008 12.3986 10.0955 13.2206 9.70001 14V14Z" fill="#9AA7B0" fill-opacity="0.8"/>
<path d="M9.70001 2.5C10.0736 3.23936 10.3653 4.01731 10.57 4.82C11.3 4.74 11.99 4.62 12.66 4.48C11.8965 3.53565 10.8643 2.84524 9.70001 2.5V2.5Z" fill="#9AA7B0" fill-opacity="0.8"/>
<path d="M5.11 8.25C5.11269 7.39449 5.19302 6.54099 5.35 5.7C4.49159 5.61202 3.63979 5.46839 2.8 5.27C2.29211 6.15481 2.01823 7.15451 2.00423 8.17463C1.99023 9.19475 2.23658 10.2016 2.72 11.1C3.57758 10.9039 4.44566 10.757 5.32 10.66C5.18299 9.86392 5.11275 9.05778 5.11 8.25V8.25Z" fill="#9AA7B0" fill-opacity="0.8"/>
<path d="M6.44 2.46C5.22227 2.78456 4.13765 3.48431 3.34 4.46C4.06987 4.61614 4.8076 4.73297 5.55 4.81C5.76001 3.99653 6.05845 3.2085 6.44 2.46V2.46Z" fill="#9AA7B0" fill-opacity="0.8"/>
<path d="M6.44 14C6.03806 13.2038 5.72613 12.3653 5.51 11.5C4.75078 11.5795 3.99636 11.6997 3.25 11.86C4.05009 12.9036 5.17088 13.6555 6.44 14V14Z" fill="#9AA7B0" fill-opacity="0.8"/>
</svg>
