<?xml version="1.0" encoding="us-ascii" standalone="no"?><svg xmlns="http://www.w3.org/2000/svg" xmlns:xlink="http://www.w3.org/1999/xlink" contentStyleType="text/css" height="486px" preserveAspectRatio="none" style="width:453px;height:486px;background:#FFFFFF;" version="1.1" viewBox="0 0 453 486" width="453px" zoomAndPan="magnify"><defs/><g><rect fill="#FFFFFF" height="29.1328" style="stroke:#181818;stroke-width:1.0;" width="10" x="226" y="170.6953"/><rect fill="#FFFFFF" height="71.2656" style="stroke:#181818;stroke-width:1.0;" width="10" x="226" y="287.2266"/><rect fill="#FFFFFF" height="29.1328" style="stroke:#181818;stroke-width:1.0;" width="10" x="386" y="358.4922"/><line style="stroke:#181818;stroke-width:0.5;stroke-dasharray:5.0,5.0;" x1="43" x2="43" y1="81.2969" y2="405.625"/><line style="stroke:#181818;stroke-width:0.5;stroke-dasharray:5.0,5.0;" x1="231" x2="231" y1="81.2969" y2="405.625"/><line style="stroke:#181818;stroke-width:0.5;stroke-dasharray:5.0,5.0;" x1="390.5" x2="390.5" y1="81.2969" y2="405.625"/><text fill="#000000" font-family="sans-serif" font-size="14" lengthAdjust="spacing" textLength="70" x="5" y="77.9951">API Client</text><ellipse cx="43" cy="13.5" fill="#E2E2F0" rx="8" ry="8" style="stroke:#181818;stroke-width:0.5;"/><path d="M43,21.5 L43,48.5 M30,29.5 L56,29.5 M43,48.5 L30,63.5 M43,48.5 L56,63.5 " fill="none" style="stroke:#181818;stroke-width:0.5;"/><text fill="#000000" font-family="sans-serif" font-size="14" lengthAdjust="spacing" textLength="70" x="5" y="417.6201">API Client</text><ellipse cx="43" cy="429.4219" fill="#E2E2F0" rx="8" ry="8" style="stroke:#181818;stroke-width:0.5;"/><path d="M43,437.4219 L43,464.4219 M30,445.4219 L56,445.4219 M43,464.4219 L30,479.4219 M43,464.4219 L56,479.4219 " fill="none" style="stroke:#181818;stroke-width:0.5;"/><rect fill="#E2E2F0" height="30.2969" rx="2.5" ry="2.5" style="stroke:#181818;stroke-width:0.5;" width="156" x="153" y="50"/><text fill="#000000" font-family="sans-serif" font-size="14" lengthAdjust="spacing" textLength="142" x="160" y="69.9951">Jmix Authentication</text><rect fill="#E2E2F0" height="30.2969" rx="2.5" ry="2.5" style="stroke:#181818;stroke-width:0.5;" width="156" x="153" y="404.625"/><text fill="#000000" font-family="sans-serif" font-size="14" lengthAdjust="spacing" textLength="142" x="160" y="424.6201">Jmix Authentication</text><rect fill="#E2E2F0" height="30.2969" style="stroke:#181818;stroke-width:0.5;" width="97" x="344.5" y="46"/><rect fill="#E2E2F0" height="30.2969" style="stroke:#181818;stroke-width:0.5;" width="97" x="340.5" y="50"/><text fill="#000000" font-family="sans-serif" font-size="14" lengthAdjust="spacing" textLength="83" x="347.5" y="69.9951">Entities API</text><rect fill="#E2E2F0" height="30.2969" style="stroke:#181818;stroke-width:0.5;" width="97" x="344.5" y="404.625"/><rect fill="#E2E2F0" height="30.2969" style="stroke:#181818;stroke-width:0.5;" width="97" x="340.5" y="408.625"/><text fill="#000000" font-family="sans-serif" font-size="14" lengthAdjust="spacing" textLength="83" x="347.5" y="428.6201">Entities API</text><rect fill="#FFFFFF" height="29.1328" style="stroke:#181818;stroke-width:1.0;" width="10" x="226" y="170.6953"/><rect fill="#FFFFFF" height="71.2656" style="stroke:#181818;stroke-width:1.0;" width="10" x="226" y="287.2266"/><rect fill="#FFFFFF" height="29.1328" style="stroke:#181818;stroke-width:1.0;" width="10" x="386" y="358.4922"/><rect fill="#EEEEEE" height="3" style="stroke:#EEEEEE;stroke-width:1.0;" width="446.5" x="0" y="111.8633"/><line style="stroke:#000000;stroke-width:1.0;" x1="0" x2="446.5" y1="111.8633" y2="111.8633"/><line style="stroke:#000000;stroke-width:1.0;" x1="0" x2="446.5" y1="114.8633" y2="114.8633"/><rect fill="#EEEEEE" height="23.1328" style="stroke:#000000;stroke-width:2.0;" width="140" x="153.25" y="101.2969"/><text fill="#000000" font-family="sans-serif" font-size="13" font-weight="bold" lengthAdjust="spacing" textLength="121" x="159.25" y="117.3638">Token Retrieval</text><polygon fill="#181818" points="214,166.6953,224,170.6953,214,174.6953,218,170.6953" style="stroke:#181818;stroke-width:1.0;"/><line style="stroke:#181818;stroke-width:1.0;" x1="43" x2="220" y1="170.6953" y2="170.6953"/><text fill="#000000" font-family="sans-serif" font-size="13" lengthAdjust="spacing" textLength="150" x="50" y="150.4966">Authentication Request</text><text fill="#000000" font-family="sans-serif" font-size="13" lengthAdjust="spacing" textLength="160" x="54" y="165.6294">+ Username &amp; Password</text><polygon fill="#181818" points="54,195.8281,44,199.8281,54,203.8281,50,199.8281" style="stroke:#181818;stroke-width:1.0;"/><line style="stroke:#181818;stroke-width:1.0;stroke-dasharray:2.0,2.0;" x1="48" x2="230" y1="199.8281" y2="199.8281"/><text fill="#000000" font-family="sans-serif" font-size="13" lengthAdjust="spacing" textLength="88" x="60" y="194.7622">Access Token</text><rect fill="#EEEEEE" height="3" style="stroke:#EEEEEE;stroke-width:1.0;" width="446.5" x="0" y="228.3945"/><line style="stroke:#000000;stroke-width:1.0;" x1="0" x2="446.5" y1="228.3945" y2="228.3945"/><line style="stroke:#000000;stroke-width:1.0;" x1="0" x2="446.5" y1="231.3945" y2="231.3945"/><rect fill="#EEEEEE" height="23.1328" style="stroke:#000000;stroke-width:2.0;" width="143" x="151.75" y="217.8281"/><text fill="#000000" font-family="sans-serif" font-size="13" font-weight="bold" lengthAdjust="spacing" textLength="124" x="157.75" y="233.895">API Interactions</text><polygon fill="#181818" points="214,283.2266,224,287.2266,214,291.2266,218,287.2266" style="stroke:#181818;stroke-width:1.0;"/><line style="stroke:#181818;stroke-width:1.0;" x1="43" x2="220" y1="287.2266" y2="287.2266"/><text fill="#000000" font-family="sans-serif" font-size="13" lengthAdjust="spacing" textLength="131" x="50" y="267.0278">Get Entities Request</text><text fill="#000000" font-family="sans-serif" font-size="13" lengthAdjust="spacing" textLength="102" x="54" y="282.1606">+ Access Token</text><line style="stroke:#181818;stroke-width:1.0;" x1="236" x2="278" y1="316.3594" y2="316.3594"/><line style="stroke:#181818;stroke-width:1.0;" x1="278" x2="278" y1="316.3594" y2="329.3594"/><line style="stroke:#181818;stroke-width:1.0;" x1="237" x2="278" y1="329.3594" y2="329.3594"/><polygon fill="#181818" points="247,325.3594,237,329.3594,247,333.3594,243,329.3594" style="stroke:#181818;stroke-width:1.0;"/><text fill="#000000" font-family="sans-serif" font-size="13" lengthAdjust="spacing" textLength="115" x="243" y="311.2935">Token Verification</text><polygon fill="#181818" points="374,354.4922,384,358.4922,374,362.4922,378,358.4922" style="stroke:#181818;stroke-width:1.0;"/><line style="stroke:#181818;stroke-width:1.0;" x1="231" x2="380" y1="358.4922" y2="358.4922"/><text fill="#000000" font-family="sans-serif" font-size="13" lengthAdjust="spacing" textLength="131" x="238" y="353.4263">Get Entities Request</text><polygon fill="#181818" points="54,383.625,44,387.625,54,391.625,50,387.625" style="stroke:#181818;stroke-width:1.0;"/><line style="stroke:#181818;stroke-width:1.0;stroke-dasharray:2.0,2.0;" x1="48" x2="390" y1="387.625" y2="387.625"/><text fill="#000000" font-family="sans-serif" font-size="13" lengthAdjust="spacing" textLength="90" x="60" y="382.5591">List of Entities</text><!--SRC=[ZPB1JiCm44Jl_egH3rnGVo1Ia2A4K54F5G9EN5RkLgn8xM9l2f-FGwCsHYdXPk_OCs_N9gSXmZRh9MvROQ_Mx2cgEDcJLzY7dNoXwVGjI-989NXhN6XRTlqwmTvbGOKJieSrfgxn5DxPuv4r2X-eHLqRCqx0ucRQkFfLo1uV7ITzzRZ6S-BeQSUumffI-WnnOoX374Zv0cTaxQ97unodTCJw0UnPbbuvqj149lmdu3qhJXsFyOgG6Qx9wiLGLCD4NpZATgZ-uL4yo3InsV0Cuko1irn-W7ABHKyq6cs5bIH5s9wOYgZYyZS0]--></g></svg>