<svg width="16" height="16" viewBox="0 0 16 16" fill="none" xmlns="http://www.w3.org/2000/svg">
<path d="M5.94485 1.84551L3.45081 4.33542L4.36412 5.24722L6.83475 2.75731C7.135 2.47282 7.53316 2.31421 7.94712 2.31421C8.36107 2.31421 8.75923 2.47282 9.05948 2.75731L9.80887 3.50545L10.7222 2.59365L9.99621 1.79875C9.44796 1.27798 8.71773 0.99146 7.96102 1.00019C7.20431 1.00893 6.4809 1.31223 5.94485 1.84551V1.84551Z" fill="#FC1264"/>
<path d="M8.91901 11.6298L11.6355 8.9178L11.8931 8.66063C12.069 8.48332 12.1677 8.24386 12.1677 7.99431C12.1677 7.74476 12.069 7.5053 11.8931 7.328L11.6355 7.07082L8.94243 4.38219L8.68483 4.12502C8.50723 3.94941 8.26738 3.85089 8.01741 3.85089C7.76745 3.85089 7.52759 3.94941 7.34999 4.12502L7.09239 4.38219L4.37587 7.0942L4.12998 7.33969C4.04112 7.42771 3.97059 7.53242 3.92246 7.64778C3.87433 7.76314 3.84955 7.88688 3.84955 8.01185C3.84955 8.13682 3.87433 8.26055 3.92246 8.37591C3.97059 8.49128 4.04112 8.59599 4.12998 8.68401L4.37587 8.94118L7.08068 11.6298L7.32657 11.8753C7.41474 11.964 7.51962 12.0344 7.63518 12.0825C7.75073 12.1305 7.87467 12.1553 7.99985 12.1553C8.12503 12.1553 8.24896 12.1305 8.36452 12.0825C8.48007 12.0344 8.58496 11.964 8.67312 11.8753L8.91901 11.6298ZM5.30089 8.01769L8.0057 5.29399L10.7222 8.01769L8.0057 10.7063L5.30089 8.01769Z" fill="#17124B"/>
<path d="M9.17661 13.2664C8.87831 13.5501 8.4821 13.7084 8.0701 13.7084C7.65809 13.7084 7.26188 13.5501 6.96358 13.2664V13.2664L6.19078 12.5065L5.27747 13.4183L6.03856 14.1782C6.58074 14.7051 7.30755 15 8.06424 15C8.82094 15 9.54774 14.7051 10.0899 14.1782L12.5957 11.6766L11.6824 10.7648L9.17661 13.2664Z" fill="#25CDE3"/>
<path d="M12.5723 9.84131L12.8767 10.1452L12.5723 9.84131Z" fill="#25CDE3"/>
<path d="M2.52582 5.24725L2.98247 5.71484L2.52582 5.24725Z" fill="#FC1264"/>
<path d="M2.73654 9.18665C2.45235 8.88885 2.29382 8.49329 2.29382 8.08197C2.29382 7.67065 2.45235 7.2751 2.73654 6.97729L3.49764 6.21746L2.57261 5.30566L1.82323 6.05381C1.29537 6.59508 1 7.32069 1 8.07613C1 8.83157 1.29537 9.55717 1.82323 10.0984L4.31727 12.5884L5.23059 11.6766L2.73654 9.18665Z" fill="#FDB42B"/>
<path d="M14.1881 5.96025L11.6941 3.47034L10.7808 4.38213L13.2748 6.84867C13.559 7.14647 13.7175 7.54202 13.7175 7.95334C13.7175 8.36467 13.559 8.76022 13.2748 9.05802L12.5254 9.81785L13.4387 10.7297L14.1881 9.98151C14.709 9.44134 15 8.72069 15 7.97088C15 7.22107 14.709 6.50042 14.1881 5.96025V5.96025Z" fill="#22D685"/>
</svg>
