<?xml version="1.0" encoding="us-ascii" standalone="no"?><svg xmlns="http://www.w3.org/2000/svg" xmlns:xlink="http://www.w3.org/1999/xlink" contentStyleType="text/css" height="278px" preserveAspectRatio="none" style="width:704px;height:278px;background:#FFFFFF;" version="1.1" viewBox="0 0 704 278" width="704px" zoomAndPan="magnify"><defs/><g><!--class InstanceContainer--><g id="elem_InstanceContainer"><rect codeLine="1" fill="#F1F1F1" height="48" id="InstanceContainer" rx="2.5" ry="2.5" style="stroke:#181818;stroke-width:0.5;" width="162" x="216.5" y="7"/><ellipse cx="231.5" cy="23" fill="#B4A7E5" rx="11" ry="11" style="stroke:#181818;stroke-width:1.0;"/><path d="M232.4531,19.7813 L234.1719,19.7813 C234.5625,19.7813 234.75,19.75 234.875,19.6719 C235.1406,19.5156 235.2813,19.2344 235.2813,18.9375 C235.2813,18.6719 235.1719,18.4063 234.9375,18.2344 C234.7656,18.125 234.625,18.0938 234.1719,18.0938 L229.0313,18.0938 C228.5938,18.0938 228.4688,18.1094 228.3125,18.2031 C228.0625,18.3594 227.9063,18.6563 227.9063,18.9375 C227.9063,19.2188 228.0469,19.4688 228.2656,19.6406 C228.4219,19.75 228.6094,19.7813 229.0313,19.7813 L230.75,19.7813 L230.75,26.2969 L229.0313,26.2969 C228.5938,26.2969 228.4688,26.3125 228.3125,26.4219 C228.0625,26.5781 227.9063,26.8594 227.9063,27.1563 C227.9063,27.4063 228.0469,27.6719 228.2656,27.8281 C228.4219,27.9531 228.625,28 229.0313,28 L234.1719,28 C234.9219,28 235.2813,27.7188 235.2813,27.1563 C235.2813,26.875 235.1719,26.625 234.9375,26.4531 C234.7656,26.3281 234.625,26.2969 234.1719,26.2969 L232.4531,26.2969 L232.4531,19.7813 Z " fill="#000000"/><text fill="#000000" font-family="sans-serif" font-size="14" font-style="italic" lengthAdjust="spacing" textLength="130" x="245.5" y="27.8467">InstanceContainer</text><line style="stroke:#181818;stroke-width:0.5;" x1="217.5" x2="377.5" y1="39" y2="39"/><line style="stroke:#181818;stroke-width:0.5;" x1="217.5" x2="377.5" y1="47" y2="47"/></g><!--class CollectionContainer--><g id="elem_CollectionContainer"><rect codeLine="4" fill="#F1F1F1" height="48" id="CollectionContainer" rx="2.5" ry="2.5" style="stroke:#181818;stroke-width:0.5;" width="173" x="211" y="115"/><ellipse cx="226" cy="131" fill="#B4A7E5" rx="11" ry="11" style="stroke:#181818;stroke-width:1.0;"/><path d="M226.9531,127.7813 L228.6719,127.7813 C229.0625,127.7813 229.25,127.75 229.375,127.6719 C229.6406,127.5156 229.7813,127.2344 229.7813,126.9375 C229.7813,126.6719 229.6719,126.4063 229.4375,126.2344 C229.2656,126.125 229.125,126.0938 228.6719,126.0938 L223.5313,126.0938 C223.0938,126.0938 222.9688,126.1094 222.8125,126.2031 C222.5625,126.3594 222.4063,126.6563 222.4063,126.9375 C222.4063,127.2188 222.5469,127.4688 222.7656,127.6406 C222.9219,127.75 223.1094,127.7813 223.5313,127.7813 L225.25,127.7813 L225.25,134.2969 L223.5313,134.2969 C223.0938,134.2969 222.9688,134.3125 222.8125,134.4219 C222.5625,134.5781 222.4063,134.8594 222.4063,135.1563 C222.4063,135.4063 222.5469,135.6719 222.7656,135.8281 C222.9219,135.9531 223.125,136 223.5313,136 L228.6719,136 C229.4219,136 229.7813,135.7188 229.7813,135.1563 C229.7813,134.875 229.6719,134.625 229.4375,134.4531 C229.2656,134.3281 229.125,134.2969 228.6719,134.2969 L226.9531,134.2969 L226.9531,127.7813 Z " fill="#000000"/><text fill="#000000" font-family="sans-serif" font-size="14" font-style="italic" lengthAdjust="spacing" textLength="141" x="240" y="135.8467">CollectionContainer</text><line style="stroke:#181818;stroke-width:0.5;" x1="212" x2="383" y1="147" y2="147"/><line style="stroke:#181818;stroke-width:0.5;" x1="212" x2="383" y1="155" y2="155"/></g><!--class CollectionPropertyContainer--><g id="elem_CollectionPropertyContainer"><rect codeLine="7" fill="#F1F1F1" height="48" id="CollectionPropertyContainer" rx="2.5" ry="2.5" style="stroke:#181818;stroke-width:0.5;" width="233" x="464" y="223"/><ellipse cx="479" cy="239" fill="#B4A7E5" rx="11" ry="11" style="stroke:#181818;stroke-width:1.0;"/><path d="M479.9531,235.7813 L481.6719,235.7813 C482.0625,235.7813 482.25,235.75 482.375,235.6719 C482.6406,235.5156 482.7813,235.2344 482.7813,234.9375 C482.7813,234.6719 482.6719,234.4063 482.4375,234.2344 C482.2656,234.125 482.125,234.0938 481.6719,234.0938 L476.5313,234.0938 C476.0938,234.0938 475.9688,234.1094 475.8125,234.2031 C475.5625,234.3594 475.4063,234.6563 475.4063,234.9375 C475.4063,235.2188 475.5469,235.4688 475.7656,235.6406 C475.9219,235.75 476.1094,235.7813 476.5313,235.7813 L478.25,235.7813 L478.25,242.2969 L476.5313,242.2969 C476.0938,242.2969 475.9688,242.3125 475.8125,242.4219 C475.5625,242.5781 475.4063,242.8594 475.4063,243.1563 C475.4063,243.4063 475.5469,243.6719 475.7656,243.8281 C475.9219,243.9531 476.125,244 476.5313,244 L481.6719,244 C482.4219,244 482.7813,243.7188 482.7813,243.1563 C482.7813,242.875 482.6719,242.625 482.4375,242.4531 C482.2656,242.3281 482.125,242.2969 481.6719,242.2969 L479.9531,242.2969 L479.9531,235.7813 Z " fill="#000000"/><text fill="#000000" font-family="sans-serif" font-size="14" font-style="italic" lengthAdjust="spacing" textLength="201" x="493" y="243.8467">CollectionPropertyContainer</text><line style="stroke:#181818;stroke-width:0.5;" x1="465" x2="696" y1="255" y2="255"/><line style="stroke:#181818;stroke-width:0.5;" x1="465" x2="696" y1="263" y2="263"/></g><!--class InstancePropertyContainer--><g id="elem_InstancePropertyContainer"><rect codeLine="10" fill="#F1F1F1" height="48" id="InstancePropertyContainer" rx="2.5" ry="2.5" style="stroke:#181818;stroke-width:0.5;" width="222" x="419.5" y="115"/><ellipse cx="434.5" cy="131" fill="#B4A7E5" rx="11" ry="11" style="stroke:#181818;stroke-width:1.0;"/><path d="M435.4531,127.7813 L437.1719,127.7813 C437.5625,127.7813 437.75,127.75 437.875,127.6719 C438.1406,127.5156 438.2813,127.2344 438.2813,126.9375 C438.2813,126.6719 438.1719,126.4063 437.9375,126.2344 C437.7656,126.125 437.625,126.0938 437.1719,126.0938 L432.0313,126.0938 C431.5938,126.0938 431.4688,126.1094 431.3125,126.2031 C431.0625,126.3594 430.9063,126.6563 430.9063,126.9375 C430.9063,127.2188 431.0469,127.4688 431.2656,127.6406 C431.4219,127.75 431.6094,127.7813 432.0313,127.7813 L433.75,127.7813 L433.75,134.2969 L432.0313,134.2969 C431.5938,134.2969 431.4688,134.3125 431.3125,134.4219 C431.0625,134.5781 430.9063,134.8594 430.9063,135.1563 C430.9063,135.4063 431.0469,135.6719 431.2656,135.8281 C431.4219,135.9531 431.625,136 432.0313,136 L437.1719,136 C437.9219,136 438.2813,135.7188 438.2813,135.1563 C438.2813,134.875 438.1719,134.625 437.9375,134.4531 C437.7656,134.3281 437.625,134.2969 437.1719,134.2969 L435.4531,134.2969 L435.4531,127.7813 Z " fill="#000000"/><text fill="#000000" font-family="sans-serif" font-size="14" font-style="italic" lengthAdjust="spacing" textLength="190" x="448.5" y="135.8467">InstancePropertyContainer</text><line style="stroke:#181818;stroke-width:0.5;" x1="420.5" x2="640.5" y1="147" y2="147"/><line style="stroke:#181818;stroke-width:0.5;" x1="420.5" x2="640.5" y1="155" y2="155"/></g><!--class Nested--><g id="elem_Nested"><rect codeLine="13" fill="#F1F1F1" height="48" id="Nested" rx="2.5" ry="2.5" style="stroke:#181818;stroke-width:0.5;" width="81" x="572" y="7"/><ellipse cx="587" cy="23" fill="#B4A7E5" rx="11" ry="11" style="stroke:#181818;stroke-width:1.0;"/><path d="M587.9531,19.7813 L589.6719,19.7813 C590.0625,19.7813 590.25,19.75 590.375,19.6719 C590.6406,19.5156 590.7813,19.2344 590.7813,18.9375 C590.7813,18.6719 590.6719,18.4063 590.4375,18.2344 C590.2656,18.125 590.125,18.0938 589.6719,18.0938 L584.5313,18.0938 C584.0938,18.0938 583.9688,18.1094 583.8125,18.2031 C583.5625,18.3594 583.4063,18.6563 583.4063,18.9375 C583.4063,19.2188 583.5469,19.4688 583.7656,19.6406 C583.9219,19.75 584.1094,19.7813 584.5313,19.7813 L586.25,19.7813 L586.25,26.2969 L584.5313,26.2969 C584.0938,26.2969 583.9688,26.3125 583.8125,26.4219 C583.5625,26.5781 583.4063,26.8594 583.4063,27.1563 C583.4063,27.4063 583.5469,27.6719 583.7656,27.8281 C583.9219,27.9531 584.125,28 584.5313,28 L589.6719,28 C590.4219,28 590.7813,27.7188 590.7813,27.1563 C590.7813,26.875 590.6719,26.625 590.4375,26.4531 C590.2656,26.3281 590.125,26.2969 589.6719,26.2969 L587.9531,26.2969 L587.9531,19.7813 Z " fill="#000000"/><text fill="#000000" font-family="sans-serif" font-size="14" font-style="italic" lengthAdjust="spacing" textLength="49" x="601" y="27.8467">Nested</text><line style="stroke:#181818;stroke-width:0.5;" x1="573" x2="652" y1="39" y2="39"/><line style="stroke:#181818;stroke-width:0.5;" x1="573" x2="652" y1="47" y2="47"/></g><!--class KeyValueContainer--><g id="elem_KeyValueContainer"><rect codeLine="16" fill="#F1F1F1" height="48" id="KeyValueContainer" rx="2.5" ry="2.5" style="stroke:#181818;stroke-width:0.5;" width="169" x="7" y="115"/><ellipse cx="22" cy="131" fill="#B4A7E5" rx="11" ry="11" style="stroke:#181818;stroke-width:1.0;"/><path d="M22.9531,127.7813 L24.6719,127.7813 C25.0625,127.7813 25.25,127.75 25.375,127.6719 C25.6406,127.5156 25.7813,127.2344 25.7813,126.9375 C25.7813,126.6719 25.6719,126.4063 25.4375,126.2344 C25.2656,126.125 25.125,126.0938 24.6719,126.0938 L19.5313,126.0938 C19.0938,126.0938 18.9688,126.1094 18.8125,126.2031 C18.5625,126.3594 18.4063,126.6563 18.4063,126.9375 C18.4063,127.2188 18.5469,127.4688 18.7656,127.6406 C18.9219,127.75 19.1094,127.7813 19.5313,127.7813 L21.25,127.7813 L21.25,134.2969 L19.5313,134.2969 C19.0938,134.2969 18.9688,134.3125 18.8125,134.4219 C18.5625,134.5781 18.4063,134.8594 18.4063,135.1563 C18.4063,135.4063 18.5469,135.6719 18.7656,135.8281 C18.9219,135.9531 19.125,136 19.5313,136 L24.6719,136 C25.4219,136 25.7813,135.7188 25.7813,135.1563 C25.7813,134.875 25.6719,134.625 25.4375,134.4531 C25.2656,134.3281 25.125,134.2969 24.6719,134.2969 L22.9531,134.2969 L22.9531,127.7813 Z " fill="#000000"/><text fill="#000000" font-family="sans-serif" font-size="14" font-style="italic" lengthAdjust="spacing" textLength="137" x="36" y="135.8467">KeyValueContainer</text><line style="stroke:#181818;stroke-width:0.5;" x1="8" x2="175" y1="147" y2="147"/><line style="stroke:#181818;stroke-width:0.5;" x1="8" x2="175" y1="155" y2="155"/></g><!--class KeyValueCollectionContainer--><g id="elem_KeyValueCollectionContainer"><rect codeLine="19" fill="#F1F1F1" height="48" id="KeyValueCollectionContainer" rx="2.5" ry="2.5" style="stroke:#181818;stroke-width:0.5;" width="240" x="74.5" y="223"/><ellipse cx="89.5" cy="239" fill="#B4A7E5" rx="11" ry="11" style="stroke:#181818;stroke-width:1.0;"/><path d="M90.4531,235.7813 L92.1719,235.7813 C92.5625,235.7813 92.75,235.75 92.875,235.6719 C93.1406,235.5156 93.2813,235.2344 93.2813,234.9375 C93.2813,234.6719 93.1719,234.4063 92.9375,234.2344 C92.7656,234.125 92.625,234.0938 92.1719,234.0938 L87.0313,234.0938 C86.5938,234.0938 86.4688,234.1094 86.3125,234.2031 C86.0625,234.3594 85.9063,234.6563 85.9063,234.9375 C85.9063,235.2188 86.0469,235.4688 86.2656,235.6406 C86.4219,235.75 86.6094,235.7813 87.0313,235.7813 L88.75,235.7813 L88.75,242.2969 L87.0313,242.2969 C86.5938,242.2969 86.4688,242.3125 86.3125,242.4219 C86.0625,242.5781 85.9063,242.8594 85.9063,243.1563 C85.9063,243.4063 86.0469,243.6719 86.2656,243.8281 C86.4219,243.9531 86.625,244 87.0313,244 L92.1719,244 C92.9219,244 93.2813,243.7188 93.2813,243.1563 C93.2813,242.875 93.1719,242.625 92.9375,242.4531 C92.7656,242.3281 92.625,242.2969 92.1719,242.2969 L90.4531,242.2969 L90.4531,235.7813 Z " fill="#000000"/><text fill="#000000" font-family="sans-serif" font-size="14" font-style="italic" lengthAdjust="spacing" textLength="208" x="103.5" y="243.8467">KeyValueCollectionContainer</text><line style="stroke:#181818;stroke-width:0.5;" x1="75.5" x2="313.5" y1="255" y2="255"/><line style="stroke:#181818;stroke-width:0.5;" x1="75.5" x2="313.5" y1="263" y2="263"/></g><!--reverse link InstanceContainer to KeyValueContainer--><g id="link_InstanceContainer_KeyValueContainer"><path codeLine="22" d="M234.92,64.201 C203.161,80.543 165.308,100.021 136.467,114.862 " fill="none" id="InstanceContainer-backto-KeyValueContainer" style="stroke:#181818;stroke-width:1.0;"/><polygon fill="none" points="231.814,57.927,252.801,55,238.22,70.376,231.814,57.927" style="stroke:#181818;stroke-width:1.0;"/></g><!--reverse link InstanceContainer to CollectionContainer--><g id="link_InstanceContainer_CollectionContainer"><path codeLine="23" d="M297.5,75.024 C297.5,88.579 297.5,103.038 297.5,114.678 " fill="none" id="InstanceContainer-backto-CollectionContainer" style="stroke:#181818;stroke-width:1.0;"/><polygon fill="none" points="290.5,75,297.5,55,304.5,75,290.5,75" style="stroke:#181818;stroke-width:1.0;"/></g><!--reverse link InstanceContainer to InstancePropertyContainer--><g id="link_InstanceContainer_InstancePropertyContainer"><path codeLine="24" d="M366.275,63.288 C402.6,79.814 446.408,99.744 479.639,114.862 " fill="none" id="InstanceContainer-backto-InstancePropertyContainer" style="stroke:#181818;stroke-width:1.0;"/><polygon fill="none" points="363.363,69.654,348.058,55,369.161,56.911,363.363,69.654" style="stroke:#181818;stroke-width:1.0;"/></g><!--reverse link KeyValueContainer to KeyValueCollectionContainer--><g id="link_KeyValueContainer_KeyValueCollectionContainer"><path codeLine="25" d="M128.185,177.753 C142.751,192.744 159.046,209.5138 171.838,222.6784 " fill="none" id="KeyValueContainer-backto-KeyValueCollectionContainer" style="stroke:#181818;stroke-width:1.0;"/><polygon fill="none" points="122.767,182.2223,113.849,163,132.807,172.4659,122.767,182.2223" style="stroke:#181818;stroke-width:1.0;"/></g><!--reverse link CollectionContainer to KeyValueCollectionContainer--><g id="link_CollectionContainer_KeyValueCollectionContainer"><path codeLine="26" d="M260.815,177.753 C246.249,192.744 229.954,209.5138 217.162,222.6784 " fill="none" id="CollectionContainer-backto-KeyValueCollectionContainer" style="stroke:#181818;stroke-width:1.0;"/><polygon fill="none" points="256.193,172.4659,275.151,163,266.233,182.2223,256.193,172.4659" style="stroke:#181818;stroke-width:1.0;"/></g><!--reverse link CollectionContainer to CollectionPropertyContainer--><g id="link_CollectionContainer_CollectionPropertyContainer"><path codeLine="27" d="M377.712,170.044 C422.46,186.8049 477.344,207.3622 518.725,222.8617 " fill="none" id="CollectionContainer-backto-CollectionPropertyContainer" style="stroke:#181818;stroke-width:1.0;"/><polygon fill="none" points="375.181,176.571,358.907,163,380.091,163.46,375.181,176.571" style="stroke:#181818;stroke-width:1.0;"/></g><!--reverse link Nested to CollectionPropertyContainer--><g id="link_Nested_CollectionPropertyContainer"><path codeLine="28" d="M642.46,72.282 C658.034,98.337 671.541,132.885 659.5,163 C649.899,187.0132 629.677,208.0415 612.097,222.9241 " fill="none" id="Nested-backto-CollectionPropertyContainer" style="stroke:#181818;stroke-width:1.0;"/><polygon fill="none" points="636.488,75.94,631.364,55.38,648.191,68.258,636.488,75.94" style="stroke:#181818;stroke-width:1.0;"/></g><!--reverse link Nested to InstancePropertyContainer--><g id="link_Nested_InstancePropertyContainer"><path codeLine="29" d="M582.192,71.178 C570.881,85.8 558.404,101.929 548.541,114.678 " fill="none" id="Nested-backto-InstancePropertyContainer" style="stroke:#181818;stroke-width:1.0;"/><polygon fill="none" points="576.933,66.536,594.707,55,588.006,75.103,576.933,66.536" style="stroke:#181818;stroke-width:1.0;"/></g><!--SRC=[oymhIIrAIqnELV3CAov9p4jETSxFAqdCp4ijKgZcgkNYoeGhSCxFoKbDBidCpoD2IK1HVa5gKKabJgKmwmWgz4ijBabDGHVrJgqCIymfnUrQX08ShiRqRvokBgQvEDHXCHQ7IfmUvSBq0weBC6t0vXbozU29Aovec9EW3ASl0G00]--></g></svg>