<?xml version="1.0" encoding="us-ascii" standalone="no"?><svg xmlns="http://www.w3.org/2000/svg" xmlns:xlink="http://www.w3.org/1999/xlink" contentStyleType="text/css" height="134px" preserveAspectRatio="none" style="width:101px;height:134px;background:#FFFFFF;" version="1.1" viewBox="0 0 101 134" width="101px" zoomAndPan="magnify"><defs/><g><!--class Step--><g id="elem_Step"><rect codeLine="1" fill="#F1F1F1" height="113.1875" id="Step" rx="2.5" ry="2.5" style="stroke:#181818;stroke-width:0.5;" width="80" x="7" y="7"/><ellipse cx="27.85" cy="23" fill="#ADD1B2" rx="11" ry="11" style="stroke:#181818;stroke-width:1.0;"/><path d="M26.6469,23.875 L28.1,23.875 L28.1,23.9844 C28.1,24.3906 28.1313,24.5469 28.2094,24.7031 C28.3656,24.9531 28.6469,25.1094 28.9438,25.1094 C29.1938,25.1094 29.4594,24.9688 29.6156,24.75 C29.7406,24.5938 29.7719,24.4375 29.7719,23.9844 L29.7719,22.0625 C29.7719,21.9063 29.7719,21.8594 29.7563,21.7031 C29.6938,21.2344 29.3813,20.9219 28.9281,20.9219 C28.6781,20.9219 28.4125,21.0625 28.2406,21.2813 C28.1313,21.4531 28.1,21.6094 28.1,22.0625 L28.1,22.1875 L26.6469,22.1875 L26.6469,19.7813 L30.6313,19.7813 L30.6313,20.6406 C30.6313,21.0469 30.6625,21.2188 30.7406,21.375 C30.9125,21.625 31.1938,21.7813 31.475,21.7813 C31.7406,21.7813 32.0063,21.6406 32.1781,21.4219 C32.2875,21.25 32.3188,21.1094 32.3188,20.6406 L32.3188,18.0938 L24.6938,18.0938 C24.2563,18.0938 24.1313,18.1094 23.975,18.2031 C23.725,18.3594 23.5688,18.6563 23.5688,18.9375 C23.5688,19.2188 23.7094,19.4688 23.9281,19.6406 C24.0844,19.75 24.2719,19.7813 24.6938,19.7813 L24.9438,19.7813 L24.9438,26.2969 L24.6938,26.2969 C24.2875,26.2969 24.1313,26.3125 23.975,26.4219 C23.725,26.5938 23.5688,26.8594 23.5688,27.1563 C23.5688,27.4219 23.7094,27.6719 23.9281,27.8281 C24.0688,27.9531 24.3031,28 24.6938,28 L32.6938,28 L32.6938,25.4219 C32.6938,24.9844 32.6625,24.8438 32.5844,24.6875 C32.4125,24.4375 32.1313,24.2813 31.85,24.2813 C31.5844,24.2813 31.3188,24.3906 31.1469,24.6406 C31.0375,24.7969 31.0063,24.9375 31.0063,25.4219 L31.0063,26.2969 L26.6469,26.2969 L26.6469,23.875 Z " fill="#000000"/><text fill="#000000" font-family="sans-serif" font-size="14" lengthAdjust="spacing" textLength="35" x="43.15" y="27.8467">Step</text><line style="stroke:#181818;stroke-width:0.5;" x1="8" x2="86" y1="39" y2="39"/><text fill="#000000" font-family="sans-serif" font-size="14" lengthAdjust="spacing" textLength="13" x="13" y="55.9951">id</text><text fill="#000000" font-family="sans-serif" font-size="14" lengthAdjust="spacing" textLength="40" x="13" y="72.292">name</text><text fill="#000000" font-family="sans-serif" font-size="14" lengthAdjust="spacing" textLength="60" x="13" y="88.5889">duration</text><text fill="#000000" font-family="sans-serif" font-size="14" lengthAdjust="spacing" textLength="68" x="13" y="104.8857">sortValue</text><line style="stroke:#181818;stroke-width:0.5;" x1="8" x2="86" y1="112.1875" y2="112.1875"/></g><!--SRC=[IyqhoIofL0WkIIrGgEPI08BC532LbvYR2cQab1ObbcJcvu4vnVb59M69EQMfNBK0]--></g></svg>