<?xml version="1.0" encoding="us-ascii" standalone="no"?><svg xmlns="http://www.w3.org/2000/svg" xmlns:xlink="http://www.w3.org/1999/xlink" contentStyleType="text/css" height="278px" preserveAspectRatio="none" style="width:348px;height:278px;background:#FFFFFF;" version="1.1" viewBox="0 0 348 278" width="348px" zoomAndPan="magnify"><defs/><g><!--class Screen--><g id="elem_Screen"><rect codeLine="1" fill="#F1F1F1" height="48" id="Screen" rx="2.5" ry="2.5" style="stroke:#181818;stroke-width:0.5;" width="82" x="141" y="7"/><ellipse cx="156" cy="23" fill="#A9DCDF" rx="11" ry="11" style="stroke:#181818;stroke-width:1.0;"/><path d="M158.0781,24.8125 L158.4688,25.7969 L158.0781,25.7969 C157.625,25.7969 157.5156,25.8125 157.3594,25.9219 C157.1094,26.0781 156.9531,26.3594 156.9531,26.6563 C156.9531,26.9219 157.0938,27.1719 157.3125,27.3281 C157.4531,27.4531 157.6563,27.5 158.0781,27.5 L160.4375,27.5 C160.7969,27.5 161.0156,27.4688 161.1563,27.375 C161.4063,27.2344 161.5625,26.9375 161.5625,26.6563 C161.5625,26.375 161.4219,26.125 161.2031,25.9688 C161.0313,25.8281 160.875,25.7969 160.4063,25.7969 L157.0156,17.5938 L153.3438,17.5938 C152.8906,17.5938 152.7656,17.6094 152.6094,17.7031 C152.3594,17.875 152.2031,18.1563 152.2031,18.4375 C152.2031,18.7188 152.3438,18.9688 152.5625,19.1406 C152.7344,19.25 152.9063,19.2813 153.3438,19.2813 L154.4219,19.2813 L151.7813,25.7969 C151.3594,25.7969 151.2031,25.8125 151.0469,25.9219 C150.7969,26.0781 150.6406,26.3594 150.6406,26.6563 C150.6406,27.2188 151.0156,27.5 151.7656,27.5 L154.0313,27.5 C154.3906,27.5 154.6094,27.4688 154.7344,27.375 C155,27.2344 155.1406,26.9375 155.1406,26.6563 C155.1406,26.375 155.0156,26.125 154.7969,25.9531 C154.625,25.8281 154.4844,25.7969 154.0313,25.7969 L153.6406,25.7969 L154.0313,24.8125 L158.0781,24.8125 Z M157.375,23.1094 L154.7031,23.1094 L156.0469,19.8438 L157.375,23.1094 Z " fill="#000000"/><text fill="#000000" font-family="sans-serif" font-size="14" font-style="italic" lengthAdjust="spacing" textLength="50" x="170" y="27.8467">Screen</text><line style="stroke:#181818;stroke-width:0.5;" x1="142" x2="222" y1="39" y2="39"/><line style="stroke:#181818;stroke-width:0.5;" x1="142" x2="222" y1="47" y2="47"/></g><!--class StandardLookup--><g id="elem_StandardLookup"><rect codeLine="4" fill="#F1F1F1" height="48" id="StandardLookup" rx="2.5" ry="2.5" style="stroke:#181818;stroke-width:0.5;" width="149" x="18.5" y="115"/><ellipse cx="33.5" cy="131" fill="#A9DCDF" rx="11" ry="11" style="stroke:#181818;stroke-width:1.0;"/><path d="M35.5781,132.8125 L35.9688,133.7969 L35.5781,133.7969 C35.125,133.7969 35.0156,133.8125 34.8594,133.9219 C34.6094,134.0781 34.4531,134.3594 34.4531,134.6563 C34.4531,134.9219 34.5938,135.1719 34.8125,135.3281 C34.9531,135.4531 35.1563,135.5 35.5781,135.5 L37.9375,135.5 C38.2969,135.5 38.5156,135.4688 38.6563,135.375 C38.9063,135.2344 39.0625,134.9375 39.0625,134.6563 C39.0625,134.375 38.9219,134.125 38.7031,133.9688 C38.5313,133.8281 38.375,133.7969 37.9063,133.7969 L34.5156,125.5938 L30.8438,125.5938 C30.3906,125.5938 30.2656,125.6094 30.1094,125.7031 C29.8594,125.875 29.7031,126.1563 29.7031,126.4375 C29.7031,126.7188 29.8438,126.9688 30.0625,127.1406 C30.2344,127.25 30.4063,127.2813 30.8438,127.2813 L31.9219,127.2813 L29.2813,133.7969 C28.8594,133.7969 28.7031,133.8125 28.5469,133.9219 C28.2969,134.0781 28.1406,134.3594 28.1406,134.6563 C28.1406,135.2188 28.5156,135.5 29.2656,135.5 L31.5313,135.5 C31.8906,135.5 32.1094,135.4688 32.2344,135.375 C32.5,135.2344 32.6406,134.9375 32.6406,134.6563 C32.6406,134.375 32.5156,134.125 32.2969,133.9531 C32.125,133.8281 31.9844,133.7969 31.5313,133.7969 L31.1406,133.7969 L31.5313,132.8125 L35.5781,132.8125 Z M34.875,131.1094 L32.2031,131.1094 L33.5469,127.8438 L34.875,131.1094 Z " fill="#000000"/><text fill="#000000" font-family="sans-serif" font-size="14" font-style="italic" lengthAdjust="spacing" textLength="117" x="47.5" y="135.8467">StandardLookup</text><line style="stroke:#181818;stroke-width:0.5;" x1="19.5" x2="166.5" y1="147" y2="147"/><line style="stroke:#181818;stroke-width:0.5;" x1="19.5" x2="166.5" y1="155" y2="155"/></g><!--class StandardEditor--><g id="elem_StandardEditor"><rect codeLine="7" fill="#F1F1F1" height="48" id="StandardEditor" rx="2.5" ry="2.5" style="stroke:#181818;stroke-width:0.5;" width="139" x="202.5" y="115"/><ellipse cx="217.5" cy="131" fill="#A9DCDF" rx="11" ry="11" style="stroke:#181818;stroke-width:1.0;"/><path d="M219.5781,132.8125 L219.9688,133.7969 L219.5781,133.7969 C219.125,133.7969 219.0156,133.8125 218.8594,133.9219 C218.6094,134.0781 218.4531,134.3594 218.4531,134.6563 C218.4531,134.9219 218.5938,135.1719 218.8125,135.3281 C218.9531,135.4531 219.1563,135.5 219.5781,135.5 L221.9375,135.5 C222.2969,135.5 222.5156,135.4688 222.6563,135.375 C222.9063,135.2344 223.0625,134.9375 223.0625,134.6563 C223.0625,134.375 222.9219,134.125 222.7031,133.9688 C222.5313,133.8281 222.375,133.7969 221.9063,133.7969 L218.5156,125.5938 L214.8438,125.5938 C214.3906,125.5938 214.2656,125.6094 214.1094,125.7031 C213.8594,125.875 213.7031,126.1563 213.7031,126.4375 C213.7031,126.7188 213.8438,126.9688 214.0625,127.1406 C214.2344,127.25 214.4063,127.2813 214.8438,127.2813 L215.9219,127.2813 L213.2813,133.7969 C212.8594,133.7969 212.7031,133.8125 212.5469,133.9219 C212.2969,134.0781 212.1406,134.3594 212.1406,134.6563 C212.1406,135.2188 212.5156,135.5 213.2656,135.5 L215.5313,135.5 C215.8906,135.5 216.1094,135.4688 216.2344,135.375 C216.5,135.2344 216.6406,134.9375 216.6406,134.6563 C216.6406,134.375 216.5156,134.125 216.2969,133.9531 C216.125,133.8281 215.9844,133.7969 215.5313,133.7969 L215.1406,133.7969 L215.5313,132.8125 L219.5781,132.8125 Z M218.875,131.1094 L216.2031,131.1094 L217.5469,127.8438 L218.875,131.1094 Z " fill="#000000"/><text fill="#000000" font-family="sans-serif" font-size="14" font-style="italic" lengthAdjust="spacing" textLength="107" x="231.5" y="135.8467">StandardEditor</text><line style="stroke:#181818;stroke-width:0.5;" x1="203.5" x2="340.5" y1="147" y2="147"/><line style="stroke:#181818;stroke-width:0.5;" x1="203.5" x2="340.5" y1="155" y2="155"/></g><!--class MasterDetailScreen--><g id="elem_MasterDetailScreen"><rect codeLine="10" fill="#F1F1F1" height="48" id="MasterDetailScreen" rx="2.5" ry="2.5" style="stroke:#181818;stroke-width:0.5;" width="172" x="7" y="223"/><ellipse cx="22" cy="239" fill="#A9DCDF" rx="11" ry="11" style="stroke:#181818;stroke-width:1.0;"/><path d="M24.0781,240.8125 L24.4688,241.7969 L24.0781,241.7969 C23.625,241.7969 23.5156,241.8125 23.3594,241.9219 C23.1094,242.0781 22.9531,242.3594 22.9531,242.6563 C22.9531,242.9219 23.0938,243.1719 23.3125,243.3281 C23.4531,243.4531 23.6563,243.5 24.0781,243.5 L26.4375,243.5 C26.7969,243.5 27.0156,243.4688 27.1563,243.375 C27.4063,243.2344 27.5625,242.9375 27.5625,242.6563 C27.5625,242.375 27.4219,242.125 27.2031,241.9688 C27.0313,241.8281 26.875,241.7969 26.4063,241.7969 L23.0156,233.5938 L19.3438,233.5938 C18.8906,233.5938 18.7656,233.6094 18.6094,233.7031 C18.3594,233.875 18.2031,234.1563 18.2031,234.4375 C18.2031,234.7188 18.3438,234.9688 18.5625,235.1406 C18.7344,235.25 18.9063,235.2813 19.3438,235.2813 L20.4219,235.2813 L17.7813,241.7969 C17.3594,241.7969 17.2031,241.8125 17.0469,241.9219 C16.7969,242.0781 16.6406,242.3594 16.6406,242.6563 C16.6406,243.2188 17.0156,243.5 17.7656,243.5 L20.0313,243.5 C20.3906,243.5 20.6094,243.4688 20.7344,243.375 C21,243.2344 21.1406,242.9375 21.1406,242.6563 C21.1406,242.375 21.0156,242.125 20.7969,241.9531 C20.625,241.8281 20.4844,241.7969 20.0313,241.7969 L19.6406,241.7969 L20.0313,240.8125 L24.0781,240.8125 Z M23.375,239.1094 L20.7031,239.1094 L22.0469,235.8438 L23.375,239.1094 Z " fill="#000000"/><text fill="#000000" font-family="sans-serif" font-size="14" font-style="italic" lengthAdjust="spacing" textLength="140" x="36" y="243.8467">MasterDetailScreen</text><line style="stroke:#181818;stroke-width:0.5;" x1="8" x2="178" y1="255" y2="255"/><line style="stroke:#181818;stroke-width:0.5;" x1="8" x2="178" y1="263" y2="263"/></g><!--reverse link Screen to StandardLookup--><g id="link_Screen_StandardLookup"><path codeLine="13" d="M149.505,70.702 C137.123,85.448 123.402,101.791 112.581,114.678 " fill="none" id="Screen-backto-StandardLookup" style="stroke:#181818;stroke-width:1.0;"/><polygon fill="none" points="144.467,65.816,162.688,55,155.189,74.819,144.467,65.816" style="stroke:#181818;stroke-width:1.0;"/></g><!--reverse link Screen to StandardEditor--><g id="link_Screen_StandardEditor"><path codeLine="14" d="M214.86,70.702 C227.381,85.448 241.256,101.791 252.199,114.678 " fill="none" id="Screen-backto-StandardEditor" style="stroke:#181818;stroke-width:1.0;"/><polygon fill="none" points="209.137,74.777,201.529,55,219.809,65.716,209.137,74.777" style="stroke:#181818;stroke-width:1.0;"/></g><!--reverse link StandardLookup to MasterDetailScreen--><g id="link_StandardLookup_MasterDetailScreen"><path codeLine="15" d="M93,183.0236 C93,196.5792 93,211.0381 93,222.6784 " fill="none" id="StandardLookup-backto-MasterDetailScreen" style="stroke:#181818;stroke-width:1.0;"/><polygon fill="none" points="86.0001,183.0005,93,163,100.0001,183.0004,86.0001,183.0005" style="stroke:#181818;stroke-width:1.0;"/></g><!--SRC=[IqmgBYbAJ2vH24ukIatDKwZcgkNYIeGBbYJcfIGMfVZavsUN5k2GT4t9BCalGfFqJImkIIroIIr9pCn1DXhAZjFLHJCScmp4P2uqLu1KO1eF0000]--></g></svg>