<?xml version="1.0" encoding="us-ascii" standalone="no"?><svg xmlns="http://www.w3.org/2000/svg" xmlns:xlink="http://www.w3.org/1999/xlink" contentStyleType="text/css" height="310px" preserveAspectRatio="none" style="width:501px;height:310px;background:#FFFFFF;" version="1.1" viewBox="0 0 501 310" width="501px" zoomAndPan="magnify"><defs/><g><!--class FrameOwner--><g id="elem_FrameOwner"><rect codeLine="1" fill="#F1F1F1" height="48" id="FrameOwner" rx="2.5" ry="2.5" style="stroke:#181818;stroke-width:0.5;" width="124" x="170.5" y="7"/><ellipse cx="185.5" cy="23" fill="#B4A7E5" rx="11" ry="11" style="stroke:#181818;stroke-width:1.0;"/><path d="M186.4531,19.7813 L188.1719,19.7813 C188.5625,19.7813 188.75,19.75 188.875,19.6719 C189.1406,19.5156 189.2813,19.2344 189.2813,18.9375 C189.2813,18.6719 189.1719,18.4063 188.9375,18.2344 C188.7656,18.125 188.625,18.0938 188.1719,18.0938 L183.0313,18.0938 C182.5938,18.0938 182.4688,18.1094 182.3125,18.2031 C182.0625,18.3594 181.9063,18.6563 181.9063,18.9375 C181.9063,19.2188 182.0469,19.4688 182.2656,19.6406 C182.4219,19.75 182.6094,19.7813 183.0313,19.7813 L184.75,19.7813 L184.75,26.2969 L183.0313,26.2969 C182.5938,26.2969 182.4688,26.3125 182.3125,26.4219 C182.0625,26.5781 181.9063,26.8594 181.9063,27.1563 C181.9063,27.4063 182.0469,27.6719 182.2656,27.8281 C182.4219,27.9531 182.625,28 183.0313,28 L188.1719,28 C188.9219,28 189.2813,27.7188 189.2813,27.1563 C189.2813,26.875 189.1719,26.625 188.9375,26.4531 C188.7656,26.3281 188.625,26.2969 188.1719,26.2969 L186.4531,26.2969 L186.4531,19.7813 Z " fill="#000000"/><text fill="#000000" font-family="sans-serif" font-size="14" font-style="italic" lengthAdjust="spacing" textLength="92" x="199.5" y="27.8467">FrameOwner</text><line style="stroke:#181818;stroke-width:0.5;" x1="171.5" x2="293.5" y1="39" y2="39"/><line style="stroke:#181818;stroke-width:0.5;" x1="171.5" x2="293.5" y1="47" y2="47"/></g><!--class Screen--><g id="elem_Screen"><rect codeLine="4" fill="#F1F1F1" height="64.2969" id="Screen" rx="2.5" ry="2.5" style="stroke:#181818;stroke-width:0.5;" width="162" x="33.5" y="115"/><ellipse cx="85.25" cy="131" fill="#A9DCDF" rx="11" ry="11" style="stroke:#181818;stroke-width:1.0;"/><path d="M87.3281,132.8125 L87.7188,133.7969 L87.3281,133.7969 C86.875,133.7969 86.7656,133.8125 86.6094,133.9219 C86.3594,134.0781 86.2031,134.3594 86.2031,134.6563 C86.2031,134.9219 86.3438,135.1719 86.5625,135.3281 C86.7031,135.4531 86.9063,135.5 87.3281,135.5 L89.6875,135.5 C90.0469,135.5 90.2656,135.4688 90.4063,135.375 C90.6563,135.2344 90.8125,134.9375 90.8125,134.6563 C90.8125,134.375 90.6719,134.125 90.4531,133.9688 C90.2813,133.8281 90.125,133.7969 89.6563,133.7969 L86.2656,125.5938 L82.5938,125.5938 C82.1406,125.5938 82.0156,125.6094 81.8594,125.7031 C81.6094,125.875 81.4531,126.1563 81.4531,126.4375 C81.4531,126.7188 81.5938,126.9688 81.8125,127.1406 C81.9844,127.25 82.1563,127.2813 82.5938,127.2813 L83.6719,127.2813 L81.0313,133.7969 C80.6094,133.7969 80.4531,133.8125 80.2969,133.9219 C80.0469,134.0781 79.8906,134.3594 79.8906,134.6563 C79.8906,135.2188 80.2656,135.5 81.0156,135.5 L83.2813,135.5 C83.6406,135.5 83.8594,135.4688 83.9844,135.375 C84.25,135.2344 84.3906,134.9375 84.3906,134.6563 C84.3906,134.375 84.2656,134.125 84.0469,133.9531 C83.875,133.8281 83.7344,133.7969 83.2813,133.7969 L82.8906,133.7969 L83.2813,132.8125 L87.3281,132.8125 Z M86.625,131.1094 L83.9531,131.1094 L85.2969,127.8438 L86.625,131.1094 Z " fill="#000000"/><text fill="#000000" font-family="sans-serif" font-size="14" font-style="italic" lengthAdjust="spacing" textLength="50" x="105.75" y="135.8467">Screen</text><line style="stroke:#181818;stroke-width:0.5;" x1="34.5" x2="194.5" y1="147" y2="147"/><text fill="#000000" font-family="sans-serif" font-size="14" lengthAdjust="spacing" textLength="150" x="39.5" y="163.9951">getWindow : Window</text><line style="stroke:#181818;stroke-width:0.5;" x1="34.5" x2="194.5" y1="171.2969" y2="171.2969"/></g><!--class ScreenFragment--><g id="elem_ScreenFragment"><rect codeLine="8" fill="#F1F1F1" height="64.2969" id="ScreenFragment" rx="2.5" ry="2.5" style="stroke:#181818;stroke-width:0.5;" width="190" x="255.5" y="115"/><ellipse cx="288.05" cy="131" fill="#A9DCDF" rx="11" ry="11" style="stroke:#181818;stroke-width:1.0;"/><path d="M290.1281,132.8125 L290.5188,133.7969 L290.1281,133.7969 C289.675,133.7969 289.5656,133.8125 289.4094,133.9219 C289.1594,134.0781 289.0031,134.3594 289.0031,134.6563 C289.0031,134.9219 289.1438,135.1719 289.3625,135.3281 C289.5031,135.4531 289.7063,135.5 290.1281,135.5 L292.4875,135.5 C292.8469,135.5 293.0656,135.4688 293.2063,135.375 C293.4563,135.2344 293.6125,134.9375 293.6125,134.6563 C293.6125,134.375 293.4719,134.125 293.2531,133.9688 C293.0813,133.8281 292.925,133.7969 292.4563,133.7969 L289.0656,125.5938 L285.3938,125.5938 C284.9406,125.5938 284.8156,125.6094 284.6594,125.7031 C284.4094,125.875 284.2531,126.1563 284.2531,126.4375 C284.2531,126.7188 284.3938,126.9688 284.6125,127.1406 C284.7844,127.25 284.9563,127.2813 285.3938,127.2813 L286.4719,127.2813 L283.8313,133.7969 C283.4094,133.7969 283.2531,133.8125 283.0969,133.9219 C282.8469,134.0781 282.6906,134.3594 282.6906,134.6563 C282.6906,135.2188 283.0656,135.5 283.8156,135.5 L286.0813,135.5 C286.4406,135.5 286.6594,135.4688 286.7844,135.375 C287.05,135.2344 287.1906,134.9375 287.1906,134.6563 C287.1906,134.375 287.0656,134.125 286.8469,133.9531 C286.675,133.8281 286.5344,133.7969 286.0813,133.7969 L285.6906,133.7969 L286.0813,132.8125 L290.1281,132.8125 Z M289.425,131.1094 L286.7531,131.1094 L288.0969,127.8438 L289.425,131.1094 Z " fill="#000000"/><text fill="#000000" font-family="sans-serif" font-size="14" font-style="italic" lengthAdjust="spacing" textLength="119" x="305.95" y="135.8467">ScreenFragment</text><line style="stroke:#181818;stroke-width:0.5;" x1="256.5" x2="444.5" y1="147" y2="147"/><text fill="#000000" font-family="sans-serif" font-size="14" lengthAdjust="spacing" textLength="178" x="261.5" y="163.9951">getFragment : Fragment</text><line style="stroke:#181818;stroke-width:0.5;" x1="256.5" x2="444.5" y1="171.2969" y2="171.2969"/></g><!--class Window--><g id="elem_Window"><rect codeLine="12" fill="#F1F1F1" height="64.2969" id="Window" rx="2.5" ry="2.5" style="stroke:#181818;stroke-width:0.5;" width="191" x="7" y="239"/><ellipse cx="70.25" cy="255" fill="#B4A7E5" rx="11" ry="11" style="stroke:#181818;stroke-width:1.0;"/><path d="M71.2031,251.7813 L72.9219,251.7813 C73.3125,251.7813 73.5,251.75 73.625,251.6719 C73.8906,251.5156 74.0313,251.2344 74.0313,250.9375 C74.0313,250.6719 73.9219,250.4063 73.6875,250.2344 C73.5156,250.125 73.375,250.0938 72.9219,250.0938 L67.7813,250.0938 C67.3438,250.0938 67.2188,250.1094 67.0625,250.2031 C66.8125,250.3594 66.6563,250.6563 66.6563,250.9375 C66.6563,251.2188 66.7969,251.4688 67.0156,251.6406 C67.1719,251.75 67.3594,251.7813 67.7813,251.7813 L69.5,251.7813 L69.5,258.2969 L67.7813,258.2969 C67.3438,258.2969 67.2188,258.3125 67.0625,258.4219 C66.8125,258.5781 66.6563,258.8594 66.6563,259.1563 C66.6563,259.4063 66.7969,259.6719 67.0156,259.8281 C67.1719,259.9531 67.375,260 67.7813,260 L72.9219,260 C73.6719,260 74.0313,259.7188 74.0313,259.1563 C74.0313,258.875 73.9219,258.625 73.6875,258.4531 C73.5156,258.3281 73.375,258.2969 72.9219,258.2969 L71.2031,258.2969 L71.2031,251.7813 Z " fill="#000000"/><text fill="#000000" font-family="sans-serif" font-size="14" font-style="italic" lengthAdjust="spacing" textLength="56" x="90.75" y="259.8467">Window</text><line style="stroke:#181818;stroke-width:0.5;" x1="8" x2="197" y1="271" y2="271"/><text fill="#000000" font-family="sans-serif" font-size="14" lengthAdjust="spacing" textLength="179" x="13" y="287.9951">getFrameOwner : Screen</text><line style="stroke:#181818;stroke-width:0.5;" x1="8" x2="197" y1="295.2969" y2="295.2969"/></g><!--class Fragment--><g id="elem_Fragment"><rect codeLine="16" fill="#F1F1F1" height="64.2969" id="Fragment" rx="2.5" ry="2.5" style="stroke:#181818;stroke-width:0.5;" width="261" x="233" y="239"/><ellipse cx="324.75" cy="255" fill="#B4A7E5" rx="11" ry="11" style="stroke:#181818;stroke-width:1.0;"/><path d="M325.7031,251.7813 L327.4219,251.7813 C327.8125,251.7813 328,251.75 328.125,251.6719 C328.3906,251.5156 328.5313,251.2344 328.5313,250.9375 C328.5313,250.6719 328.4219,250.4063 328.1875,250.2344 C328.0156,250.125 327.875,250.0938 327.4219,250.0938 L322.2813,250.0938 C321.8438,250.0938 321.7188,250.1094 321.5625,250.2031 C321.3125,250.3594 321.1563,250.6563 321.1563,250.9375 C321.1563,251.2188 321.2969,251.4688 321.5156,251.6406 C321.6719,251.75 321.8594,251.7813 322.2813,251.7813 L324,251.7813 L324,258.2969 L322.2813,258.2969 C321.8438,258.2969 321.7188,258.3125 321.5625,258.4219 C321.3125,258.5781 321.1563,258.8594 321.1563,259.1563 C321.1563,259.4063 321.2969,259.6719 321.5156,259.8281 C321.6719,259.9531 321.875,260 322.2813,260 L327.4219,260 C328.1719,260 328.5313,259.7188 328.5313,259.1563 C328.5313,258.875 328.4219,258.625 328.1875,258.4531 C328.0156,258.3281 327.875,258.2969 327.4219,258.2969 L325.7031,258.2969 L325.7031,251.7813 Z " fill="#000000"/><text fill="#000000" font-family="sans-serif" font-size="14" font-style="italic" lengthAdjust="spacing" textLength="69" x="345.25" y="259.8467">Fragment</text><line style="stroke:#181818;stroke-width:0.5;" x1="234" x2="493" y1="271" y2="271"/><text fill="#000000" font-family="sans-serif" font-size="14" lengthAdjust="spacing" textLength="249" x="239" y="287.9951">getFrameOwner : ScreenFragment</text><line style="stroke:#181818;stroke-width:0.5;" x1="234" x2="493" y1="295.2969" y2="295.2969"/></g><!--reverse link FrameOwner to Screen--><g id="link_FrameOwner_Screen"><path codeLine="20" d="M194.214,68.988 C178.917,83.767 161.491,100.602 146.842,114.755 " fill="none" id="FrameOwner-backto-Screen" style="stroke:#181818;stroke-width:1.0;"/><polygon fill="none" points="189.373,63.932,208.621,55.07,199.101,74,189.373,63.932" style="stroke:#181818;stroke-width:1.0;"/></g><!--reverse link FrameOwner to ScreenFragment--><g id="link_FrameOwner_ScreenFragment"><path codeLine="21" d="M270.786,68.988 C286.083,83.767 303.509,100.602 318.158,114.755 " fill="none" id="FrameOwner-backto-ScreenFragment" style="stroke:#181818;stroke-width:1.0;"/><polygon fill="none" points="265.899,74,256.379,55.07,275.627,63.932,265.899,74" style="stroke:#181818;stroke-width:1.0;"/></g><!--link Screen to Window--><g id="link_Screen_Window"><path codeLine="22" d="M111.441,179.101 C109.635,197.457 107.358,220.6101 105.5536,238.9554 " fill="none" id="Screen-Window" style="stroke:#181818;stroke-width:1.0;"/></g><!--link ScreenFragment to Fragment--><g id="link_ScreenFragment_Fragment"><path codeLine="23" d="M353.814,179.101 C355.77,197.457 358.237,220.6101 360.192,238.9554 " fill="none" id="ScreenFragment-Fragment" style="stroke:#181818;stroke-width:1.0;"/></g><!--SRC=[oymhIIrAIqnELN0hIinDzI_FIorIgEQgvU9AJ2ekAKfCBb48JYvAJSq32Ye0GNfgINXcNaf-kOAL0eI1HItGgFJSrBmIX1wuY9K2Z0dIbmct7MeeiWQOQwoWfg9gm6e7kXPakv2autHrOMPY5OLhWteTA05r7nUQ1u4oC3O0]--></g></svg>