<svg xmlns="http://www.w3.org/2000/svg" xmlns:xlink="http://www.w3.org/1999/xlink" contentStyleType="text/css" height="248px" preserveAspectRatio="none" style="width:758px;height:248px;background:#FFFFFF;" version="1.1" viewBox="0 0 758 248" width="758px" zoomAndPan="magnify"><defs/><g><!--class Step--><g id="elem_Step"><rect codeLine="1" fill="#F1F1F1" height="113.1875" id="Step" rx="2.5" ry="2.5" style="stroke:#181818;stroke-width:0.5;" width="78.6367" x="672.9" y="95.64"/><ellipse cx="694.5423" cy="111.64" fill="#ADD1B2" rx="11" ry="11" style="stroke:#181818;stroke-width:1;"/><path d="M698.6517,117.64 L690.933,117.64 L690.933,105.2494 L698.6517,105.2494 L698.6517,107.4056 L693.3861,107.4056 L693.3861,110.0775 L698.1517,110.0775 L698.1517,112.2337 L693.3861,112.2337 L693.3861,115.4837 L698.6517,115.4837 L698.6517,117.64 Z " fill="#000000"/><text fill="#000000" font-family="sans-serif" font-size="14" lengthAdjust="spacing" textLength="31.876" x="710.0184" y="116.4867">Step</text><line style="stroke:#181818;stroke-width:0.5;" x1="673.9" x2="750.5367" y1="127.64" y2="127.64"/><text fill="#000000" font-family="sans-serif" font-size="14" lengthAdjust="spacing" textLength="12.7764" x="678.9" y="144.6351">id</text><text fill="#000000" font-family="sans-serif" font-size="14" lengthAdjust="spacing" textLength="39.7031" x="678.9" y="160.932">name</text><text fill="#000000" font-family="sans-serif" font-size="14" lengthAdjust="spacing" textLength="58.9121" x="678.9" y="177.2289">duration</text><text fill="#000000" font-family="sans-serif" font-size="14" lengthAdjust="spacing" textLength="66.6367" x="678.9" y="193.5257">sortValue</text><line style="stroke:#181818;stroke-width:0.5;" x1="673.9" x2="750.5367" y1="200.8275" y2="200.8275"/></g><!--class UserStep--><g id="elem_UserStep"><rect codeLine="8" fill="#F1F1F1" height="145.7813" id="UserStep" rx="2.5" ry="2.5" style="stroke:#181818;stroke-width:0.5;" width="119.7412" x="518.35" y="79.34"/><ellipse cx="544.1298" cy="95.34" fill="#ADD1B2" rx="11" ry="11" style="stroke:#181818;stroke-width:1;"/><path d="M548.2392,101.34 L540.5204,101.34 L540.5204,88.9494 L548.2392,88.9494 L548.2392,91.1056 L542.9735,91.1056 L542.9735,93.7775 L547.7392,93.7775 L547.7392,95.9337 L542.9735,95.9337 L542.9735,99.1837 L548.2392,99.1837 L548.2392,101.34 Z " fill="#000000"/><text fill="#000000" font-family="sans-serif" font-size="14" lengthAdjust="spacing" textLength="63.7861" x="560.5253" y="100.1867">UserStep</text><line style="stroke:#181818;stroke-width:0.5;" x1="519.35" x2="637.0912" y1="111.34" y2="111.34"/><text fill="#000000" font-family="sans-serif" font-size="14" lengthAdjust="spacing" textLength="12.7764" x="524.35" y="128.3351">id</text><text fill="#000000" font-family="sans-serif" font-size="14" lengthAdjust="spacing" textLength="71.6133" x="524.35" y="144.632">user: User</text><text fill="#000000" font-family="sans-serif" font-size="14" lengthAdjust="spacing" textLength="71.3262" x="524.35" y="160.9289">step: Step</text><text fill="#000000" font-family="sans-serif" font-size="14" lengthAdjust="spacing" textLength="59.835" x="524.35" y="177.2257">dueDate</text><text fill="#000000" font-family="sans-serif" font-size="14" lengthAdjust="spacing" textLength="107.7412" x="524.35" y="193.5226">completedDate</text><text fill="#000000" font-family="sans-serif" font-size="14" lengthAdjust="spacing" textLength="66.6367" x="524.35" y="209.8195">sortValue</text><line style="stroke:#181818;stroke-width:0.5;" x1="519.35" x2="637.0912" y1="217.1212" y2="217.1212"/></g><!--class Meeting--><g id="elem_Meeting"><rect codeLine="17" fill="#F1F1F1" height="129.4844" id="Meeting" rx="2.5" ry="2.5" style="stroke:#181818;stroke-width:0.5;" width="88.4443" x="7" y="87.49"/><ellipse cx="22" cy="103.49" fill="#ADD1B2" rx="11" ry="11" style="stroke:#181818;stroke-width:1;"/><path d="M26.1094,109.49 L18.3906,109.49 L18.3906,97.0994 L26.1094,97.0994 L26.1094,99.2556 L20.8438,99.2556 L20.8438,101.9275 L25.6094,101.9275 L25.6094,104.0837 L20.8438,104.0837 L20.8438,107.3337 L26.1094,107.3337 L26.1094,109.49 Z " fill="#000000"/><text fill="#000000" font-family="sans-serif" font-size="14" lengthAdjust="spacing" textLength="56.4443" x="36" y="108.3367">Meeting</text><line style="stroke:#181818;stroke-width:0.5;" x1="8" x2="94.4443" y1="119.49" y2="119.49"/><text fill="#000000" font-family="sans-serif" font-size="14" lengthAdjust="spacing" textLength="12.7764" x="13" y="136.4851">id</text><text fill="#000000" font-family="sans-serif" font-size="14" lengthAdjust="spacing" textLength="71.6133" x="13" y="152.782">user: User</text><text fill="#000000" font-family="sans-serif" font-size="14" lengthAdjust="spacing" textLength="39.7031" x="13" y="169.0789">name</text><text fill="#000000" font-family="sans-serif" font-size="14" lengthAdjust="spacing" textLength="66.0693" x="13" y="185.3757">startDate</text><text fill="#000000" font-family="sans-serif" font-size="14" lengthAdjust="spacing" textLength="59.835" x="13" y="201.6726">endDate</text><line style="stroke:#181818;stroke-width:0.5;" x1="8" x2="94.4443" y1="208.9744" y2="208.9744"/></g><!--class User--><g id="elem_User"><rect codeLine="24" fill="#F1F1F1" height="178.375" id="User" rx="2.5" ry="2.5" style="stroke:#181818;stroke-width:0.5;" width="188.709" x="294.87" y="63.04"/><ellipse cx="369.0194" cy="79.04" fill="#ADD1B2" rx="11" ry="11" style="stroke:#181818;stroke-width:1;"/><path d="M373.1288,85.04 L365.41,85.04 L365.41,72.6494 L373.1288,72.6494 L373.1288,74.8056 L367.8632,74.8056 L367.8632,77.4775 L372.6288,77.4775 L372.6288,79.6337 L367.8632,79.6337 L367.8632,82.8837 L373.1288,82.8837 L373.1288,85.04 Z " fill="#000000"/><text fill="#000000" font-family="sans-serif" font-size="14" lengthAdjust="spacing" textLength="31.9102" x="389.5194" y="83.8867">User</text><line style="stroke:#181818;stroke-width:0.5;" x1="295.87" x2="482.579" y1="95.04" y2="95.04"/><text fill="#000000" font-family="sans-serif" font-size="14" lengthAdjust="spacing" textLength="12.7764" x="300.87" y="112.0351">id</text><text fill="#000000" font-family="sans-serif" font-size="14" lengthAdjust="spacing" textLength="70.2393" x="300.87" y="128.332">username</text><text fill="#000000" font-family="sans-serif" font-size="14" lengthAdjust="spacing" textLength="68.6602" x="300.87" y="144.6289">firstName</text><text fill="#000000" font-family="sans-serif" font-size="14" lengthAdjust="spacing" textLength="66.5547" x="300.87" y="160.9257">lastName</text><text fill="#000000" font-family="sans-serif" font-size="14" lengthAdjust="spacing" textLength="176.709" x="300.87" y="177.2226">department: Department</text><text fill="#000000" font-family="sans-serif" font-size="14" lengthAdjust="spacing" textLength="49.2051" x="300.87" y="193.5195">picture</text><text fill="#000000" font-family="sans-serif" font-size="14" lengthAdjust="spacing" textLength="80.3291" x="300.87" y="209.8164">joiningDate</text><text fill="#000000" font-family="sans-serif" font-size="14" lengthAdjust="spacing" textLength="124.373" x="300.87" y="226.1132">onboardingStatus</text><line style="stroke:#181818;stroke-width:0.5;" x1="295.87" x2="482.579" y1="233.415" y2="233.415"/></g><!--class Department--><g id="elem_Department"><rect codeLine="34" fill="#F1F1F1" height="96.8906" id="Department" rx="2.5" ry="2.5" style="stroke:#181818;stroke-width:0.5;" width="129.0723" x="130.69" y="103.79"/><ellipse cx="151.2495" cy="119.79" fill="#ADD1B2" rx="11" ry="11" style="stroke:#181818;stroke-width:1;"/><path d="M155.3589,125.79 L147.6401,125.79 L147.6401,113.3994 L155.3589,113.3994 L155.3589,115.5556 L150.0933,115.5556 L150.0933,118.2275 L154.8589,118.2275 L154.8589,120.3837 L150.0933,120.3837 L150.0933,123.6337 L155.3589,123.6337 L155.3589,125.79 Z " fill="#000000"/><text fill="#000000" font-family="sans-serif" font-size="14" lengthAdjust="spacing" textLength="84.7178" x="166.485" y="124.6367">Department</text><line style="stroke:#181818;stroke-width:0.5;" x1="131.69" x2="258.7623" y1="135.79" y2="135.79"/><text fill="#000000" font-family="sans-serif" font-size="14" lengthAdjust="spacing" textLength="12.7764" x="136.69" y="152.7851">id</text><text fill="#000000" font-family="sans-serif" font-size="14" lengthAdjust="spacing" textLength="39.7031" x="136.69" y="169.082">name</text><text fill="#000000" font-family="sans-serif" font-size="14" lengthAdjust="spacing" textLength="117.0723" x="136.69" y="185.3789">hrManager: User</text><line style="stroke:#181818;stroke-width:0.5;" x1="131.69" x2="258.7623" y1="192.6806" y2="192.6806"/></g><!--link User to UserStep--><g id="link_User_UserStep"><path codeLine="40" d="M483.72,152.23 C495.17,152.23 498.61,152.23 510.05,152.23 " fill="none" id="User-to-UserStep" style="stroke:#181818;stroke-width:1;"/><line style="stroke:#181818;stroke-width:1;" x1="510.05" x2="518.05" y1="152.23" y2="144.23"/><line style="stroke:#181818;stroke-width:1;" x1="510.05" x2="518.05" y1="152.23" y2="160.23"/><line style="stroke:#181818;stroke-width:1;" x1="510.05" x2="518.05" y1="152.23" y2="152.23"/></g><!--reverse link Meeting to User--><g id="link_Meeting_User"><path codeLine="41" d="M83.0752,80.2158 C95.5952,59.0658 108.57,44.9 130.72,33.04 C181.27,6 206.31,12.21 259.72,33.04 C277.51,39.99 294.34,50.64 309.6,62.79 " fill="none" id="Meeting-backto-User" style="stroke:#181818;stroke-width:1;"/><line style="stroke:#181818;stroke-width:1;" x1="83.0752" x2="85.8842" y1="80.2158" y2="87.1"/><line style="stroke:#181818;stroke-width:1;" x1="83.0752" x2="72.1158" y1="80.2158" y2="87.1"/><line style="stroke:#181818;stroke-width:1;" x1="83.0752" x2="79" y1="80.2158" y2="87.1"/></g><!--reverse link UserStep to Step--><g id="link_UserStep_Step"><path codeLine="42" d="M646.42,152.23 C657.76,152.23 661.1,152.23 672.44,152.23 " fill="none" id="UserStep-backto-Step" style="stroke:#181818;stroke-width:1;"/><line style="stroke:#181818;stroke-width:1;" x1="646.42" x2="638.42" y1="152.23" y2="160.23"/><line style="stroke:#181818;stroke-width:1;" x1="646.42" x2="638.42" y1="152.23" y2="144.23"/><line style="stroke:#181818;stroke-width:1;" x1="646.42" x2="638.42" y1="152.23" y2="152.23"/></g><!--link Department to User--><g id="link_Department_User"><path codeLine="43" d="M260.02,184.56 C271.54,187.43 275.0615,188.9126 286.5915,188.6926 " fill="none" id="Department-to-User" style="stroke:#181818;stroke-width:1;"/><line style="stroke:#181818;stroke-width:1;" x1="286.5915" x2="294.59" y1="188.6926" y2="180.5415"/><line style="stroke:#181818;stroke-width:1;" x1="286.5915" x2="294.59" y1="188.6926" y2="196.5385"/><line style="stroke:#181818;stroke-width:1;" x1="286.5915" x2="294.59" y1="188.6926" y2="188.54"/></g><!--reverse link Department to User--><g id="link_Department_User"><path codeLine="44" d="M267.7843,117.9724 C279.3043,115.1124 283.06,115.71 294.59,115.92 " fill="none" id="Department-backto-User" style="stroke:#181818;stroke-width:1;"/><line style="stroke:#181818;stroke-width:1;" x1="267.7843" x2="260.02" y1="117.9724" y2="127.6643"/><line style="stroke:#181818;stroke-width:1;" x1="267.7843" x2="260.02" y1="117.9724" y2="112.1357"/><line style="stroke:#181818;stroke-width:1;" x1="267.7843" x2="260.02" y1="117.9724" y2="119.9"/></g><!--SRC=[VL7D3eCW3Bxp5Bw0B-3PgxkOxTv9vrWK39J3OdptDQ3Ln6rSe1_zVYXeoT2xQ0cdObO5BwFJPc74TD3H0nbdKn6SfniC4TMY56RkDQ0_yoEZLRhBH6weaiqgYZLGDkZSE0r8g0Nvvj8Wah7zNnF970WyYHpQBBqS4v-5XFqmFj1bgmOu51edLXvPfofgEQUhoNGKVMvxEMCvh2Hmzkx0QuPQ0efXZxAB_1Z_qpTWePTtyaHI_7AMmQjjDakPU-H764WD1vULTuHMsWS0]--></g></svg>