<?xml version="1.0" encoding="us-ascii" standalone="no"?><svg xmlns="http://www.w3.org/2000/svg" xmlns:xlink="http://www.w3.org/1999/xlink" contentStyleType="text/css" height="192px" preserveAspectRatio="none" style="width:653px;height:192px;background:#FFFFFF;" version="1.1" viewBox="0 0 653 192" width="653px" zoomAndPan="magnify"><defs/><g><!--class Step--><g id="elem_Step"><rect codeLine="1" fill="#F1F1F1" height="113.1875" id="Step" rx="2.5" ry="2.5" style="stroke:#181818;stroke-width:0.5;" width="80" x="566" y="39.5"/><ellipse cx="586.85" cy="55.5" fill="#ADD1B2" rx="11" ry="11" style="stroke:#181818;stroke-width:1.0;"/><path d="M585.6469,56.375 L587.1,56.375 L587.1,56.4844 C587.1,56.8906 587.1313,57.0469 587.2094,57.2031 C587.3656,57.4531 587.6469,57.6094 587.9438,57.6094 C588.1938,57.6094 588.4594,57.4688 588.6156,57.25 C588.7406,57.0938 588.7719,56.9375 588.7719,56.4844 L588.7719,54.5625 C588.7719,54.4063 588.7719,54.3594 588.7563,54.2031 C588.6938,53.7344 588.3813,53.4219 587.9281,53.4219 C587.6781,53.4219 587.4125,53.5625 587.2406,53.7813 C587.1313,53.9531 587.1,54.1094 587.1,54.5625 L587.1,54.6875 L585.6469,54.6875 L585.6469,52.2813 L589.6313,52.2813 L589.6313,53.1406 C589.6313,53.5469 589.6625,53.7188 589.7406,53.875 C589.9125,54.125 590.1938,54.2813 590.475,54.2813 C590.7406,54.2813 591.0063,54.1406 591.1781,53.9219 C591.2875,53.75 591.3188,53.6094 591.3188,53.1406 L591.3188,50.5938 L583.6938,50.5938 C583.2563,50.5938 583.1313,50.6094 582.975,50.7031 C582.725,50.8594 582.5688,51.1563 582.5688,51.4375 C582.5688,51.7188 582.7094,51.9688 582.9281,52.1406 C583.0844,52.25 583.2719,52.2813 583.6938,52.2813 L583.9438,52.2813 L583.9438,58.7969 L583.6938,58.7969 C583.2875,58.7969 583.1313,58.8125 582.975,58.9219 C582.725,59.0938 582.5688,59.3594 582.5688,59.6563 C582.5688,59.9219 582.7094,60.1719 582.9281,60.3281 C583.0688,60.4531 583.3031,60.5 583.6938,60.5 L591.6938,60.5 L591.6938,57.9219 C591.6938,57.4844 591.6625,57.3438 591.5844,57.1875 C591.4125,56.9375 591.1313,56.7813 590.85,56.7813 C590.5844,56.7813 590.3188,56.8906 590.1469,57.1406 C590.0375,57.2969 590.0063,57.4375 590.0063,57.9219 L590.0063,58.7969 L585.6469,58.7969 L585.6469,56.375 Z " fill="#000000"/><text fill="#000000" font-family="sans-serif" font-size="14" lengthAdjust="spacing" textLength="35" x="602.15" y="60.3467">Step</text><line style="stroke:#181818;stroke-width:0.5;" x1="567" x2="645" y1="71.5" y2="71.5"/><text fill="#000000" font-family="sans-serif" font-size="14" lengthAdjust="spacing" textLength="13" x="572" y="88.4951">id</text><text fill="#000000" font-family="sans-serif" font-size="14" lengthAdjust="spacing" textLength="40" x="572" y="104.792">name</text><text fill="#000000" font-family="sans-serif" font-size="14" lengthAdjust="spacing" textLength="60" x="572" y="121.0889">duration</text><text fill="#000000" font-family="sans-serif" font-size="14" lengthAdjust="spacing" textLength="68" x="572" y="137.3857">sortValue</text><line style="stroke:#181818;stroke-width:0.5;" x1="567" x2="645" y1="144.6875" y2="144.6875"/></g><!--class Department--><g id="elem_Department"><rect codeLine="8" fill="#F1F1F1" height="96.8906" id="Department" rx="2.5" ry="2.5" style="stroke:#181818;stroke-width:0.5;" width="128" x="7" y="47.5"/><ellipse cx="24.7" cy="63.5" fill="#ADD1B2" rx="11" ry="11" style="stroke:#181818;stroke-width:1.0;"/><path d="M23.4969,64.375 L24.95,64.375 L24.95,64.4844 C24.95,64.8906 24.9813,65.0469 25.0594,65.2031 C25.2156,65.4531 25.4969,65.6094 25.7938,65.6094 C26.0438,65.6094 26.3094,65.4688 26.4656,65.25 C26.5906,65.0938 26.6219,64.9375 26.6219,64.4844 L26.6219,62.5625 C26.6219,62.4063 26.6219,62.3594 26.6063,62.2031 C26.5438,61.7344 26.2313,61.4219 25.7781,61.4219 C25.5281,61.4219 25.2625,61.5625 25.0906,61.7813 C24.9813,61.9531 24.95,62.1094 24.95,62.5625 L24.95,62.6875 L23.4969,62.6875 L23.4969,60.2813 L27.4813,60.2813 L27.4813,61.1406 C27.4813,61.5469 27.5125,61.7188 27.5906,61.875 C27.7625,62.125 28.0438,62.2813 28.325,62.2813 C28.5906,62.2813 28.8563,62.1406 29.0281,61.9219 C29.1375,61.75 29.1688,61.6094 29.1688,61.1406 L29.1688,58.5938 L21.5438,58.5938 C21.1063,58.5938 20.9813,58.6094 20.825,58.7031 C20.575,58.8594 20.4188,59.1563 20.4188,59.4375 C20.4188,59.7188 20.5594,59.9688 20.7781,60.1406 C20.9344,60.25 21.1219,60.2813 21.5438,60.2813 L21.7938,60.2813 L21.7938,66.7969 L21.5438,66.7969 C21.1375,66.7969 20.9813,66.8125 20.825,66.9219 C20.575,67.0938 20.4188,67.3594 20.4188,67.6563 C20.4188,67.9219 20.5594,68.1719 20.7781,68.3281 C20.9188,68.4531 21.1531,68.5 21.5438,68.5 L29.5438,68.5 L29.5438,65.9219 C29.5438,65.4844 29.5125,65.3438 29.4344,65.1875 C29.2625,64.9375 28.9813,64.7813 28.7,64.7813 C28.4344,64.7813 28.1688,64.8906 27.9969,65.1406 C27.8875,65.2969 27.8563,65.4375 27.8563,65.9219 L27.8563,66.7969 L23.4969,66.7969 L23.4969,64.375 Z " fill="#000000"/><text fill="#000000" font-family="sans-serif" font-size="14" lengthAdjust="spacing" textLength="90" x="39.3" y="68.3467">Department</text><line style="stroke:#181818;stroke-width:0.5;" x1="8" x2="134" y1="79.5" y2="79.5"/><text fill="#000000" font-family="sans-serif" font-size="14" lengthAdjust="spacing" textLength="13" x="13" y="96.4951">id</text><text fill="#000000" font-family="sans-serif" font-size="14" lengthAdjust="spacing" textLength="40" x="13" y="112.792">name</text><text fill="#000000" font-family="sans-serif" font-size="14" lengthAdjust="spacing" textLength="116" x="13" y="129.0889">hrManager: User</text><line style="stroke:#181818;stroke-width:0.5;" x1="8" x2="134" y1="136.3906" y2="136.3906"/></g><!--class User--><g id="elem_User"><rect codeLine="14" fill="#F1F1F1" height="178.375" id="User" rx="2.5" ry="2.5" style="stroke:#181818;stroke-width:0.5;" width="199" x="170.5" y="7"/><ellipse cx="250.25" cy="23" fill="#ADD1B2" rx="11" ry="11" style="stroke:#181818;stroke-width:1.0;"/><path d="M249.0469,23.875 L250.5,23.875 L250.5,23.9844 C250.5,24.3906 250.5313,24.5469 250.6094,24.7031 C250.7656,24.9531 251.0469,25.1094 251.3438,25.1094 C251.5938,25.1094 251.8594,24.9688 252.0156,24.75 C252.1406,24.5938 252.1719,24.4375 252.1719,23.9844 L252.1719,22.0625 C252.1719,21.9063 252.1719,21.8594 252.1563,21.7031 C252.0938,21.2344 251.7813,20.9219 251.3281,20.9219 C251.0781,20.9219 250.8125,21.0625 250.6406,21.2813 C250.5313,21.4531 250.5,21.6094 250.5,22.0625 L250.5,22.1875 L249.0469,22.1875 L249.0469,19.7813 L253.0313,19.7813 L253.0313,20.6406 C253.0313,21.0469 253.0625,21.2188 253.1406,21.375 C253.3125,21.625 253.5938,21.7813 253.875,21.7813 C254.1406,21.7813 254.4063,21.6406 254.5781,21.4219 C254.6875,21.25 254.7188,21.1094 254.7188,20.6406 L254.7188,18.0938 L247.0938,18.0938 C246.6563,18.0938 246.5313,18.1094 246.375,18.2031 C246.125,18.3594 245.9688,18.6563 245.9688,18.9375 C245.9688,19.2188 246.1094,19.4688 246.3281,19.6406 C246.4844,19.75 246.6719,19.7813 247.0938,19.7813 L247.3438,19.7813 L247.3438,26.2969 L247.0938,26.2969 C246.6875,26.2969 246.5313,26.3125 246.375,26.4219 C246.125,26.5938 245.9688,26.8594 245.9688,27.1563 C245.9688,27.4219 246.1094,27.6719 246.3281,27.8281 C246.4688,27.9531 246.7031,28 247.0938,28 L255.0938,28 L255.0938,25.4219 C255.0938,24.9844 255.0625,24.8438 254.9844,24.6875 C254.8125,24.4375 254.5313,24.2813 254.25,24.2813 C253.9844,24.2813 253.7188,24.3906 253.5469,24.6406 C253.4375,24.7969 253.4063,24.9375 253.4063,25.4219 L253.4063,26.2969 L249.0469,26.2969 L249.0469,23.875 Z " fill="#000000"/><text fill="#000000" font-family="sans-serif" font-size="14" lengthAdjust="spacing" textLength="31" x="270.75" y="27.8467">User</text><line style="stroke:#181818;stroke-width:0.5;" x1="171.5" x2="368.5" y1="39" y2="39"/><text fill="#000000" font-family="sans-serif" font-size="14" lengthAdjust="spacing" textLength="13" x="176.5" y="55.9951">id</text><text fill="#000000" font-family="sans-serif" font-size="14" lengthAdjust="spacing" textLength="70" x="176.5" y="72.292">username</text><text fill="#000000" font-family="sans-serif" font-size="14" lengthAdjust="spacing" textLength="71" x="176.5" y="88.5889">firstName</text><text fill="#000000" font-family="sans-serif" font-size="14" lengthAdjust="spacing" textLength="67" x="176.5" y="104.8857">lastName</text><text fill="#000000" font-family="sans-serif" font-size="14" lengthAdjust="spacing" textLength="187" x="176.5" y="121.1826">department: Department</text><text fill="#000000" font-family="sans-serif" font-size="14" lengthAdjust="spacing" textLength="52" x="176.5" y="137.4795">picture</text><text fill="#000000" font-family="sans-serif" font-size="14" lengthAdjust="spacing" textLength="83" x="176.5" y="153.7764">joiningDate</text><text fill="#000000" font-family="sans-serif" font-size="14" lengthAdjust="spacing" textLength="128" x="176.5" y="170.0732">onboardingStatus</text><line style="stroke:#181818;stroke-width:0.5;" x1="171.5" x2="368.5" y1="177.375" y2="177.375"/></g><!--class UserStep--><g id="elem_UserStep"><rect codeLine="25" fill="#F1F1F1" height="145.7813" id="UserStep" rx="2.5" ry="2.5" style="stroke:#181818;stroke-width:0.5;" width="126" x="405" y="23"/><ellipse cx="432.6" cy="39" fill="#ADD1B2" rx="11" ry="11" style="stroke:#181818;stroke-width:1.0;"/><path d="M431.3969,39.875 L432.85,39.875 L432.85,39.9844 C432.85,40.3906 432.8813,40.5469 432.9594,40.7031 C433.1156,40.9531 433.3969,41.1094 433.6938,41.1094 C433.9438,41.1094 434.2094,40.9688 434.3656,40.75 C434.4906,40.5938 434.5219,40.4375 434.5219,39.9844 L434.5219,38.0625 C434.5219,37.9063 434.5219,37.8594 434.5063,37.7031 C434.4438,37.2344 434.1313,36.9219 433.6781,36.9219 C433.4281,36.9219 433.1625,37.0625 432.9906,37.2813 C432.8813,37.4531 432.85,37.6094 432.85,38.0625 L432.85,38.1875 L431.3969,38.1875 L431.3969,35.7813 L435.3813,35.7813 L435.3813,36.6406 C435.3813,37.0469 435.4125,37.2188 435.4906,37.375 C435.6625,37.625 435.9438,37.7813 436.225,37.7813 C436.4906,37.7813 436.7563,37.6406 436.9281,37.4219 C437.0375,37.25 437.0688,37.1094 437.0688,36.6406 L437.0688,34.0938 L429.4438,34.0938 C429.0063,34.0938 428.8813,34.1094 428.725,34.2031 C428.475,34.3594 428.3188,34.6563 428.3188,34.9375 C428.3188,35.2188 428.4594,35.4688 428.6781,35.6406 C428.8344,35.75 429.0219,35.7813 429.4438,35.7813 L429.6938,35.7813 L429.6938,42.2969 L429.4438,42.2969 C429.0375,42.2969 428.8813,42.3125 428.725,42.4219 C428.475,42.5938 428.3188,42.8594 428.3188,43.1563 C428.3188,43.4219 428.4594,43.6719 428.6781,43.8281 C428.8188,43.9531 429.0531,44 429.4438,44 L437.4438,44 L437.4438,41.4219 C437.4438,40.9844 437.4125,40.8438 437.3344,40.6875 C437.1625,40.4375 436.8813,40.2813 436.6,40.2813 C436.3344,40.2813 436.0688,40.3906 435.8969,40.6406 C435.7875,40.7969 435.7563,40.9375 435.7563,41.4219 L435.7563,42.2969 L431.3969,42.2969 L431.3969,39.875 Z " fill="#000000"/><text fill="#000000" font-family="sans-serif" font-size="14" lengthAdjust="spacing" textLength="66" x="449.4" y="43.8467">UserStep</text><line style="stroke:#181818;stroke-width:0.5;" x1="406" x2="530" y1="55" y2="55"/><text fill="#000000" font-family="sans-serif" font-size="14" lengthAdjust="spacing" textLength="13" x="411" y="71.9951">id</text><text fill="#000000" font-family="sans-serif" font-size="14" lengthAdjust="spacing" textLength="70" x="411" y="88.292">user: User</text><text fill="#000000" font-family="sans-serif" font-size="14" lengthAdjust="spacing" textLength="77" x="411" y="104.5889">step: Step</text><text fill="#000000" font-family="sans-serif" font-size="14" lengthAdjust="spacing" textLength="61" x="411" y="120.8857">dueDate</text><text fill="#000000" font-family="sans-serif" font-size="14" lengthAdjust="spacing" textLength="114" x="411" y="137.1826">completedDate</text><text fill="#000000" font-family="sans-serif" font-size="14" lengthAdjust="spacing" textLength="68" x="411" y="153.4795">sortValue</text><line style="stroke:#181818;stroke-width:0.5;" x1="406" x2="530" y1="160.7813" y2="160.7813"/></g><!--link User to UserStep--><g id="link_User_UserStep"><path codeLine="34" d="M369.773,96 C378.684,96 387.595,96 396.506,96 " fill="none" id="User-to-UserStep" style="stroke:#181818;stroke-width:1.0;"/><line style="stroke:#181818;stroke-width:1.0;" x1="396.69" x2="404.69" y1="96" y2="88"/><line style="stroke:#181818;stroke-width:1.0;" x1="396.69" x2="404.69" y1="96" y2="104"/><line style="stroke:#181818;stroke-width:1.0;" x1="396.69" x2="404.69" y1="96" y2="96"/></g><!--reverse link UserStep to Step--><g id="link_UserStep_Step"><path codeLine="35" d="M539.234,96 C548.123,96 557.012,96 565.901,96 " fill="none" id="UserStep-backto-Step" style="stroke:#181818;stroke-width:1.0;"/><line style="stroke:#181818;stroke-width:1.0;" x1="539.07" x2="531.07" y1="96" y2="104"/><line style="stroke:#181818;stroke-width:1.0;" x1="539.07" x2="531.07" y1="96" y2="88"/><line style="stroke:#181818;stroke-width:1.0;" x1="539.07" x2="531.07" y1="96" y2="96"/></g><!--link Department to User--><g id="link_Department_User"><path codeLine="36" d="M135.131,127.7787 C144.231,130.1439 153.331,131.5963 162.431,132.1358 " fill="none" id="Department-to-User" style="stroke:#181818;stroke-width:1.0;"/><line style="stroke:#181818;stroke-width:1.0;" x1="162.4326" x2="170.429" y1="132.135" y2="124.3786"/><line style="stroke:#181818;stroke-width:1.0;" x1="162.4326" x2="170.429" y1="132.135" y2="140.3714"/><line style="stroke:#181818;stroke-width:1.0;" x1="162.4326" x2="170.429" y1="132.135" y2="132.375"/></g><!--reverse link Department to User--><g id="link_Department_User"><path codeLine="37" d="M143.128,62.378 C152.228,60.547 161.328,59.63 170.429,59.625 " fill="none" id="Department-backto-User" style="stroke:#181818;stroke-width:1.0;"/><line style="stroke:#181818;stroke-width:1.0;" x1="142.9265" x2="135.131" y1="62.4239" y2="72.0165"/><line style="stroke:#181818;stroke-width:1.0;" x1="142.9265" x2="135.131" y1="62.4239" y2="56.4255"/><line style="stroke:#181818;stroke-width:1.0;" x1="142.9265" x2="135.131" y1="62.4239" y2="64.221"/></g><!--SRC=[TL0n3iCW3Dnv1H_81p9dRPUetTtWfbG986E6AihVIo15f5LPu0wVVJuqhFabUqOd5o7ZqIfT1cPC3nK8M5kJWBV4LvW2YbK8pDeE7H3F4VtfyA0J61YHMddnI9LqWqTHY4mHtZLvFd_G11LGPMXR6KXVJWySA9SzhJRQZ1rmnjRSB92ALC_0mNzv-OrXyxFRJll7WZQbjMU3fVLWPpSXeohC8QoqQhEKCQBCMvlSiCfnhwkfMBLHRm00]--></g></svg>