<?xml version="1.0" encoding="us-ascii" standalone="no"?><svg xmlns="http://www.w3.org/2000/svg" xmlns:xlink="http://www.w3.org/1999/xlink" contentStyleType="text/css" height="110px" preserveAspectRatio="none" style="width:240px;height:110px;background:#FFFFFF;" version="1.1" viewBox="0 0 240 110" width="240px" zoomAndPan="magnify"><defs/><g><!--class Department--><g id="elem_Department"><rect codeLine="1" fill="#F1F1F1" height="96.8906" id="Department" rx="2.5" ry="2.5" style="stroke:#181818;stroke-width:0.5;" width="128" x="7" y="7"/><ellipse cx="24.7" cy="23" fill="#ADD1B2" rx="11" ry="11" style="stroke:#181818;stroke-width:1.0;"/><path d="M23.4969,23.875 L24.95,23.875 L24.95,23.9844 C24.95,24.3906 24.9813,24.5469 25.0594,24.7031 C25.2156,24.9531 25.4969,25.1094 25.7938,25.1094 C26.0438,25.1094 26.3094,24.9688 26.4656,24.75 C26.5906,24.5938 26.6219,24.4375 26.6219,23.9844 L26.6219,22.0625 C26.6219,21.9063 26.6219,21.8594 26.6063,21.7031 C26.5438,21.2344 26.2313,20.9219 25.7781,20.9219 C25.5281,20.9219 25.2625,21.0625 25.0906,21.2813 C24.9813,21.4531 24.95,21.6094 24.95,22.0625 L24.95,22.1875 L23.4969,22.1875 L23.4969,19.7813 L27.4813,19.7813 L27.4813,20.6406 C27.4813,21.0469 27.5125,21.2188 27.5906,21.375 C27.7625,21.625 28.0438,21.7813 28.325,21.7813 C28.5906,21.7813 28.8563,21.6406 29.0281,21.4219 C29.1375,21.25 29.1688,21.1094 29.1688,20.6406 L29.1688,18.0938 L21.5438,18.0938 C21.1063,18.0938 20.9813,18.1094 20.825,18.2031 C20.575,18.3594 20.4188,18.6563 20.4188,18.9375 C20.4188,19.2188 20.5594,19.4688 20.7781,19.6406 C20.9344,19.75 21.1219,19.7813 21.5438,19.7813 L21.7938,19.7813 L21.7938,26.2969 L21.5438,26.2969 C21.1375,26.2969 20.9813,26.3125 20.825,26.4219 C20.575,26.5938 20.4188,26.8594 20.4188,27.1563 C20.4188,27.4219 20.5594,27.6719 20.7781,27.8281 C20.9188,27.9531 21.1531,28 21.5438,28 L29.5438,28 L29.5438,25.4219 C29.5438,24.9844 29.5125,24.8438 29.4344,24.6875 C29.2625,24.4375 28.9813,24.2813 28.7,24.2813 C28.4344,24.2813 28.1688,24.3906 27.9969,24.6406 C27.8875,24.7969 27.8563,24.9375 27.8563,25.4219 L27.8563,26.2969 L23.4969,26.2969 L23.4969,23.875 Z " fill="#000000"/><text fill="#000000" font-family="sans-serif" font-size="14" lengthAdjust="spacing" textLength="90" x="39.3" y="27.8467">Department</text><line style="stroke:#181818;stroke-width:0.5;" x1="8" x2="134" y1="39" y2="39"/><text fill="#000000" font-family="sans-serif" font-size="14" lengthAdjust="spacing" textLength="13" x="13" y="55.9951">id</text><text fill="#000000" font-family="sans-serif" font-size="14" lengthAdjust="spacing" textLength="40" x="13" y="72.292">name</text><text fill="#000000" font-family="sans-serif" font-size="14" lengthAdjust="spacing" textLength="116" x="13" y="88.5889">hrManager: User</text><line style="stroke:#181818;stroke-width:0.5;" x1="8" x2="134" y1="95.8906" y2="95.8906"/></g><!--class User--><g id="elem_User"><rect codeLine="7" fill="#F1F1F1" height="48" id="User" rx="2.5" ry="2.5" style="stroke:#181818;stroke-width:0.5;" width="63" x="170.5" y="31.5"/><ellipse cx="185.5" cy="47.5" fill="#ADD1B2" rx="11" ry="11" style="stroke:#181818;stroke-width:1.0;"/><path d="M184.2969,48.375 L185.75,48.375 L185.75,48.4844 C185.75,48.8906 185.7813,49.0469 185.8594,49.2031 C186.0156,49.4531 186.2969,49.6094 186.5938,49.6094 C186.8438,49.6094 187.1094,49.4688 187.2656,49.25 C187.3906,49.0938 187.4219,48.9375 187.4219,48.4844 L187.4219,46.5625 C187.4219,46.4063 187.4219,46.3594 187.4063,46.2031 C187.3438,45.7344 187.0313,45.4219 186.5781,45.4219 C186.3281,45.4219 186.0625,45.5625 185.8906,45.7813 C185.7813,45.9531 185.75,46.1094 185.75,46.5625 L185.75,46.6875 L184.2969,46.6875 L184.2969,44.2813 L188.2813,44.2813 L188.2813,45.1406 C188.2813,45.5469 188.3125,45.7188 188.3906,45.875 C188.5625,46.125 188.8438,46.2813 189.125,46.2813 C189.3906,46.2813 189.6563,46.1406 189.8281,45.9219 C189.9375,45.75 189.9688,45.6094 189.9688,45.1406 L189.9688,42.5938 L182.3438,42.5938 C181.9063,42.5938 181.7813,42.6094 181.625,42.7031 C181.375,42.8594 181.2188,43.1563 181.2188,43.4375 C181.2188,43.7188 181.3594,43.9688 181.5781,44.1406 C181.7344,44.25 181.9219,44.2813 182.3438,44.2813 L182.5938,44.2813 L182.5938,50.7969 L182.3438,50.7969 C181.9375,50.7969 181.7813,50.8125 181.625,50.9219 C181.375,51.0938 181.2188,51.3594 181.2188,51.6563 C181.2188,51.9219 181.3594,52.1719 181.5781,52.3281 C181.7188,52.4531 181.9531,52.5 182.3438,52.5 L190.3438,52.5 L190.3438,49.9219 C190.3438,49.4844 190.3125,49.3438 190.2344,49.1875 C190.0625,48.9375 189.7813,48.7813 189.5,48.7813 C189.2344,48.7813 188.9688,48.8906 188.7969,49.1406 C188.6875,49.2969 188.6563,49.4375 188.6563,49.9219 L188.6563,50.7969 L184.2969,50.7969 L184.2969,48.375 Z " fill="#000000"/><text fill="#000000" font-family="sans-serif" font-size="14" lengthAdjust="spacing" textLength="31" x="199.5" y="52.3467">User</text><line style="stroke:#181818;stroke-width:0.5;" x1="171.5" x2="232.5" y1="63.5" y2="63.5"/><line style="stroke:#181818;stroke-width:0.5;" x1="171.5" x2="232.5" y1="71.5" y2="71.5"/></g><!--reverse link Department to User--><g id="link_Department_User"><path codeLine="10" d="M143.474,55.5 C152.462,55.5 161.449,55.5 170.436,55.5 " fill="none" id="Department-backto-User" style="stroke:#181818;stroke-width:1.0;"/><line style="stroke:#181818;stroke-width:1.0;" x1="143.221" x2="135.221" y1="55.5" y2="63.5"/><line style="stroke:#181818;stroke-width:1.0;" x1="143.221" x2="135.221" y1="55.5" y2="47.5"/><line style="stroke:#181818;stroke-width:1.0;" x1="143.221" x2="135.221" y1="55.5" y2="55.5"/></g><!--SRC=[IyqhoIofL719BKWiAibDpIjHgEPI08BC532LbvYR2cPa5FacvYMcfnPPAOGMfnPnrN9nfKAqWhX0JK0194DgTS7Y0000]--></g></svg>