<?xml version="1.0" encoding="us-ascii" standalone="no"?><svg xmlns="http://www.w3.org/2000/svg" xmlns:xlink="http://www.w3.org/1999/xlink" contentStyleType="text/css" height="192px" preserveAspectRatio="none" style="width:1169px;height:192px;background:#FFFFFF;" version="1.1" viewBox="0 0 1169 192" width="1169px" zoomAndPan="magnify"><defs/><g><!--class Step--><g id="elem_Step"><rect codeLine="1" fill="#F1F1F1" height="113.1875" id="Step" rx="2.5" ry="2.5" style="stroke:#181818;stroke-width:0.5;" width="77" x="1085" y="39.6"/><ellipse cx="1105.85" cy="55.6" fill="#ADD1B2" rx="11" ry="11" style="stroke:#181818;stroke-width:1.0;"/><path d="M1109.9594,61.6 L1102.2406,61.6 L1102.2406,49.2094 L1109.9594,49.2094 L1109.9594,51.3656 L1104.6938,51.3656 L1104.6938,54.0375 L1109.4594,54.0375 L1109.4594,56.1937 L1104.6938,56.1937 L1104.6938,59.4437 L1109.9594,59.4437 L1109.9594,61.6 Z " fill="#000000"/><text fill="#000000" font-family="sans-serif" font-size="14" lengthAdjust="spacing" textLength="32" x="1121.15" y="60.4467">Step</text><line style="stroke:#181818;stroke-width:0.5;" x1="1086" x2="1161" y1="71.6" y2="71.6"/><text fill="#000000" font-family="sans-serif" font-size="14" lengthAdjust="spacing" textLength="12" x="1091" y="88.5951">id</text><text fill="#000000" font-family="sans-serif" font-size="14" lengthAdjust="spacing" textLength="39" x="1091" y="104.892">name</text><text fill="#000000" font-family="sans-serif" font-size="14" lengthAdjust="spacing" textLength="57" x="1091" y="121.1889">duration</text><text fill="#000000" font-family="sans-serif" font-size="14" lengthAdjust="spacing" textLength="65" x="1091" y="137.4857">sortValue</text><line style="stroke:#181818;stroke-width:0.5;" x1="1086" x2="1161" y1="144.7875" y2="144.7875"/></g><!--class Department--><g id="elem_Department"><rect codeLine="8" fill="#F1F1F1" height="96.8906" id="Department" rx="2.5" ry="2.5" style="stroke:#181818;stroke-width:0.5;" width="127" x="549" y="47.75"/><ellipse cx="569.4" cy="63.75" fill="#ADD1B2" rx="11" ry="11" style="stroke:#181818;stroke-width:1.0;"/><path d="M573.5094,69.75 L565.7906,69.75 L565.7906,57.3594 L573.5094,57.3594 L573.5094,59.5156 L568.2438,59.5156 L568.2438,62.1875 L573.0094,62.1875 L573.0094,64.3438 L568.2438,64.3438 L568.2438,67.5938 L573.5094,67.5938 L573.5094,69.75 Z " fill="#000000"/><text fill="#000000" font-family="sans-serif" font-size="14" lengthAdjust="spacing" textLength="83" x="584.6" y="68.5967">Department</text><line style="stroke:#181818;stroke-width:0.5;" x1="550" x2="675" y1="79.75" y2="79.75"/><text fill="#000000" font-family="sans-serif" font-size="14" lengthAdjust="spacing" textLength="12" x="555" y="96.7451">id</text><text fill="#000000" font-family="sans-serif" font-size="14" lengthAdjust="spacing" textLength="39" x="555" y="113.042">name</text><text fill="#000000" font-family="sans-serif" font-size="14" lengthAdjust="spacing" textLength="115" x="555" y="129.3389">hrManager: User</text><line style="stroke:#181818;stroke-width:0.5;" x1="550" x2="675" y1="136.6406" y2="136.6406"/></g><!--class WebdavDocumentWrapper--><g id="elem_WebdavDocumentWrapper"><rect codeLine="14" fill="#F1F1F1" height="145.7813" id="WebdavDocumentWrapper" rx="2.5" ry="2.5" style="stroke:#181818;stroke-width:0.5;" width="275" x="7" y="23.3"/><ellipse cx="47.65" cy="39.3" fill="#ADD1B2" rx="11" ry="11" style="stroke:#181818;stroke-width:1.0;"/><path d="M51.7594,45.3 L44.0406,45.3 L44.0406,32.9094 L51.7594,32.9094 L51.7594,35.0656 L46.4938,35.0656 L46.4938,37.7375 L51.2594,37.7375 L51.2594,39.8937 L46.4938,39.8937 L46.4938,43.1437 L51.7594,43.1437 L51.7594,45.3 Z " fill="#000000"/><text fill="#000000" font-family="sans-serif" font-size="14" lengthAdjust="spacing" textLength="186" x="67.35" y="44.1467">WebdavDocumentWrapper</text><line style="stroke:#181818;stroke-width:0.5;" x1="8" x2="281" y1="55.3" y2="55.3"/><text fill="#000000" font-family="sans-serif" font-size="14" lengthAdjust="spacing" textLength="12" x="13" y="72.2951">id</text><text fill="#000000" font-family="sans-serif" font-size="14" lengthAdjust="spacing" textLength="77" x="13" y="88.592">description</text><text fill="#000000" font-family="sans-serif" font-size="14" lengthAdjust="spacing" textLength="263" x="13" y="104.8889">webdavDocument: WebdavDocument</text><text fill="#000000" font-family="sans-serif" font-size="14" lengthAdjust="spacing" textLength="99" x="13" y="121.1857">lastModifiedBy</text><text fill="#000000" font-family="sans-serif" font-size="14" lengthAdjust="spacing" textLength="115" x="13" y="137.4826">lastModifiedDate</text><text fill="#000000" font-family="sans-serif" font-size="14" lengthAdjust="spacing" textLength="146" x="13" y="153.7795">folder: WebdavFolder</text><line style="stroke:#181818;stroke-width:0.5;" x1="8" x2="281" y1="161.0812" y2="161.0812"/></g><!--class WebdavFolder--><g id="elem_WebdavFolder"><rect codeLine="23" fill="#F1F1F1" height="129.4844" id="WebdavFolder" rx="2.5" ry="2.5" style="stroke:#181818;stroke-width:0.5;" width="197" x="317" y="31.45"/><ellipse cx="362.25" cy="47.45" fill="#ADD1B2" rx="11" ry="11" style="stroke:#181818;stroke-width:1.0;"/><path d="M366.3594,53.45 L358.6406,53.45 L358.6406,41.0594 L366.3594,41.0594 L366.3594,43.2156 L361.0938,43.2156 L361.0938,45.8875 L365.8594,45.8875 L365.8594,48.0437 L361.0938,48.0437 L361.0938,51.2937 L366.3594,51.2937 L366.3594,53.45 Z " fill="#000000"/><text fill="#000000" font-family="sans-serif" font-size="14" lengthAdjust="spacing" textLength="98" x="382.75" y="52.2967">WebdavFolder</text><line style="stroke:#181818;stroke-width:0.5;" x1="318" x2="513" y1="63.45" y2="63.45"/><text fill="#000000" font-family="sans-serif" font-size="14" lengthAdjust="spacing" textLength="12" x="323" y="80.4451">id</text><text fill="#000000" font-family="sans-serif" font-size="14" lengthAdjust="spacing" textLength="39" x="323" y="96.742">name</text><text fill="#000000" font-family="sans-serif" font-size="14" lengthAdjust="spacing" textLength="185" x="323" y="113.0389">classification: Classification</text><text fill="#000000" font-family="sans-serif" font-size="14" lengthAdjust="spacing" textLength="173" x="323" y="129.3357">department: Department</text><text fill="#000000" font-family="sans-serif" font-size="14" lengthAdjust="spacing" textLength="152" x="323" y="145.6326">parent: WebdavFolder</text><line style="stroke:#181818;stroke-width:0.5;" x1="318" x2="513" y1="152.9344" y2="152.9344"/></g><!--class User--><g id="elem_User"><rect codeLine="31" fill="#F1F1F1" height="178.375" id="User" rx="2.5" ry="2.5" style="stroke:#181818;stroke-width:0.5;" width="185" x="711" y="7"/><ellipse cx="783.25" cy="23" fill="#ADD1B2" rx="11" ry="11" style="stroke:#181818;stroke-width:1.0;"/><path d="M787.3594,29 L779.6406,29 L779.6406,16.6094 L787.3594,16.6094 L787.3594,18.7656 L782.0938,18.7656 L782.0938,21.4375 L786.8594,21.4375 L786.8594,23.5938 L782.0938,23.5938 L782.0938,26.8438 L787.3594,26.8438 L787.3594,29 Z " fill="#000000"/><text fill="#000000" font-family="sans-serif" font-size="14" lengthAdjust="spacing" textLength="32" x="803.75" y="27.8467">User</text><line style="stroke:#181818;stroke-width:0.5;" x1="712" x2="895" y1="39" y2="39"/><text fill="#000000" font-family="sans-serif" font-size="14" lengthAdjust="spacing" textLength="12" x="717" y="55.9951">id</text><text fill="#000000" font-family="sans-serif" font-size="14" lengthAdjust="spacing" textLength="70" x="717" y="72.292">username</text><text fill="#000000" font-family="sans-serif" font-size="14" lengthAdjust="spacing" textLength="65" x="717" y="88.5889">firstName</text><text fill="#000000" font-family="sans-serif" font-size="14" lengthAdjust="spacing" textLength="64" x="717" y="104.8857">lastName</text><text fill="#000000" font-family="sans-serif" font-size="14" lengthAdjust="spacing" textLength="173" x="717" y="121.1826">department: Department</text><text fill="#000000" font-family="sans-serif" font-size="14" lengthAdjust="spacing" textLength="48" x="717" y="137.4795">picture</text><text fill="#000000" font-family="sans-serif" font-size="14" lengthAdjust="spacing" textLength="78" x="717" y="153.7764">joiningDate</text><text fill="#000000" font-family="sans-serif" font-size="14" lengthAdjust="spacing" textLength="123" x="717" y="170.0732">onboardingStatus</text><line style="stroke:#181818;stroke-width:0.5;" x1="712" x2="895" y1="177.375" y2="177.375"/></g><!--class UserStep--><g id="elem_UserStep"><rect codeLine="42" fill="#F1F1F1" height="145.7813" id="UserStep" rx="2.5" ry="2.5" style="stroke:#181818;stroke-width:0.5;" width="119" x="931" y="23.3"/><ellipse cx="956.35" cy="39.3" fill="#ADD1B2" rx="11" ry="11" style="stroke:#181818;stroke-width:1.0;"/><path d="M960.4594,45.3 L952.7406,45.3 L952.7406,32.9094 L960.4594,32.9094 L960.4594,35.0656 L955.1938,35.0656 L955.1938,37.7375 L959.9594,37.7375 L959.9594,39.8937 L955.1938,39.8937 L955.1938,43.1437 L960.4594,43.1437 L960.4594,45.3 Z " fill="#000000"/><text fill="#000000" font-family="sans-serif" font-size="14" lengthAdjust="spacing" textLength="64" x="972.65" y="44.1467">UserStep</text><line style="stroke:#181818;stroke-width:0.5;" x1="932" x2="1049" y1="55.3" y2="55.3"/><text fill="#000000" font-family="sans-serif" font-size="14" lengthAdjust="spacing" textLength="12" x="937" y="72.2951">id</text><text fill="#000000" font-family="sans-serif" font-size="14" lengthAdjust="spacing" textLength="72" x="937" y="88.592">user: User</text><text fill="#000000" font-family="sans-serif" font-size="14" lengthAdjust="spacing" textLength="72" x="937" y="104.8889">step: Step</text><text fill="#000000" font-family="sans-serif" font-size="14" lengthAdjust="spacing" textLength="60" x="937" y="121.1857">dueDate</text><text fill="#000000" font-family="sans-serif" font-size="14" lengthAdjust="spacing" textLength="107" x="937" y="137.4826">completedDate</text><text fill="#000000" font-family="sans-serif" font-size="14" lengthAdjust="spacing" textLength="65" x="937" y="153.7795">sortValue</text><line style="stroke:#181818;stroke-width:0.5;" x1="932" x2="1049" y1="161.0812" y2="161.0812"/></g><!--link User to UserStep--><g id="link_User_UserStep"><path codeLine="51" d="M896.27,96.19 C907.68,96.19 911.09,96.19 922.5,96.19 " fill="none" id="User-to-UserStep" style="stroke:#181818;stroke-width:1.0;"/><line style="stroke:#181818;stroke-width:1.0;" x1="922.5" x2="930.5" y1="96.19" y2="88.19"/><line style="stroke:#181818;stroke-width:1.0;" x1="922.5" x2="930.5" y1="96.19" y2="104.19"/><line style="stroke:#181818;stroke-width:1.0;" x1="922.5" x2="930.5" y1="96.19" y2="96.19"/></g><!--reverse link UserStep to Step--><g id="link_UserStep_Step"><path codeLine="52" d="M1058.25,96.19 C1069.69,96.19 1073.14,96.19 1084.58,96.19 " fill="none" id="UserStep-backto-Step" style="stroke:#181818;stroke-width:1.0;"/><line style="stroke:#181818;stroke-width:1.0;" x1="1058.25" x2="1050.25" y1="96.19" y2="104.19"/><line style="stroke:#181818;stroke-width:1.0;" x1="1058.25" x2="1050.25" y1="96.19" y2="88.19"/><line style="stroke:#181818;stroke-width:1.0;" x1="1058.25" x2="1050.25" y1="96.19" y2="96.19"/></g><!--reverse link WebdavFolder to Department--><g id="link_WebdavFolder_Department"><path codeLine="53" d="M522.38,96.19 C533.88,96.19 537.38,96.19 548.88,96.19 " fill="none" id="WebdavFolder-backto-Department" style="stroke:#181818;stroke-width:1.0;"/><line style="stroke:#181818;stroke-width:1.0;" x1="522.38" x2="514.38" y1="96.19" y2="104.19"/><line style="stroke:#181818;stroke-width:1.0;" x1="522.38" x2="514.38" y1="96.19" y2="88.19"/><line style="stroke:#181818;stroke-width:1.0;" x1="522.38" x2="514.38" y1="96.19" y2="96.19"/></g><!--reverse link WebdavDocumentWrapper to WebdavFolder--><g id="link_WebdavDocumentWrapper_WebdavFolder"><path codeLine="54" d="M290.38,96.19 C301.82,96.19 305.26,96.19 316.7,96.19 " fill="none" id="WebdavDocumentWrapper-backto-WebdavFolder" style="stroke:#181818;stroke-width:1.0;"/><line style="stroke:#181818;stroke-width:1.0;" x1="290.38" x2="282.38" y1="96.19" y2="104.19"/><line style="stroke:#181818;stroke-width:1.0;" x1="290.38" x2="282.38" y1="96.19" y2="88.19"/><line style="stroke:#181818;stroke-width:1.0;" x1="290.38" x2="282.38" y1="96.19" y2="96.19"/></g><!--link Department to User--><g id="link_Department_User"><path codeLine="55" d="M676.29,128.52 C687.72,131.41 691.1516,132.8909 702.5816,132.6609 " fill="none" id="Department-to-User" style="stroke:#181818;stroke-width:1.0;"/><line style="stroke:#181818;stroke-width:1.0;" x1="702.5816" x2="710.58" y1="132.6609" y2="124.5016"/><line style="stroke:#181818;stroke-width:1.0;" x1="702.5816" x2="710.58" y1="132.6609" y2="140.4984"/><line style="stroke:#181818;stroke-width:1.0;" x1="702.5816" x2="710.58" y1="132.6609" y2="132.5"/></g><!--reverse link Department to User--><g id="link_Department_User"><path codeLine="56" d="M684.0475,61.9053 C695.4775,59.0253 699.15,59.65 710.58,59.88 " fill="none" id="Department-backto-User" style="stroke:#181818;stroke-width:1.0;"/><line style="stroke:#181818;stroke-width:1.0;" x1="684.0475" x2="676.29" y1="61.9053" y2="71.6175"/><line style="stroke:#181818;stroke-width:1.0;" x1="684.0475" x2="676.29" y1="61.9053" y2="56.1025"/><line style="stroke:#181818;stroke-width:1.0;" x1="684.0475" x2="676.29" y1="61.9053" y2="63.86"/></g><!--SRC=[VLAxRiCm3Dpz5Vw1_837DkYMBa6RcP7eL8Kj2HIL8WZoxzN34QIugHVxpjGTIHrgLdpfzuosltPzU9HCBmqpfW_f2LWPdO0pn9ymUUnkNOVvx1Oj4Cy1FL7ueXreE24D_OT3geuUy2ZXl3N2n-C70ckHMXM9Jf2ofOEVviZm895A9d2yCrAD2kNBPKLjWNDVevbaR2fBl2MqQYxJJoOJGTS5KP4sDFIl3Lxwlszdg3QLVWLGZR3oZxjgVNrWYlUeoF7x7SK12_ZFKmdsbCk-ZT9Adye-Z3uQ81ceFGDxzz3BEYEnd-LEKpX2mP2Yj0G7YxGmivsGg-KtIKgZRgx5fYj-jqqMR2uZaDLOVuSer3HxhLAw6DLKg8xKBm00]--></g></svg>