<?xml version="1.0" encoding="us-ascii" standalone="no"?><svg xmlns="http://www.w3.org/2000/svg" xmlns:xlink="http://www.w3.org/1999/xlink" contentStyleType="text/css" height="192px" preserveAspectRatio="none" style="width:937px;height:192px;background:#FFFFFF;" version="1.1" viewBox="0 0 937 192" width="937px" zoomAndPan="magnify"><defs/><g><!--class Step--><g id="elem_Step"><rect codeLine="1" fill="#F1F1F1" height="113.1875" id="Step" rx="2.5" ry="2.5" style="stroke:#181818;stroke-width:0.5;" width="77" x="853" y="39.6"/><ellipse cx="873.85" cy="55.6" fill="#ADD1B2" rx="11" ry="11" style="stroke:#181818;stroke-width:1.0;"/><path d="M877.9594,61.6 L870.2406,61.6 L870.2406,49.2094 L877.9594,49.2094 L877.9594,51.3656 L872.6938,51.3656 L872.6938,54.0375 L877.4594,54.0375 L877.4594,56.1937 L872.6938,56.1937 L872.6938,59.4437 L877.9594,59.4437 L877.9594,61.6 Z " fill="#000000"/><text fill="#000000" font-family="sans-serif" font-size="14" lengthAdjust="spacing" textLength="32" x="889.15" y="60.4467">Step</text><line style="stroke:#181818;stroke-width:0.5;" x1="854" x2="929" y1="71.6" y2="71.6"/><text fill="#000000" font-family="sans-serif" font-size="14" lengthAdjust="spacing" textLength="12" x="859" y="88.5951">id</text><text fill="#000000" font-family="sans-serif" font-size="14" lengthAdjust="spacing" textLength="39" x="859" y="104.892">name</text><text fill="#000000" font-family="sans-serif" font-size="14" lengthAdjust="spacing" textLength="57" x="859" y="121.1889">duration</text><text fill="#000000" font-family="sans-serif" font-size="14" lengthAdjust="spacing" textLength="65" x="859" y="137.4857">sortValue</text><line style="stroke:#181818;stroke-width:0.5;" x1="854" x2="929" y1="144.7875" y2="144.7875"/></g><!--class Department--><g id="elem_Department"><rect codeLine="8" fill="#F1F1F1" height="96.8906" id="Department" rx="2.5" ry="2.5" style="stroke:#181818;stroke-width:0.5;" width="127" x="317" y="47.75"/><ellipse cx="337.4" cy="63.75" fill="#ADD1B2" rx="11" ry="11" style="stroke:#181818;stroke-width:1.0;"/><path d="M341.5094,69.75 L333.7906,69.75 L333.7906,57.3594 L341.5094,57.3594 L341.5094,59.5156 L336.2438,59.5156 L336.2438,62.1875 L341.0094,62.1875 L341.0094,64.3438 L336.2438,64.3438 L336.2438,67.5938 L341.5094,67.5938 L341.5094,69.75 Z " fill="#000000"/><text fill="#000000" font-family="sans-serif" font-size="14" lengthAdjust="spacing" textLength="83" x="352.6" y="68.5967">Department</text><line style="stroke:#181818;stroke-width:0.5;" x1="318" x2="443" y1="79.75" y2="79.75"/><text fill="#000000" font-family="sans-serif" font-size="14" lengthAdjust="spacing" textLength="12" x="323" y="96.7451">id</text><text fill="#000000" font-family="sans-serif" font-size="14" lengthAdjust="spacing" textLength="39" x="323" y="113.042">name</text><text fill="#000000" font-family="sans-serif" font-size="14" lengthAdjust="spacing" textLength="115" x="323" y="129.3389">hrManager: User</text><line style="stroke:#181818;stroke-width:0.5;" x1="318" x2="443" y1="136.6406" y2="136.6406"/></g><!--class WebdavDocumentWrapper--><g id="elem_WebdavDocumentWrapper"><rect codeLine="14" fill="#F1F1F1" height="113.1875" id="WebdavDocumentWrapper" rx="2.5" ry="2.5" style="stroke:#181818;stroke-width:0.5;" width="275" x="7" y="39.6"/><ellipse cx="47.65" cy="55.6" fill="#ADD1B2" rx="11" ry="11" style="stroke:#181818;stroke-width:1.0;"/><path d="M51.7594,61.6 L44.0406,61.6 L44.0406,49.2094 L51.7594,49.2094 L51.7594,51.3656 L46.4938,51.3656 L46.4938,54.0375 L51.2594,54.0375 L51.2594,56.1937 L46.4938,56.1937 L46.4938,59.4437 L51.7594,59.4437 L51.7594,61.6 Z " fill="#000000"/><text fill="#000000" font-family="sans-serif" font-size="14" lengthAdjust="spacing" textLength="186" x="67.35" y="60.4467">WebdavDocumentWrapper</text><line style="stroke:#181818;stroke-width:0.5;" x1="8" x2="281" y1="71.6" y2="71.6"/><text fill="#000000" font-family="sans-serif" font-size="14" lengthAdjust="spacing" textLength="12" x="13" y="88.5951">id</text><text fill="#000000" font-family="sans-serif" font-size="14" lengthAdjust="spacing" textLength="77" x="13" y="104.892">description</text><text fill="#000000" font-family="sans-serif" font-size="14" lengthAdjust="spacing" textLength="263" x="13" y="121.1889">webdavDocument: WebdavDocument</text><text fill="#000000" font-family="sans-serif" font-size="14" lengthAdjust="spacing" textLength="173" x="13" y="137.4857">department: Department</text><line style="stroke:#181818;stroke-width:0.5;" x1="8" x2="281" y1="144.7875" y2="144.7875"/></g><!--class User--><g id="elem_User"><rect codeLine="21" fill="#F1F1F1" height="178.375" id="User" rx="2.5" ry="2.5" style="stroke:#181818;stroke-width:0.5;" width="185" x="479" y="7"/><ellipse cx="551.25" cy="23" fill="#ADD1B2" rx="11" ry="11" style="stroke:#181818;stroke-width:1.0;"/><path d="M555.3594,29 L547.6406,29 L547.6406,16.6094 L555.3594,16.6094 L555.3594,18.7656 L550.0938,18.7656 L550.0938,21.4375 L554.8594,21.4375 L554.8594,23.5938 L550.0938,23.5938 L550.0938,26.8438 L555.3594,26.8438 L555.3594,29 Z " fill="#000000"/><text fill="#000000" font-family="sans-serif" font-size="14" lengthAdjust="spacing" textLength="32" x="571.75" y="27.8467">User</text><line style="stroke:#181818;stroke-width:0.5;" x1="480" x2="663" y1="39" y2="39"/><text fill="#000000" font-family="sans-serif" font-size="14" lengthAdjust="spacing" textLength="12" x="485" y="55.9951">id</text><text fill="#000000" font-family="sans-serif" font-size="14" lengthAdjust="spacing" textLength="70" x="485" y="72.292">username</text><text fill="#000000" font-family="sans-serif" font-size="14" lengthAdjust="spacing" textLength="65" x="485" y="88.5889">firstName</text><text fill="#000000" font-family="sans-serif" font-size="14" lengthAdjust="spacing" textLength="64" x="485" y="104.8857">lastName</text><text fill="#000000" font-family="sans-serif" font-size="14" lengthAdjust="spacing" textLength="173" x="485" y="121.1826">department: Department</text><text fill="#000000" font-family="sans-serif" font-size="14" lengthAdjust="spacing" textLength="48" x="485" y="137.4795">picture</text><text fill="#000000" font-family="sans-serif" font-size="14" lengthAdjust="spacing" textLength="78" x="485" y="153.7764">joiningDate</text><text fill="#000000" font-family="sans-serif" font-size="14" lengthAdjust="spacing" textLength="123" x="485" y="170.0732">onboardingStatus</text><line style="stroke:#181818;stroke-width:0.5;" x1="480" x2="663" y1="177.375" y2="177.375"/></g><!--class UserStep--><g id="elem_UserStep"><rect codeLine="32" fill="#F1F1F1" height="145.7813" id="UserStep" rx="2.5" ry="2.5" style="stroke:#181818;stroke-width:0.5;" width="119" x="699" y="23.3"/><ellipse cx="724.35" cy="39.3" fill="#ADD1B2" rx="11" ry="11" style="stroke:#181818;stroke-width:1.0;"/><path d="M728.4594,45.3 L720.7406,45.3 L720.7406,32.9094 L728.4594,32.9094 L728.4594,35.0656 L723.1938,35.0656 L723.1938,37.7375 L727.9594,37.7375 L727.9594,39.8937 L723.1938,39.8937 L723.1938,43.1437 L728.4594,43.1437 L728.4594,45.3 Z " fill="#000000"/><text fill="#000000" font-family="sans-serif" font-size="14" lengthAdjust="spacing" textLength="64" x="740.65" y="44.1467">UserStep</text><line style="stroke:#181818;stroke-width:0.5;" x1="700" x2="817" y1="55.3" y2="55.3"/><text fill="#000000" font-family="sans-serif" font-size="14" lengthAdjust="spacing" textLength="12" x="705" y="72.2951">id</text><text fill="#000000" font-family="sans-serif" font-size="14" lengthAdjust="spacing" textLength="72" x="705" y="88.592">user: User</text><text fill="#000000" font-family="sans-serif" font-size="14" lengthAdjust="spacing" textLength="72" x="705" y="104.8889">step: Step</text><text fill="#000000" font-family="sans-serif" font-size="14" lengthAdjust="spacing" textLength="60" x="705" y="121.1857">dueDate</text><text fill="#000000" font-family="sans-serif" font-size="14" lengthAdjust="spacing" textLength="107" x="705" y="137.4826">completedDate</text><text fill="#000000" font-family="sans-serif" font-size="14" lengthAdjust="spacing" textLength="65" x="705" y="153.7795">sortValue</text><line style="stroke:#181818;stroke-width:0.5;" x1="700" x2="817" y1="161.0812" y2="161.0812"/></g><!--link User to UserStep--><g id="link_User_UserStep"><path codeLine="41" d="M664.27,96.19 C675.68,96.19 679.09,96.19 690.5,96.19 " fill="none" id="User-to-UserStep" style="stroke:#181818;stroke-width:1.0;"/><line style="stroke:#181818;stroke-width:1.0;" x1="690.5" x2="698.5" y1="96.19" y2="88.19"/><line style="stroke:#181818;stroke-width:1.0;" x1="690.5" x2="698.5" y1="96.19" y2="104.19"/><line style="stroke:#181818;stroke-width:1.0;" x1="690.5" x2="698.5" y1="96.19" y2="96.19"/></g><!--reverse link UserStep to Step--><g id="link_UserStep_Step"><path codeLine="42" d="M826.25,96.19 C837.69,96.19 841.14,96.19 852.58,96.19 " fill="none" id="UserStep-backto-Step" style="stroke:#181818;stroke-width:1.0;"/><line style="stroke:#181818;stroke-width:1.0;" x1="826.25" x2="818.25" y1="96.19" y2="104.19"/><line style="stroke:#181818;stroke-width:1.0;" x1="826.25" x2="818.25" y1="96.19" y2="88.19"/><line style="stroke:#181818;stroke-width:1.0;" x1="826.25" x2="818.25" y1="96.19" y2="96.19"/></g><!--reverse link WebdavDocumentWrapper to Department--><g id="link_WebdavDocumentWrapper_Department"><path codeLine="43" d="M290.32,96.19 C301.83,96.19 305.33,96.19 316.84,96.19 " fill="none" id="WebdavDocumentWrapper-backto-Department" style="stroke:#181818;stroke-width:1.0;"/><line style="stroke:#181818;stroke-width:1.0;" x1="290.32" x2="282.32" y1="96.19" y2="104.19"/><line style="stroke:#181818;stroke-width:1.0;" x1="290.32" x2="282.32" y1="96.19" y2="88.19"/><line style="stroke:#181818;stroke-width:1.0;" x1="290.32" x2="282.32" y1="96.19" y2="96.19"/></g><!--link Department to User--><g id="link_Department_User"><path codeLine="44" d="M444.29,128.52 C455.72,131.41 459.1516,132.8909 470.5816,132.6609 " fill="none" id="Department-to-User" style="stroke:#181818;stroke-width:1.0;"/><line style="stroke:#181818;stroke-width:1.0;" x1="470.5816" x2="478.58" y1="132.6609" y2="124.5016"/><line style="stroke:#181818;stroke-width:1.0;" x1="470.5816" x2="478.58" y1="132.6609" y2="140.4984"/><line style="stroke:#181818;stroke-width:1.0;" x1="470.5816" x2="478.58" y1="132.6609" y2="132.5"/></g><!--reverse link Department to User--><g id="link_Department_User"><path codeLine="45" d="M452.0475,61.9053 C463.4775,59.0253 467.15,59.65 478.58,59.88 " fill="none" id="Department-backto-User" style="stroke:#181818;stroke-width:1.0;"/><line style="stroke:#181818;stroke-width:1.0;" x1="452.0475" x2="444.29" y1="61.9053" y2="71.6175"/><line style="stroke:#181818;stroke-width:1.0;" x1="452.0475" x2="444.29" y1="61.9053" y2="56.1025"/><line style="stroke:#181818;stroke-width:1.0;" x1="452.0475" x2="444.29" y1="61.9053" y2="63.86"/></g><!--SRC=[TL7B4i8W3Bpp5Vq1Vw3dNlNYgETOOiLfWGb1n-duxm9j6UgZ5xeXkrcog5dnizepsceKLVYKJ8U60TEFz0IiZ4x06U8Zz1x5ImYSk0rQ81u2-gDmfIrew93gwk2G2ke9pnBkZMbzf9y8h4LQgqXqBIcR7JnMbFf3OgOiXkh2N34skbXFyQ6I_LuKETujg8S2_96ELrQrx6bgkncbbUuQu0aRVJP0CfJs3EpTXvVlxKS_yxRIsaD3dKAQ8y4itPh1ziWeSsMLKNhgPinZH9xtsao2lpC8jyNxYeXdhR8KUcFf3G00]--></g></svg>