<?xml version="1.0" encoding="us-ascii" standalone="no"?><svg xmlns="http://www.w3.org/2000/svg" xmlns:xlink="http://www.w3.org/1999/xlink" contentStyleType="text/css" height="159px" preserveAspectRatio="none" style="width:634px;height:159px;background:#FFFFFF;" version="1.1" viewBox="0 0 634 159" width="634px" zoomAndPan="magnify"><defs/><g><!--class Step--><g id="elem_Step"><rect codeLine="1" fill="#F1F1F1" height="64.2969" id="Step" rx="2.5" ry="2.5" style="stroke:#181818;stroke-width:0.5;" width="67" x="560.5" y="48"/><ellipse cx="575.5" cy="64" fill="#ADD1B2" rx="11" ry="11" style="stroke:#181818;stroke-width:1.0;"/><path d="M574.2969,64.875 L575.75,64.875 L575.75,64.9844 C575.75,65.3906 575.7813,65.5469 575.8594,65.7031 C576.0156,65.9531 576.2969,66.1094 576.5938,66.1094 C576.8438,66.1094 577.1094,65.9688 577.2656,65.75 C577.3906,65.5938 577.4219,65.4375 577.4219,64.9844 L577.4219,63.0625 C577.4219,62.9063 577.4219,62.8594 577.4063,62.7031 C577.3438,62.2344 577.0313,61.9219 576.5781,61.9219 C576.3281,61.9219 576.0625,62.0625 575.8906,62.2813 C575.7813,62.4531 575.75,62.6094 575.75,63.0625 L575.75,63.1875 L574.2969,63.1875 L574.2969,60.7813 L578.2813,60.7813 L578.2813,61.6406 C578.2813,62.0469 578.3125,62.2188 578.3906,62.375 C578.5625,62.625 578.8438,62.7813 579.125,62.7813 C579.3906,62.7813 579.6563,62.6406 579.8281,62.4219 C579.9375,62.25 579.9688,62.1094 579.9688,61.6406 L579.9688,59.0938 L572.3438,59.0938 C571.9063,59.0938 571.7813,59.1094 571.625,59.2031 C571.375,59.3594 571.2188,59.6563 571.2188,59.9375 C571.2188,60.2188 571.3594,60.4688 571.5781,60.6406 C571.7344,60.75 571.9219,60.7813 572.3438,60.7813 L572.5938,60.7813 L572.5938,67.2969 L572.3438,67.2969 C571.9375,67.2969 571.7813,67.3125 571.625,67.4219 C571.375,67.5938 571.2188,67.8594 571.2188,68.1563 C571.2188,68.4219 571.3594,68.6719 571.5781,68.8281 C571.7188,68.9531 571.9531,69 572.3438,69 L580.3438,69 L580.3438,66.4219 C580.3438,65.9844 580.3125,65.8438 580.2344,65.6875 C580.0625,65.4375 579.7813,65.2813 579.5,65.2813 C579.2344,65.2813 578.9688,65.3906 578.7969,65.6406 C578.6875,65.7969 578.6563,65.9375 578.6563,66.4219 L578.6563,67.2969 L574.2969,67.2969 L574.2969,64.875 Z " fill="#000000"/><text fill="#000000" font-family="sans-serif" font-size="14" lengthAdjust="spacing" textLength="35" x="589.5" y="68.8467">Step</text><line style="stroke:#181818;stroke-width:0.5;" x1="561.5" x2="626.5" y1="80" y2="80"/><text fill="#000000" font-family="sans-serif" font-size="14" lengthAdjust="spacing" textLength="15" x="566.5" y="96.9951">...</text><line style="stroke:#181818;stroke-width:0.5;" x1="561.5" x2="626.5" y1="104.2969" y2="104.2969"/></g><!--class Department--><g id="elem_Department"><rect codeLine="5" fill="#F1F1F1" height="64.2969" id="Department" rx="2.5" ry="2.5" style="stroke:#181818;stroke-width:0.5;" width="122" x="7" y="48"/><ellipse cx="22" cy="64" fill="#ADD1B2" rx="11" ry="11" style="stroke:#181818;stroke-width:1.0;"/><path d="M20.7969,64.875 L22.25,64.875 L22.25,64.9844 C22.25,65.3906 22.2813,65.5469 22.3594,65.7031 C22.5156,65.9531 22.7969,66.1094 23.0938,66.1094 C23.3438,66.1094 23.6094,65.9688 23.7656,65.75 C23.8906,65.5938 23.9219,65.4375 23.9219,64.9844 L23.9219,63.0625 C23.9219,62.9063 23.9219,62.8594 23.9063,62.7031 C23.8438,62.2344 23.5313,61.9219 23.0781,61.9219 C22.8281,61.9219 22.5625,62.0625 22.3906,62.2813 C22.2813,62.4531 22.25,62.6094 22.25,63.0625 L22.25,63.1875 L20.7969,63.1875 L20.7969,60.7813 L24.7813,60.7813 L24.7813,61.6406 C24.7813,62.0469 24.8125,62.2188 24.8906,62.375 C25.0625,62.625 25.3438,62.7813 25.625,62.7813 C25.8906,62.7813 26.1563,62.6406 26.3281,62.4219 C26.4375,62.25 26.4688,62.1094 26.4688,61.6406 L26.4688,59.0938 L18.8438,59.0938 C18.4063,59.0938 18.2813,59.1094 18.125,59.2031 C17.875,59.3594 17.7188,59.6563 17.7188,59.9375 C17.7188,60.2188 17.8594,60.4688 18.0781,60.6406 C18.2344,60.75 18.4219,60.7813 18.8438,60.7813 L19.0938,60.7813 L19.0938,67.2969 L18.8438,67.2969 C18.4375,67.2969 18.2813,67.3125 18.125,67.4219 C17.875,67.5938 17.7188,67.8594 17.7188,68.1563 C17.7188,68.4219 17.8594,68.6719 18.0781,68.8281 C18.2188,68.9531 18.4531,69 18.8438,69 L26.8438,69 L26.8438,66.4219 C26.8438,65.9844 26.8125,65.8438 26.7344,65.6875 C26.5625,65.4375 26.2813,65.2813 26,65.2813 C25.7344,65.2813 25.4688,65.3906 25.2969,65.6406 C25.1875,65.7969 25.1563,65.9375 25.1563,66.4219 L25.1563,67.2969 L20.7969,67.2969 L20.7969,64.875 Z " fill="#000000"/><text fill="#000000" font-family="sans-serif" font-size="14" lengthAdjust="spacing" textLength="90" x="36" y="68.8467">Department</text><line style="stroke:#181818;stroke-width:0.5;" x1="8" x2="128" y1="80" y2="80"/><text fill="#000000" font-family="sans-serif" font-size="14" lengthAdjust="spacing" textLength="15" x="13" y="96.9951">...</text><line style="stroke:#181818;stroke-width:0.5;" x1="8" x2="128" y1="104.2969" y2="104.2969"/></g><!--class User--><g id="elem_User"><rect codeLine="9" fill="#F1F1F1" height="96.8906" id="User" rx="2.5" ry="2.5" style="stroke:#181818;stroke-width:0.5;" width="199" x="164.5" y="31.5"/><ellipse cx="244.25" cy="47.5" fill="#ADD1B2" rx="11" ry="11" style="stroke:#181818;stroke-width:1.0;"/><path d="M243.0469,48.375 L244.5,48.375 L244.5,48.4844 C244.5,48.8906 244.5313,49.0469 244.6094,49.2031 C244.7656,49.4531 245.0469,49.6094 245.3438,49.6094 C245.5938,49.6094 245.8594,49.4688 246.0156,49.25 C246.1406,49.0938 246.1719,48.9375 246.1719,48.4844 L246.1719,46.5625 C246.1719,46.4063 246.1719,46.3594 246.1563,46.2031 C246.0938,45.7344 245.7813,45.4219 245.3281,45.4219 C245.0781,45.4219 244.8125,45.5625 244.6406,45.7813 C244.5313,45.9531 244.5,46.1094 244.5,46.5625 L244.5,46.6875 L243.0469,46.6875 L243.0469,44.2813 L247.0313,44.2813 L247.0313,45.1406 C247.0313,45.5469 247.0625,45.7188 247.1406,45.875 C247.3125,46.125 247.5938,46.2813 247.875,46.2813 C248.1406,46.2813 248.4063,46.1406 248.5781,45.9219 C248.6875,45.75 248.7188,45.6094 248.7188,45.1406 L248.7188,42.5938 L241.0938,42.5938 C240.6563,42.5938 240.5313,42.6094 240.375,42.7031 C240.125,42.8594 239.9688,43.1563 239.9688,43.4375 C239.9688,43.7188 240.1094,43.9688 240.3281,44.1406 C240.4844,44.25 240.6719,44.2813 241.0938,44.2813 L241.3438,44.2813 L241.3438,50.7969 L241.0938,50.7969 C240.6875,50.7969 240.5313,50.8125 240.375,50.9219 C240.125,51.0938 239.9688,51.3594 239.9688,51.6563 C239.9688,51.9219 240.1094,52.1719 240.3281,52.3281 C240.4688,52.4531 240.7031,52.5 241.0938,52.5 L249.0938,52.5 L249.0938,49.9219 C249.0938,49.4844 249.0625,49.3438 248.9844,49.1875 C248.8125,48.9375 248.5313,48.7813 248.25,48.7813 C247.9844,48.7813 247.7188,48.8906 247.5469,49.1406 C247.4375,49.2969 247.4063,49.4375 247.4063,49.9219 L247.4063,50.7969 L243.0469,50.7969 L243.0469,48.375 Z " fill="#000000"/><text fill="#000000" font-family="sans-serif" font-size="14" lengthAdjust="spacing" textLength="31" x="264.75" y="52.3467">User</text><line style="stroke:#181818;stroke-width:0.5;" x1="165.5" x2="362.5" y1="63.5" y2="63.5"/><text fill="#000000" font-family="sans-serif" font-size="14" lengthAdjust="spacing" textLength="15" x="170.5" y="80.4951">...</text><text fill="#000000" font-family="sans-serif" font-size="14" lengthAdjust="spacing" textLength="187" x="170.5" y="96.792">department: Department</text><text fill="#000000" font-family="sans-serif" font-size="14" lengthAdjust="spacing" textLength="83" x="170.5" y="113.0889">joiningDate</text><line style="stroke:#181818;stroke-width:0.5;" x1="165.5" x2="362.5" y1="120.3906" y2="120.3906"/></g><!--class UserStep--><g id="elem_UserStep"><rect codeLine="15" fill="#F1F1F1" height="145.7813" id="UserStep" rx="2.5" ry="2.5" style="stroke:#181818;stroke-width:0.5;" width="126" x="399" y="7"/><ellipse cx="426.6" cy="23" fill="#ADD1B2" rx="11" ry="11" style="stroke:#181818;stroke-width:1.0;"/><path d="M425.3969,23.875 L426.85,23.875 L426.85,23.9844 C426.85,24.3906 426.8813,24.5469 426.9594,24.7031 C427.1156,24.9531 427.3969,25.1094 427.6938,25.1094 C427.9438,25.1094 428.2094,24.9688 428.3656,24.75 C428.4906,24.5938 428.5219,24.4375 428.5219,23.9844 L428.5219,22.0625 C428.5219,21.9063 428.5219,21.8594 428.5063,21.7031 C428.4438,21.2344 428.1313,20.9219 427.6781,20.9219 C427.4281,20.9219 427.1625,21.0625 426.9906,21.2813 C426.8813,21.4531 426.85,21.6094 426.85,22.0625 L426.85,22.1875 L425.3969,22.1875 L425.3969,19.7813 L429.3813,19.7813 L429.3813,20.6406 C429.3813,21.0469 429.4125,21.2188 429.4906,21.375 C429.6625,21.625 429.9438,21.7813 430.225,21.7813 C430.4906,21.7813 430.7563,21.6406 430.9281,21.4219 C431.0375,21.25 431.0688,21.1094 431.0688,20.6406 L431.0688,18.0938 L423.4438,18.0938 C423.0063,18.0938 422.8813,18.1094 422.725,18.2031 C422.475,18.3594 422.3188,18.6563 422.3188,18.9375 C422.3188,19.2188 422.4594,19.4688 422.6781,19.6406 C422.8344,19.75 423.0219,19.7813 423.4438,19.7813 L423.6938,19.7813 L423.6938,26.2969 L423.4438,26.2969 C423.0375,26.2969 422.8813,26.3125 422.725,26.4219 C422.475,26.5938 422.3188,26.8594 422.3188,27.1563 C422.3188,27.4219 422.4594,27.6719 422.6781,27.8281 C422.8188,27.9531 423.0531,28 423.4438,28 L431.4438,28 L431.4438,25.4219 C431.4438,24.9844 431.4125,24.8438 431.3344,24.6875 C431.1625,24.4375 430.8813,24.2813 430.6,24.2813 C430.3344,24.2813 430.0688,24.3906 429.8969,24.6406 C429.7875,24.7969 429.7563,24.9375 429.7563,25.4219 L429.7563,26.2969 L425.3969,26.2969 L425.3969,23.875 Z " fill="#000000"/><text fill="#000000" font-family="sans-serif" font-size="14" lengthAdjust="spacing" textLength="66" x="443.4" y="27.8467">UserStep</text><line style="stroke:#181818;stroke-width:0.5;" x1="400" x2="524" y1="39" y2="39"/><text fill="#000000" font-family="sans-serif" font-size="14" lengthAdjust="spacing" textLength="13" x="405" y="55.9951">id</text><text fill="#000000" font-family="sans-serif" font-size="14" lengthAdjust="spacing" textLength="70" x="405" y="72.292">user: User</text><text fill="#000000" font-family="sans-serif" font-size="14" lengthAdjust="spacing" textLength="77" x="405" y="88.5889">step: Step</text><text fill="#000000" font-family="sans-serif" font-size="14" lengthAdjust="spacing" textLength="61" x="405" y="104.8857">dueDate</text><text fill="#000000" font-family="sans-serif" font-size="14" lengthAdjust="spacing" textLength="114" x="405" y="121.1826">completedDate</text><text fill="#000000" font-family="sans-serif" font-size="14" lengthAdjust="spacing" textLength="68" x="405" y="137.4795">sortValue</text><line style="stroke:#181818;stroke-width:0.5;" x1="400" x2="524" y1="144.7813" y2="144.7813"/></g><!--link User to UserStep--><g id="link_User_UserStep"><path codeLine="24" d="M363.773,80 C372.684,80 381.595,80 390.506,80 " fill="none" id="User-to-UserStep" style="stroke:#181818;stroke-width:1.0;"/><line style="stroke:#181818;stroke-width:1.0;" x1="390.69" x2="398.69" y1="80" y2="72"/><line style="stroke:#181818;stroke-width:1.0;" x1="390.69" x2="398.69" y1="80" y2="88"/><line style="stroke:#181818;stroke-width:1.0;" x1="390.69" x2="398.69" y1="80" y2="80"/></g><!--reverse link UserStep to Step--><g id="link_UserStep_Step"><path codeLine="25" d="M533.42,80 C542.409,80 551.399,80 560.389,80 " fill="none" id="UserStep-backto-Step" style="stroke:#181818;stroke-width:1.0;"/><line style="stroke:#181818;stroke-width:1.0;" x1="533.164" x2="525.164" y1="80" y2="88"/><line style="stroke:#181818;stroke-width:1.0;" x1="533.164" x2="525.164" y1="80" y2="72"/><line style="stroke:#181818;stroke-width:1.0;" x1="533.164" x2="525.164" y1="80" y2="80"/></g><!--link Department to User--><g id="link_Department_User"><path codeLine="26" d="M129.25,80 C138.183,80 147.116,80 156.049,80 " fill="none" id="Department-to-User" style="stroke:#181818;stroke-width:1.0;"/><line style="stroke:#181818;stroke-width:1.0;" x1="156.253" x2="164.253" y1="80" y2="72"/><line style="stroke:#181818;stroke-width:1.0;" x1="156.253" x2="164.253" y1="80" y2="88"/><line style="stroke:#181818;stroke-width:1.0;" x1="156.253" x2="164.253" y1="80" y2="80"/></g><!--SRC=[ROz13eGW34NtFGKNa0EmzWR6sPEXCHW50cKnCTvzi1X2Z6nA-zl_MdHawIScmY0E4EL9AU44m2gC67IalMIlyfmmTi8LJPjGtJHBgxVEkcNKX0-FZcyDXrogYZLEKsbGl6Q5P6INw__rUzYGqBHAyf4-UijCuHM7es6WySwX6dOttdr_]--></g></svg>