<?xml version="1.0" encoding="us-ascii" standalone="no"?><svg xmlns="http://www.w3.org/2000/svg" xmlns:xlink="http://www.w3.org/1999/xlink" contentStyleType="text/css" height="101px" preserveAspectRatio="none" style="width:116px;height:101px;background:#FFFFFF;" version="1.1" viewBox="0 0 116 101" width="116px" zoomAndPan="magnify"><defs/><g><!--class User--><g id="elem_User"><rect codeLine="1" fill="#F1F1F1" height="80.5938" id="User" rx="2.5" ry="2.5" style="stroke:#181818;stroke-width:0.5;" width="95" x="7" y="7"/><ellipse cx="36.4" cy="23" fill="#ADD1B2" rx="11" ry="11" style="stroke:#181818;stroke-width:1.0;"/><path d="M35.1969,23.875 L36.65,23.875 L36.65,23.9844 C36.65,24.3906 36.6813,24.5469 36.7594,24.7031 C36.9156,24.9531 37.1969,25.1094 37.4938,25.1094 C37.7438,25.1094 38.0094,24.9688 38.1656,24.75 C38.2906,24.5938 38.3219,24.4375 38.3219,23.9844 L38.3219,22.0625 C38.3219,21.9063 38.3219,21.8594 38.3063,21.7031 C38.2438,21.2344 37.9313,20.9219 37.4781,20.9219 C37.2281,20.9219 36.9625,21.0625 36.7906,21.2813 C36.6813,21.4531 36.65,21.6094 36.65,22.0625 L36.65,22.1875 L35.1969,22.1875 L35.1969,19.7813 L39.1813,19.7813 L39.1813,20.6406 C39.1813,21.0469 39.2125,21.2188 39.2906,21.375 C39.4625,21.625 39.7438,21.7813 40.025,21.7813 C40.2906,21.7813 40.5563,21.6406 40.7281,21.4219 C40.8375,21.25 40.8688,21.1094 40.8688,20.6406 L40.8688,18.0938 L33.2438,18.0938 C32.8063,18.0938 32.6813,18.1094 32.525,18.2031 C32.275,18.3594 32.1188,18.6563 32.1188,18.9375 C32.1188,19.2188 32.2594,19.4688 32.4781,19.6406 C32.6344,19.75 32.8219,19.7813 33.2438,19.7813 L33.4938,19.7813 L33.4938,26.2969 L33.2438,26.2969 C32.8375,26.2969 32.6813,26.3125 32.525,26.4219 C32.275,26.5938 32.1188,26.8594 32.1188,27.1563 C32.1188,27.4219 32.2594,27.6719 32.4781,27.8281 C32.6188,27.9531 32.8531,28 33.2438,28 L41.2438,28 L41.2438,25.4219 C41.2438,24.9844 41.2125,24.8438 41.1344,24.6875 C40.9625,24.4375 40.6813,24.2813 40.4,24.2813 C40.1344,24.2813 39.8688,24.3906 39.6969,24.6406 C39.5875,24.7969 39.5563,24.9375 39.5563,25.4219 L39.5563,26.2969 L35.1969,26.2969 L35.1969,23.875 Z " fill="#000000"/><text fill="#000000" font-family="sans-serif" font-size="14" lengthAdjust="spacing" textLength="31" x="53.6" y="27.8467">User</text><line style="stroke:#181818;stroke-width:0.5;" x1="8" x2="101" y1="39" y2="39"/><text fill="#000000" font-family="sans-serif" font-size="14" lengthAdjust="spacing" textLength="15" x="13" y="55.9951">...</text><text fill="#000000" font-family="sans-serif" font-size="14" lengthAdjust="spacing" textLength="83" x="13" y="72.292">joiningDate</text><line style="stroke:#181818;stroke-width:0.5;" x1="8" x2="101" y1="79.5938" y2="79.5938"/></g><!--SRC=[IyqhoIofL0WjJYrIgEPI008zFJqmdPMVcPUPb-wIM9BALGi0]--></g></svg>