<?xml version="1.0" encoding="us-ascii" standalone="no"?><svg xmlns="http://www.w3.org/2000/svg" xmlns:xlink="http://www.w3.org/1999/xlink" contentStyleType="text/css" height="94px" preserveAspectRatio="none" style="width:322px;height:94px;background:#FFFFFF;" version="1.1" viewBox="0 0 322 94" width="322px" zoomAndPan="magnify"><defs/><g><!--class User--><g id="elem_User"><rect codeLine="1" fill="#F1F1F1" height="80.5938" id="User" rx="2.5" ry="2.5" style="stroke:#181818;stroke-width:0.5;" width="175" x="7" y="7"/><ellipse cx="74.75" cy="23" fill="#ADD1B2" rx="11" ry="11" style="stroke:#181818;stroke-width:1.0;"/><path d="M73.5469,23.875 L75,23.875 L75,23.9844 C75,24.3906 75.0313,24.5469 75.1094,24.7031 C75.2656,24.9531 75.5469,25.1094 75.8438,25.1094 C76.0938,25.1094 76.3594,24.9688 76.5156,24.75 C76.6406,24.5938 76.6719,24.4375 76.6719,23.9844 L76.6719,22.0625 C76.6719,21.9063 76.6719,21.8594 76.6563,21.7031 C76.5938,21.2344 76.2813,20.9219 75.8281,20.9219 C75.5781,20.9219 75.3125,21.0625 75.1406,21.2813 C75.0313,21.4531 75,21.6094 75,22.0625 L75,22.1875 L73.5469,22.1875 L73.5469,19.7813 L77.5313,19.7813 L77.5313,20.6406 C77.5313,21.0469 77.5625,21.2188 77.6406,21.375 C77.8125,21.625 78.0938,21.7813 78.375,21.7813 C78.6406,21.7813 78.9063,21.6406 79.0781,21.4219 C79.1875,21.25 79.2188,21.1094 79.2188,20.6406 L79.2188,18.0938 L71.5938,18.0938 C71.1563,18.0938 71.0313,18.1094 70.875,18.2031 C70.625,18.3594 70.4688,18.6563 70.4688,18.9375 C70.4688,19.2188 70.6094,19.4688 70.8281,19.6406 C70.9844,19.75 71.1719,19.7813 71.5938,19.7813 L71.8438,19.7813 L71.8438,26.2969 L71.5938,26.2969 C71.1875,26.2969 71.0313,26.3125 70.875,26.4219 C70.625,26.5938 70.4688,26.8594 70.4688,27.1563 C70.4688,27.4219 70.6094,27.6719 70.8281,27.8281 C70.9688,27.9531 71.2031,28 71.5938,28 L79.5938,28 L79.5938,25.4219 C79.5938,24.9844 79.5625,24.8438 79.4844,24.6875 C79.3125,24.4375 79.0313,24.2813 78.75,24.2813 C78.4844,24.2813 78.2188,24.3906 78.0469,24.6406 C77.9375,24.7969 77.9063,24.9375 77.9063,25.4219 L77.9063,26.2969 L73.5469,26.2969 L73.5469,23.875 Z " fill="#000000"/><text fill="#000000" font-family="sans-serif" font-size="14" lengthAdjust="spacing" textLength="31" x="95.25" y="27.8467">User</text><line style="stroke:#181818;stroke-width:0.5;" x1="8" x2="181" y1="39" y2="39"/><text fill="#000000" font-family="sans-serif" font-size="14" lengthAdjust="spacing" textLength="15" x="13" y="55.9951">...</text><text fill="#000000" font-family="sans-serif" font-size="14" lengthAdjust="spacing" textLength="163" x="13" y="72.292">steps: List&lt;UserStep&gt;</text><line style="stroke:#181818;stroke-width:0.5;" x1="8" x2="181" y1="79.5938" y2="79.5938"/></g><!--class UserStep--><g id="elem_UserStep"><rect codeLine="6" fill="#F1F1F1" height="80.5938" id="UserStep" rx="2.5" ry="2.5" style="stroke:#181818;stroke-width:0.5;" width="98" x="217.5" y="7"/><ellipse cx="232.5" cy="23" fill="#ADD1B2" rx="11" ry="11" style="stroke:#181818;stroke-width:1.0;"/><path d="M231.2969,23.875 L232.75,23.875 L232.75,23.9844 C232.75,24.3906 232.7813,24.5469 232.8594,24.7031 C233.0156,24.9531 233.2969,25.1094 233.5938,25.1094 C233.8438,25.1094 234.1094,24.9688 234.2656,24.75 C234.3906,24.5938 234.4219,24.4375 234.4219,23.9844 L234.4219,22.0625 C234.4219,21.9063 234.4219,21.8594 234.4063,21.7031 C234.3438,21.2344 234.0313,20.9219 233.5781,20.9219 C233.3281,20.9219 233.0625,21.0625 232.8906,21.2813 C232.7813,21.4531 232.75,21.6094 232.75,22.0625 L232.75,22.1875 L231.2969,22.1875 L231.2969,19.7813 L235.2813,19.7813 L235.2813,20.6406 C235.2813,21.0469 235.3125,21.2188 235.3906,21.375 C235.5625,21.625 235.8438,21.7813 236.125,21.7813 C236.3906,21.7813 236.6563,21.6406 236.8281,21.4219 C236.9375,21.25 236.9688,21.1094 236.9688,20.6406 L236.9688,18.0938 L229.3438,18.0938 C228.9063,18.0938 228.7813,18.1094 228.625,18.2031 C228.375,18.3594 228.2188,18.6563 228.2188,18.9375 C228.2188,19.2188 228.3594,19.4688 228.5781,19.6406 C228.7344,19.75 228.9219,19.7813 229.3438,19.7813 L229.5938,19.7813 L229.5938,26.2969 L229.3438,26.2969 C228.9375,26.2969 228.7813,26.3125 228.625,26.4219 C228.375,26.5938 228.2188,26.8594 228.2188,27.1563 C228.2188,27.4219 228.3594,27.6719 228.5781,27.8281 C228.7188,27.9531 228.9531,28 229.3438,28 L237.3438,28 L237.3438,25.4219 C237.3438,24.9844 237.3125,24.8438 237.2344,24.6875 C237.0625,24.4375 236.7813,24.2813 236.5,24.2813 C236.2344,24.2813 235.9688,24.3906 235.7969,24.6406 C235.6875,24.7969 235.6563,24.9375 235.6563,25.4219 L235.6563,26.2969 L231.2969,26.2969 L231.2969,23.875 Z " fill="#000000"/><text fill="#000000" font-family="sans-serif" font-size="14" lengthAdjust="spacing" textLength="66" x="246.5" y="27.8467">UserStep</text><line style="stroke:#181818;stroke-width:0.5;" x1="218.5" x2="314.5" y1="39" y2="39"/><text fill="#000000" font-family="sans-serif" font-size="14" lengthAdjust="spacing" textLength="15" x="223.5" y="55.9951">...</text><text fill="#000000" font-family="sans-serif" font-size="14" lengthAdjust="spacing" textLength="70" x="223.5" y="72.292">user: User</text><line style="stroke:#181818;stroke-width:0.5;" x1="218.5" x2="314.5" y1="79.5938" y2="79.5938"/></g><!--link User to UserStep--><g id="link_User_UserStep"><path codeLine="11" d="M182.18,47.5 C191.174,47.5 200.168,47.5 209.163,47.5 " fill="none" id="User-to-UserStep" style="stroke:#181818;stroke-width:1.0;"/><line style="stroke:#181818;stroke-width:1.0;" x1="209.423" x2="217.423" y1="47.5" y2="39.5"/><line style="stroke:#181818;stroke-width:1.0;" x1="209.423" x2="217.423" y1="47.5" y2="55.5"/><line style="stroke:#181818;stroke-width:1.0;" x1="209.423" x2="217.423" y1="47.5" y2="47.5"/></g><!--SRC=[IyqhoIofL0WjJYrIgEPI008zFJqmNLoIMb1ifU2JMLnY0v8E1lBjk6gvk58HMa1YQDfAWS9MO4cGMh2vkjLmnG00]--></g></svg>