<?xml version="1.0" encoding="us-ascii" standalone="no"?><svg xmlns="http://www.w3.org/2000/svg" xmlns:xlink="http://www.w3.org/1999/xlink" contentStyleType="text/css" height="159px" preserveAspectRatio="none" style="width:341px;height:159px;background:#FFFFFF;" version="1.1" viewBox="0 0 341 159" width="341px" zoomAndPan="magnify"><defs/><g><!--class Step--><g id="elem_Step"><rect codeLine="1" fill="#F1F1F1" height="64.2969" id="Step" rx="2.5" ry="2.5" style="stroke:#181818;stroke-width:0.5;" width="67" x="267" y="48"/><ellipse cx="282" cy="64" fill="#ADD1B2" rx="11" ry="11" style="stroke:#181818;stroke-width:1.0;"/><path d="M280.7969,64.875 L282.25,64.875 L282.25,64.9844 C282.25,65.3906 282.2813,65.5469 282.3594,65.7031 C282.5156,65.9531 282.7969,66.1094 283.0938,66.1094 C283.3438,66.1094 283.6094,65.9688 283.7656,65.75 C283.8906,65.5938 283.9219,65.4375 283.9219,64.9844 L283.9219,63.0625 C283.9219,62.9063 283.9219,62.8594 283.9063,62.7031 C283.8438,62.2344 283.5313,61.9219 283.0781,61.9219 C282.8281,61.9219 282.5625,62.0625 282.3906,62.2813 C282.2813,62.4531 282.25,62.6094 282.25,63.0625 L282.25,63.1875 L280.7969,63.1875 L280.7969,60.7813 L284.7813,60.7813 L284.7813,61.6406 C284.7813,62.0469 284.8125,62.2188 284.8906,62.375 C285.0625,62.625 285.3438,62.7813 285.625,62.7813 C285.8906,62.7813 286.1563,62.6406 286.3281,62.4219 C286.4375,62.25 286.4688,62.1094 286.4688,61.6406 L286.4688,59.0938 L278.8438,59.0938 C278.4063,59.0938 278.2813,59.1094 278.125,59.2031 C277.875,59.3594 277.7188,59.6563 277.7188,59.9375 C277.7188,60.2188 277.8594,60.4688 278.0781,60.6406 C278.2344,60.75 278.4219,60.7813 278.8438,60.7813 L279.0938,60.7813 L279.0938,67.2969 L278.8438,67.2969 C278.4375,67.2969 278.2813,67.3125 278.125,67.4219 C277.875,67.5938 277.7188,67.8594 277.7188,68.1563 C277.7188,68.4219 277.8594,68.6719 278.0781,68.8281 C278.2188,68.9531 278.4531,69 278.8438,69 L286.8438,69 L286.8438,66.4219 C286.8438,65.9844 286.8125,65.8438 286.7344,65.6875 C286.5625,65.4375 286.2813,65.2813 286,65.2813 C285.7344,65.2813 285.4688,65.3906 285.2969,65.6406 C285.1875,65.7969 285.1563,65.9375 285.1563,66.4219 L285.1563,67.2969 L280.7969,67.2969 L280.7969,64.875 Z " fill="#000000"/><text fill="#000000" font-family="sans-serif" font-size="14" lengthAdjust="spacing" textLength="35" x="296" y="68.8467">Step</text><line style="stroke:#181818;stroke-width:0.5;" x1="268" x2="333" y1="80" y2="80"/><text fill="#000000" font-family="sans-serif" font-size="14" lengthAdjust="spacing" textLength="15" x="273" y="96.9951">...</text><line style="stroke:#181818;stroke-width:0.5;" x1="268" x2="333" y1="104.2969" y2="104.2969"/></g><!--class User--><g id="elem_User"><rect codeLine="5" fill="#F1F1F1" height="64.2969" id="User" rx="2.5" ry="2.5" style="stroke:#181818;stroke-width:0.5;" width="63" x="7" y="48"/><ellipse cx="22" cy="64" fill="#ADD1B2" rx="11" ry="11" style="stroke:#181818;stroke-width:1.0;"/><path d="M20.7969,64.875 L22.25,64.875 L22.25,64.9844 C22.25,65.3906 22.2813,65.5469 22.3594,65.7031 C22.5156,65.9531 22.7969,66.1094 23.0938,66.1094 C23.3438,66.1094 23.6094,65.9688 23.7656,65.75 C23.8906,65.5938 23.9219,65.4375 23.9219,64.9844 L23.9219,63.0625 C23.9219,62.9063 23.9219,62.8594 23.9063,62.7031 C23.8438,62.2344 23.5313,61.9219 23.0781,61.9219 C22.8281,61.9219 22.5625,62.0625 22.3906,62.2813 C22.2813,62.4531 22.25,62.6094 22.25,63.0625 L22.25,63.1875 L20.7969,63.1875 L20.7969,60.7813 L24.7813,60.7813 L24.7813,61.6406 C24.7813,62.0469 24.8125,62.2188 24.8906,62.375 C25.0625,62.625 25.3438,62.7813 25.625,62.7813 C25.8906,62.7813 26.1563,62.6406 26.3281,62.4219 C26.4375,62.25 26.4688,62.1094 26.4688,61.6406 L26.4688,59.0938 L18.8438,59.0938 C18.4063,59.0938 18.2813,59.1094 18.125,59.2031 C17.875,59.3594 17.7188,59.6563 17.7188,59.9375 C17.7188,60.2188 17.8594,60.4688 18.0781,60.6406 C18.2344,60.75 18.4219,60.7813 18.8438,60.7813 L19.0938,60.7813 L19.0938,67.2969 L18.8438,67.2969 C18.4375,67.2969 18.2813,67.3125 18.125,67.4219 C17.875,67.5938 17.7188,67.8594 17.7188,68.1563 C17.7188,68.4219 17.8594,68.6719 18.0781,68.8281 C18.2188,68.9531 18.4531,69 18.8438,69 L26.8438,69 L26.8438,66.4219 C26.8438,65.9844 26.8125,65.8438 26.7344,65.6875 C26.5625,65.4375 26.2813,65.2813 26,65.2813 C25.7344,65.2813 25.4688,65.3906 25.2969,65.6406 C25.1875,65.7969 25.1563,65.9375 25.1563,66.4219 L25.1563,67.2969 L20.7969,67.2969 L20.7969,64.875 Z " fill="#000000"/><text fill="#000000" font-family="sans-serif" font-size="14" lengthAdjust="spacing" textLength="31" x="36" y="68.8467">User</text><line style="stroke:#181818;stroke-width:0.5;" x1="8" x2="69" y1="80" y2="80"/><text fill="#000000" font-family="sans-serif" font-size="14" lengthAdjust="spacing" textLength="15" x="13" y="96.9951">...</text><line style="stroke:#181818;stroke-width:0.5;" x1="8" x2="69" y1="104.2969" y2="104.2969"/></g><!--class UserStep--><g id="elem_UserStep"><rect codeLine="9" fill="#F1F1F1" height="145.7813" id="UserStep" rx="2.5" ry="2.5" style="stroke:#181818;stroke-width:0.5;" width="126" x="105.5" y="7"/><ellipse cx="133.1" cy="23" fill="#ADD1B2" rx="11" ry="11" style="stroke:#181818;stroke-width:1.0;"/><path d="M131.8969,23.875 L133.35,23.875 L133.35,23.9844 C133.35,24.3906 133.3813,24.5469 133.4594,24.7031 C133.6156,24.9531 133.8969,25.1094 134.1938,25.1094 C134.4438,25.1094 134.7094,24.9688 134.8656,24.75 C134.9906,24.5938 135.0219,24.4375 135.0219,23.9844 L135.0219,22.0625 C135.0219,21.9063 135.0219,21.8594 135.0063,21.7031 C134.9438,21.2344 134.6313,20.9219 134.1781,20.9219 C133.9281,20.9219 133.6625,21.0625 133.4906,21.2813 C133.3813,21.4531 133.35,21.6094 133.35,22.0625 L133.35,22.1875 L131.8969,22.1875 L131.8969,19.7813 L135.8813,19.7813 L135.8813,20.6406 C135.8813,21.0469 135.9125,21.2188 135.9906,21.375 C136.1625,21.625 136.4438,21.7813 136.725,21.7813 C136.9906,21.7813 137.2563,21.6406 137.4281,21.4219 C137.5375,21.25 137.5688,21.1094 137.5688,20.6406 L137.5688,18.0938 L129.9438,18.0938 C129.5063,18.0938 129.3813,18.1094 129.225,18.2031 C128.975,18.3594 128.8188,18.6563 128.8188,18.9375 C128.8188,19.2188 128.9594,19.4688 129.1781,19.6406 C129.3344,19.75 129.5219,19.7813 129.9438,19.7813 L130.1938,19.7813 L130.1938,26.2969 L129.9438,26.2969 C129.5375,26.2969 129.3813,26.3125 129.225,26.4219 C128.975,26.5938 128.8188,26.8594 128.8188,27.1563 C128.8188,27.4219 128.9594,27.6719 129.1781,27.8281 C129.3188,27.9531 129.5531,28 129.9438,28 L137.9438,28 L137.9438,25.4219 C137.9438,24.9844 137.9125,24.8438 137.8344,24.6875 C137.6625,24.4375 137.3813,24.2813 137.1,24.2813 C136.8344,24.2813 136.5688,24.3906 136.3969,24.6406 C136.2875,24.7969 136.2563,24.9375 136.2563,25.4219 L136.2563,26.2969 L131.8969,26.2969 L131.8969,23.875 Z " fill="#000000"/><text fill="#000000" font-family="sans-serif" font-size="14" lengthAdjust="spacing" textLength="66" x="149.9" y="27.8467">UserStep</text><line style="stroke:#181818;stroke-width:0.5;" x1="106.5" x2="230.5" y1="39" y2="39"/><text fill="#000000" font-family="sans-serif" font-size="14" lengthAdjust="spacing" textLength="13" x="111.5" y="55.9951">id</text><text fill="#000000" font-family="sans-serif" font-size="14" lengthAdjust="spacing" textLength="70" x="111.5" y="72.292">user: User</text><text fill="#000000" font-family="sans-serif" font-size="14" lengthAdjust="spacing" textLength="77" x="111.5" y="88.5889">step: Step</text><text fill="#000000" font-family="sans-serif" font-size="14" lengthAdjust="spacing" textLength="61" x="111.5" y="104.8857">dueDate</text><text fill="#000000" font-family="sans-serif" font-size="14" lengthAdjust="spacing" textLength="114" x="111.5" y="121.1826">completedDate</text><text fill="#000000" font-family="sans-serif" font-size="14" lengthAdjust="spacing" textLength="68" x="111.5" y="137.4795">sortValue</text><line style="stroke:#181818;stroke-width:0.5;" x1="106.5" x2="230.5" y1="144.7813" y2="144.7813"/></g><!--link User to UserStep--><g id="link_User_UserStep"><path codeLine="18" d="M70.2383,80 C79.1524,80 88.0666,80 96.9808,80 " fill="none" id="User-to-UserStep" style="stroke:#181818;stroke-width:1.0;"/><line style="stroke:#181818;stroke-width:1.0;" x1="97.1673" x2="105.1673" y1="80" y2="72"/><line style="stroke:#181818;stroke-width:1.0;" x1="97.1673" x2="105.1673" y1="80" y2="88"/><line style="stroke:#181818;stroke-width:1.0;" x1="97.1673" x2="105.1673" y1="80" y2="80"/></g><!--reverse link UserStep to Step--><g id="link_UserStep_Step"><path codeLine="19" d="M239.92,80 C248.909,80 257.899,80 266.889,80 " fill="none" id="UserStep-backto-Step" style="stroke:#181818;stroke-width:1.0;"/><line style="stroke:#181818;stroke-width:1.0;" x1="239.664" x2="231.664" y1="80" y2="88"/><line style="stroke:#181818;stroke-width:1.0;" x1="239.664" x2="231.664" y1="80" y2="72"/><line style="stroke:#181818;stroke-width:1.0;" x1="239.664" x2="231.664" y1="80" y2="80"/></g><!--SRC=[IyqhoIofL0WkIIrGgEPI008zFJskMYwkL8X4Q75g4Ku995sPAM2g52Xg1PO3Suk12gp0XeEvAQMfBeabgM1sSdvkGKvgIMeANAGulwWaB36dD1La2zXUtMguDLnm-sfrmGO20000]--></g></svg>