<?xml version="1.0" encoding="us-ascii" standalone="no"?><svg xmlns="http://www.w3.org/2000/svg" xmlns:xlink="http://www.w3.org/1999/xlink" contentStyleType="text/css" height="94px" preserveAspectRatio="none" style="width:370px;height:94px;background:#FFFFFF;" version="1.1" viewBox="0 0 370 94" width="370px" zoomAndPan="magnify"><defs/><g><!--class Department--><g id="elem_Department"><rect codeLine="1" fill="#F1F1F1" height="48" id="Department" rx="2.5" ry="2.5" style="stroke:#181818;stroke-width:0.5;" width="122" x="7" y="23.5"/><ellipse cx="22" cy="39.5" fill="#ADD1B2" rx="11" ry="11" style="stroke:#181818;stroke-width:1.0;"/><path d="M20.7969,40.375 L22.25,40.375 L22.25,40.4844 C22.25,40.8906 22.2813,41.0469 22.3594,41.2031 C22.5156,41.4531 22.7969,41.6094 23.0938,41.6094 C23.3438,41.6094 23.6094,41.4688 23.7656,41.25 C23.8906,41.0938 23.9219,40.9375 23.9219,40.4844 L23.9219,38.5625 C23.9219,38.4063 23.9219,38.3594 23.9063,38.2031 C23.8438,37.7344 23.5313,37.4219 23.0781,37.4219 C22.8281,37.4219 22.5625,37.5625 22.3906,37.7813 C22.2813,37.9531 22.25,38.1094 22.25,38.5625 L22.25,38.6875 L20.7969,38.6875 L20.7969,36.2813 L24.7813,36.2813 L24.7813,37.1406 C24.7813,37.5469 24.8125,37.7188 24.8906,37.875 C25.0625,38.125 25.3438,38.2813 25.625,38.2813 C25.8906,38.2813 26.1563,38.1406 26.3281,37.9219 C26.4375,37.75 26.4688,37.6094 26.4688,37.1406 L26.4688,34.5938 L18.8438,34.5938 C18.4063,34.5938 18.2813,34.6094 18.125,34.7031 C17.875,34.8594 17.7188,35.1563 17.7188,35.4375 C17.7188,35.7188 17.8594,35.9688 18.0781,36.1406 C18.2344,36.25 18.4219,36.2813 18.8438,36.2813 L19.0938,36.2813 L19.0938,42.7969 L18.8438,42.7969 C18.4375,42.7969 18.2813,42.8125 18.125,42.9219 C17.875,43.0938 17.7188,43.3594 17.7188,43.6563 C17.7188,43.9219 17.8594,44.1719 18.0781,44.3281 C18.2188,44.4531 18.4531,44.5 18.8438,44.5 L26.8438,44.5 L26.8438,41.9219 C26.8438,41.4844 26.8125,41.3438 26.7344,41.1875 C26.5625,40.9375 26.2813,40.7813 26,40.7813 C25.7344,40.7813 25.4688,40.8906 25.2969,41.1406 C25.1875,41.2969 25.1563,41.4375 25.1563,41.9219 L25.1563,42.7969 L20.7969,42.7969 L20.7969,40.375 Z " fill="#000000"/><text fill="#000000" font-family="sans-serif" font-size="14" lengthAdjust="spacing" textLength="90" x="36" y="44.3467">Department</text><line style="stroke:#181818;stroke-width:0.5;" x1="8" x2="128" y1="55.5" y2="55.5"/><line style="stroke:#181818;stroke-width:0.5;" x1="8" x2="128" y1="63.5" y2="63.5"/></g><!--class User--><g id="elem_User"><rect codeLine="4" fill="#F1F1F1" height="80.5938" id="User" rx="2.5" ry="2.5" style="stroke:#181818;stroke-width:0.5;" width="199" x="164.5" y="7"/><ellipse cx="244.25" cy="23" fill="#ADD1B2" rx="11" ry="11" style="stroke:#181818;stroke-width:1.0;"/><path d="M243.0469,23.875 L244.5,23.875 L244.5,23.9844 C244.5,24.3906 244.5313,24.5469 244.6094,24.7031 C244.7656,24.9531 245.0469,25.1094 245.3438,25.1094 C245.5938,25.1094 245.8594,24.9688 246.0156,24.75 C246.1406,24.5938 246.1719,24.4375 246.1719,23.9844 L246.1719,22.0625 C246.1719,21.9063 246.1719,21.8594 246.1563,21.7031 C246.0938,21.2344 245.7813,20.9219 245.3281,20.9219 C245.0781,20.9219 244.8125,21.0625 244.6406,21.2813 C244.5313,21.4531 244.5,21.6094 244.5,22.0625 L244.5,22.1875 L243.0469,22.1875 L243.0469,19.7813 L247.0313,19.7813 L247.0313,20.6406 C247.0313,21.0469 247.0625,21.2188 247.1406,21.375 C247.3125,21.625 247.5938,21.7813 247.875,21.7813 C248.1406,21.7813 248.4063,21.6406 248.5781,21.4219 C248.6875,21.25 248.7188,21.1094 248.7188,20.6406 L248.7188,18.0938 L241.0938,18.0938 C240.6563,18.0938 240.5313,18.1094 240.375,18.2031 C240.125,18.3594 239.9688,18.6563 239.9688,18.9375 C239.9688,19.2188 240.1094,19.4688 240.3281,19.6406 C240.4844,19.75 240.6719,19.7813 241.0938,19.7813 L241.3438,19.7813 L241.3438,26.2969 L241.0938,26.2969 C240.6875,26.2969 240.5313,26.3125 240.375,26.4219 C240.125,26.5938 239.9688,26.8594 239.9688,27.1563 C239.9688,27.4219 240.1094,27.6719 240.3281,27.8281 C240.4688,27.9531 240.7031,28 241.0938,28 L249.0938,28 L249.0938,25.4219 C249.0938,24.9844 249.0625,24.8438 248.9844,24.6875 C248.8125,24.4375 248.5313,24.2813 248.25,24.2813 C247.9844,24.2813 247.7188,24.3906 247.5469,24.6406 C247.4375,24.7969 247.4063,24.9375 247.4063,25.4219 L247.4063,26.2969 L243.0469,26.2969 L243.0469,23.875 Z " fill="#000000"/><text fill="#000000" font-family="sans-serif" font-size="14" lengthAdjust="spacing" textLength="31" x="264.75" y="27.8467">User</text><line style="stroke:#181818;stroke-width:0.5;" x1="165.5" x2="362.5" y1="39" y2="39"/><text fill="#000000" font-family="sans-serif" font-size="14" lengthAdjust="spacing" textLength="15" x="170.5" y="55.9951">...</text><text fill="#000000" font-family="sans-serif" font-size="14" lengthAdjust="spacing" textLength="187" x="170.5" y="72.292">department: Department</text><line style="stroke:#181818;stroke-width:0.5;" x1="165.5" x2="362.5" y1="79.5938" y2="79.5938"/></g><!--link Department to User--><g id="link_Department_User"><path codeLine="9" d="M129.25,47.5 C138.183,47.5 147.116,47.5 156.049,47.5 " fill="none" id="Department-to-User" style="stroke:#181818;stroke-width:1.0;"/><line style="stroke:#181818;stroke-width:1.0;" x1="156.253" x2="164.253" y1="47.5" y2="39.5"/><line style="stroke:#181818;stroke-width:1.0;" x1="156.253" x2="164.253" y1="47.5" y2="55.5"/><line style="stroke:#181818;stroke-width:1.0;" x1="156.253" x2="164.253" y1="47.5" y2="47.5"/></g><!--SRC=[IyqhoIofL719BKWiAibDpIjHgEQgvU9AXGY75gSM0GKKW41FJmzCfy1LMY7f0kb1CaEt6gmL0000]--></g></svg>