<?xml version="1.0" encoding="us-ascii" standalone="no"?><svg xmlns="http://www.w3.org/2000/svg" xmlns:xlink="http://www.w3.org/1999/xlink" contentStyleType="text/css" height="267px" preserveAspectRatio="none" style="width:659px;height:267px;background:#FFFFFF;" version="1.1" viewBox="0 0 659 267" width="659px" zoomAndPan="magnify"><defs/><g><!--class ContactPerson--><g id="elem_ContactPerson"><rect codeLine="3" fill="#F1F1F1" height="80.5938" id="ContactPerson" rx="2.5" ry="2.5" style="stroke:#181818;stroke-width:0.5;" width="139" x="513" y="23"/><ellipse cx="528" cy="39" fill="#ADD1B2" rx="11" ry="11" style="stroke:#181818;stroke-width:1.0;"/><path d="M530.3438,34.6719 C529.4063,34.2344 528.8125,34.0938 527.9375,34.0938 C525.3125,34.0938 523.3125,36.1719 523.3125,38.8906 L523.3125,40.0156 C523.3125,42.5938 525.4219,44.4844 528.3125,44.4844 C529.5313,44.4844 530.6875,44.1875 531.4375,43.6406 C532.0156,43.2344 532.3438,42.7813 532.3438,42.3906 C532.3438,41.9375 531.9531,41.5469 531.4844,41.5469 C531.2656,41.5469 531.0625,41.625 530.875,41.8125 C530.4219,42.2969 530.4219,42.2969 530.2344,42.3906 C529.8125,42.6563 529.125,42.7813 528.3594,42.7813 C526.3125,42.7813 525.0156,41.6875 525.0156,39.9844 L525.0156,38.8906 C525.0156,37.1094 526.2656,35.7969 528,35.7969 C528.5781,35.7969 529.1875,35.9531 529.6563,36.2031 C530.1406,36.4844 530.3125,36.7031 530.4063,37.1094 C530.4688,37.5156 530.5,37.6406 530.6406,37.7656 C530.7813,37.9063 531.0156,38.0156 531.2344,38.0156 C531.5,38.0156 531.7656,37.875 531.9375,37.6563 C532.0469,37.5 532.0781,37.3125 532.0781,36.8906 L532.0781,35.4688 C532.0781,35.0313 532.0625,34.9063 531.9688,34.75 C531.8125,34.4844 531.5313,34.3438 531.2344,34.3438 C530.9375,34.3438 530.7344,34.4375 530.5156,34.75 L530.3438,34.6719 Z " fill="#000000"/><text fill="#000000" font-family="sans-serif" font-size="14" lengthAdjust="spacing" textLength="107" x="542" y="43.8467">ContactPerson</text><line style="stroke:#181818;stroke-width:0.5;" x1="514" x2="651" y1="55" y2="55"/><text fill="#000000" font-family="sans-serif" font-size="14" lengthAdjust="spacing" textLength="13" x="519" y="71.9951">id</text><text fill="#000000" font-family="sans-serif" font-size="14" lengthAdjust="spacing" textLength="40" x="519" y="88.292">name</text><line style="stroke:#181818;stroke-width:0.5;" x1="514" x2="651" y1="95.5938" y2="95.5938"/></g><!--class Customer--><g id="elem_Customer"><rect codeLine="8" fill="#F1F1F1" height="113.1875" id="Customer" rx="2.5" ry="2.5" style="stroke:#181818;stroke-width:0.5;" width="201" x="252" y="7"/><ellipse cx="313.25" cy="23" fill="#ADD1B2" rx="11" ry="11" style="stroke:#181818;stroke-width:1.0;"/><path d="M315.5938,18.6719 C314.6563,18.2344 314.0625,18.0938 313.1875,18.0938 C310.5625,18.0938 308.5625,20.1719 308.5625,22.8906 L308.5625,24.0156 C308.5625,26.5938 310.6719,28.4844 313.5625,28.4844 C314.7813,28.4844 315.9375,28.1875 316.6875,27.6406 C317.2656,27.2344 317.5938,26.7813 317.5938,26.3906 C317.5938,25.9375 317.2031,25.5469 316.7344,25.5469 C316.5156,25.5469 316.3125,25.625 316.125,25.8125 C315.6719,26.2969 315.6719,26.2969 315.4844,26.3906 C315.0625,26.6563 314.375,26.7813 313.6094,26.7813 C311.5625,26.7813 310.2656,25.6875 310.2656,23.9844 L310.2656,22.8906 C310.2656,21.1094 311.5156,19.7969 313.25,19.7969 C313.8281,19.7969 314.4375,19.9531 314.9063,20.2031 C315.3906,20.4844 315.5625,20.7031 315.6563,21.1094 C315.7188,21.5156 315.75,21.6406 315.8906,21.7656 C316.0313,21.9063 316.2656,22.0156 316.4844,22.0156 C316.75,22.0156 317.0156,21.875 317.1875,21.6563 C317.2969,21.5 317.3281,21.3125 317.3281,20.8906 L317.3281,19.4688 C317.3281,19.0313 317.3125,18.9063 317.2188,18.75 C317.0625,18.4844 316.7813,18.3438 316.4844,18.3438 C316.1875,18.3438 315.9844,18.4375 315.7656,18.75 L315.5938,18.6719 Z " fill="#000000"/><text fill="#000000" font-family="sans-serif" font-size="14" lengthAdjust="spacing" textLength="70" x="333.75" y="27.8467">Customer</text><line style="stroke:#181818;stroke-width:0.5;" x1="253" x2="452" y1="39" y2="39"/><text fill="#000000" font-family="sans-serif" font-size="14" lengthAdjust="spacing" textLength="13" x="258" y="55.9951">id</text><text fill="#000000" font-family="sans-serif" font-size="14" lengthAdjust="spacing" textLength="40" x="258" y="72.292">name</text><text fill="#000000" font-family="sans-serif" font-size="14" lengthAdjust="spacing" textLength="39" x="258" y="88.5889">email</text><text fill="#000000" font-family="sans-serif" font-size="14" lengthAdjust="spacing" textLength="189" x="258" y="104.8857">contacts: ContactPerson[]</text><line style="stroke:#181818;stroke-width:0.5;" x1="253" x2="452" y1="112.1875" y2="112.1875"/></g><!--class Order--><g id="elem_Order"><rect codeLine="15" fill="#F1F1F1" height="145.7813" id="Order" rx="2.5" ry="2.5" style="stroke:#181818;stroke-width:0.5;" width="185" x="7" y="60.5"/><ellipse cx="74.75" cy="76.5" fill="#ADD1B2" rx="11" ry="11" style="stroke:#181818;stroke-width:1.0;"/><path d="M77.0938,72.1719 C76.1563,71.7344 75.5625,71.5938 74.6875,71.5938 C72.0625,71.5938 70.0625,73.6719 70.0625,76.3906 L70.0625,77.5156 C70.0625,80.0938 72.1719,81.9844 75.0625,81.9844 C76.2813,81.9844 77.4375,81.6875 78.1875,81.1406 C78.7656,80.7344 79.0938,80.2813 79.0938,79.8906 C79.0938,79.4375 78.7031,79.0469 78.2344,79.0469 C78.0156,79.0469 77.8125,79.125 77.625,79.3125 C77.1719,79.7969 77.1719,79.7969 76.9844,79.8906 C76.5625,80.1563 75.875,80.2813 75.1094,80.2813 C73.0625,80.2813 71.7656,79.1875 71.7656,77.4844 L71.7656,76.3906 C71.7656,74.6094 73.0156,73.2969 74.75,73.2969 C75.3281,73.2969 75.9375,73.4531 76.4063,73.7031 C76.8906,73.9844 77.0625,74.2031 77.1563,74.6094 C77.2188,75.0156 77.25,75.1406 77.3906,75.2656 C77.5313,75.4063 77.7656,75.5156 77.9844,75.5156 C78.25,75.5156 78.5156,75.375 78.6875,75.1563 C78.7969,75 78.8281,74.8125 78.8281,74.3906 L78.8281,72.9688 C78.8281,72.5313 78.8125,72.4063 78.7188,72.25 C78.5625,71.9844 78.2813,71.8438 77.9844,71.8438 C77.6875,71.8438 77.4844,71.9375 77.2656,72.25 L77.0938,72.1719 Z " fill="#000000"/><text fill="#000000" font-family="sans-serif" font-size="14" lengthAdjust="spacing" textLength="41" x="95.25" y="81.3467">Order</text><line style="stroke:#181818;stroke-width:0.5;" x1="8" x2="191" y1="92.5" y2="92.5"/><text fill="#000000" font-family="sans-serif" font-size="14" lengthAdjust="spacing" textLength="13" x="13" y="109.4951">id</text><text fill="#000000" font-family="sans-serif" font-size="14" lengthAdjust="spacing" textLength="56" x="13" y="125.792">number</text><text fill="#000000" font-family="sans-serif" font-size="14" lengthAdjust="spacing" textLength="33" x="13" y="142.0889">date</text><text fill="#000000" font-family="sans-serif" font-size="14" lengthAdjust="spacing" textLength="55" x="13" y="158.3857">amount</text><text fill="#000000" font-family="sans-serif" font-size="14" lengthAdjust="spacing" textLength="147" x="13" y="174.6826">customer: Customer</text><text fill="#000000" font-family="sans-serif" font-size="14" lengthAdjust="spacing" textLength="173" x="13" y="190.9795">orderLines: OrderLines[]</text><line style="stroke:#181818;stroke-width:0.5;" x1="8" x2="191" y1="198.2813" y2="198.2813"/></g><!--class OrderLine--><g id="elem_OrderLine"><rect codeLine="24" fill="#F1F1F1" height="96.8906" id="OrderLine" rx="2.5" ry="2.5" style="stroke:#181818;stroke-width:0.5;" width="134" x="285.5" y="155"/><ellipse cx="314.45" cy="171" fill="#ADD1B2" rx="11" ry="11" style="stroke:#181818;stroke-width:1.0;"/><path d="M316.7938,166.6719 C315.8563,166.2344 315.2625,166.0938 314.3875,166.0938 C311.7625,166.0938 309.7625,168.1719 309.7625,170.8906 L309.7625,172.0156 C309.7625,174.5938 311.8719,176.4844 314.7625,176.4844 C315.9813,176.4844 317.1375,176.1875 317.8875,175.6406 C318.4656,175.2344 318.7938,174.7813 318.7938,174.3906 C318.7938,173.9375 318.4031,173.5469 317.9344,173.5469 C317.7156,173.5469 317.5125,173.625 317.325,173.8125 C316.8719,174.2969 316.8719,174.2969 316.6844,174.3906 C316.2625,174.6563 315.575,174.7813 314.8094,174.7813 C312.7625,174.7813 311.4656,173.6875 311.4656,171.9844 L311.4656,170.8906 C311.4656,169.1094 312.7156,167.7969 314.45,167.7969 C315.0281,167.7969 315.6375,167.9531 316.1063,168.2031 C316.5906,168.4844 316.7625,168.7031 316.8563,169.1094 C316.9188,169.5156 316.95,169.6406 317.0906,169.7656 C317.2313,169.9063 317.4656,170.0156 317.6844,170.0156 C317.95,170.0156 318.2156,169.875 318.3875,169.6563 C318.4969,169.5 318.5281,169.3125 318.5281,168.8906 L318.5281,167.4688 C318.5281,167.0313 318.5125,166.9063 318.4188,166.75 C318.2625,166.4844 317.9813,166.3438 317.6844,166.3438 C317.3875,166.3438 317.1844,166.4375 316.9656,166.75 L316.7938,166.6719 Z " fill="#000000"/><text fill="#000000" font-family="sans-serif" font-size="14" lengthAdjust="spacing" textLength="71" x="331.55" y="175.8467">OrderLine</text><line style="stroke:#181818;stroke-width:0.5;" x1="286.5" x2="418.5" y1="187" y2="187"/><text fill="#000000" font-family="sans-serif" font-size="14" lengthAdjust="spacing" textLength="13" x="291.5" y="203.9951">id</text><text fill="#000000" font-family="sans-serif" font-size="14" lengthAdjust="spacing" textLength="122" x="291.5" y="220.292">product: Product</text><text fill="#000000" font-family="sans-serif" font-size="14" lengthAdjust="spacing" textLength="60" x="291.5" y="236.5889">quantity</text><line style="stroke:#181818;stroke-width:0.5;" x1="286.5" x2="418.5" y1="243.8906" y2="243.8906"/></g><!--class Product--><g id="elem_Product"><rect codeLine="30" fill="#F1F1F1" height="113.1875" id="Product" rx="2.5" ry="2.5" style="stroke:#181818;stroke-width:0.5;" width="94" x="535.5" y="147"/><ellipse cx="553.2" cy="163" fill="#ADD1B2" rx="11" ry="11" style="stroke:#181818;stroke-width:1.0;"/><path d="M555.5438,158.6719 C554.6063,158.2344 554.0125,158.0938 553.1375,158.0938 C550.5125,158.0938 548.5125,160.1719 548.5125,162.8906 L548.5125,164.0156 C548.5125,166.5938 550.6219,168.4844 553.5125,168.4844 C554.7313,168.4844 555.8875,168.1875 556.6375,167.6406 C557.2156,167.2344 557.5438,166.7813 557.5438,166.3906 C557.5438,165.9375 557.1531,165.5469 556.6844,165.5469 C556.4656,165.5469 556.2625,165.625 556.075,165.8125 C555.6219,166.2969 555.6219,166.2969 555.4344,166.3906 C555.0125,166.6563 554.325,166.7813 553.5594,166.7813 C551.5125,166.7813 550.2156,165.6875 550.2156,163.9844 L550.2156,162.8906 C550.2156,161.1094 551.4656,159.7969 553.2,159.7969 C553.7781,159.7969 554.3875,159.9531 554.8563,160.2031 C555.3406,160.4844 555.5125,160.7031 555.6063,161.1094 C555.6688,161.5156 555.7,161.6406 555.8406,161.7656 C555.9813,161.9063 556.2156,162.0156 556.4344,162.0156 C556.7,162.0156 556.9656,161.875 557.1375,161.6563 C557.2469,161.5 557.2781,161.3125 557.2781,160.8906 L557.2781,159.4688 C557.2781,159.0313 557.2625,158.9063 557.1688,158.75 C557.0125,158.4844 556.7313,158.3438 556.4344,158.3438 C556.1375,158.3438 555.9344,158.4375 555.7156,158.75 L555.5438,158.6719 Z " fill="#000000"/><text fill="#000000" font-family="sans-serif" font-size="14" lengthAdjust="spacing" textLength="56" x="567.8" y="167.8467">Product</text><line style="stroke:#181818;stroke-width:0.5;" x1="536.5" x2="628.5" y1="179" y2="179"/><text fill="#000000" font-family="sans-serif" font-size="14" lengthAdjust="spacing" textLength="13" x="541.5" y="195.9951">id</text><text fill="#000000" font-family="sans-serif" font-size="14" lengthAdjust="spacing" textLength="40" x="541.5" y="212.292">name</text><text fill="#000000" font-family="sans-serif" font-size="14" lengthAdjust="spacing" textLength="82" x="541.5" y="228.5889">description</text><text fill="#000000" font-family="sans-serif" font-size="14" lengthAdjust="spacing" textLength="37" x="541.5" y="244.8857">price</text><line style="stroke:#181818;stroke-width:0.5;" x1="536.5" x2="628.5" y1="252.1875" y2="252.1875"/></g><!--reverse link Customer to ContactPerson--><g id="link_Customer_ContactPerson"><path codeLine="37" d="M466.443,63.5 C482.282,63.5 498.147,63.5 512.817,63.5 " fill="none" id="Customer-backto-ContactPerson" style="stroke:#181818;stroke-width:1.0;"/><polygon fill="#181818" points="453.172,63.5,459.172,67.5,465.172,63.5,459.172,59.5,453.172,63.5" style="stroke:#181818;stroke-width:1.0;"/></g><!--link Order to Customer--><g id="link_Order_Customer"><path codeLine="39" d="M192.182,107.931 C211.508,102.542 231.99,96.829 251.601,91.36 " fill="none" id="Order-Customer" style="stroke:#181818;stroke-width:1.0;"/></g><!--reverse link Order to OrderLine--><g id="link_Order_OrderLine"><path codeLine="41" d="M204.963,162.633 C232.121,170.207 260.632,178.1583 285.212,185.0132 " fill="none" id="Order-backto-OrderLine" style="stroke:#181818;stroke-width:1.0;"/><polygon fill="#181818" points="192.182,159.069,196.8867,164.5339,203.7408,162.293,199.0361,156.8281,192.182,159.069" style="stroke:#181818;stroke-width:1.0;"/></g><!--link OrderLine to Product--><g id="link_OrderLine_Product"><path codeLine="43" d="M419.753,203.5 C456.831,203.5 502.132,203.5 535.351,203.5 " fill="none" id="OrderLine-Product" style="stroke:#181818;stroke-width:1.0;"/></g><!--SRC=[TL3B3i8W4Bpp5PnD-WEzUZLfxyO3mggR55PXEHZZlriUqZHLBao6PMPs9hYmP98UhpUM1ZreHd92w4c58FVaM6aUmGToyYNaVD3aooaBujq6Os2ou7_C901MuPIHBegXNsiVJulMuCr6ADep-0oDugAfB4N7HRIwzor7fYa97T31x3OqlB5AxDhkxib4pRqS2yZa8oh7oC_bTttzixE1e3tUSvr557Lkh7Mrwxfr2qAKtHF_NQHIQRQbhMGEFlCrnmS0]--></g></svg>