<?xml version="1.0" encoding="us-ascii" standalone="no"?><svg xmlns="http://www.w3.org/2000/svg" xmlns:xlink="http://www.w3.org/1999/xlink" contentStyleType="text/css" height="226px" preserveAspectRatio="none" style="width:541px;height:226px;background:#FFFFFF;" version="1.1" viewBox="0 0 541 226" width="541px" zoomAndPan="magnify"><defs/><g><!--class Customer--><g id="elem_Customer"><rect codeLine="3" fill="#F1F1F1" height="80.5938" id="Customer" rx="2.5" ry="2.5" style="stroke:#181818;stroke-width:0.5;" width="102" x="268" y="7"/><ellipse cx="283" cy="23" fill="#ADD1B2" rx="11" ry="11" style="stroke:#181818;stroke-width:1.0;"/><path d="M285.3438,18.6719 C284.4063,18.2344 283.8125,18.0938 282.9375,18.0938 C280.3125,18.0938 278.3125,20.1719 278.3125,22.8906 L278.3125,24.0156 C278.3125,26.5938 280.4219,28.4844 283.3125,28.4844 C284.5313,28.4844 285.6875,28.1875 286.4375,27.6406 C287.0156,27.2344 287.3438,26.7813 287.3438,26.3906 C287.3438,25.9375 286.9531,25.5469 286.4844,25.5469 C286.2656,25.5469 286.0625,25.625 285.875,25.8125 C285.4219,26.2969 285.4219,26.2969 285.2344,26.3906 C284.8125,26.6563 284.125,26.7813 283.3594,26.7813 C281.3125,26.7813 280.0156,25.6875 280.0156,23.9844 L280.0156,22.8906 C280.0156,21.1094 281.2656,19.7969 283,19.7969 C283.5781,19.7969 284.1875,19.9531 284.6563,20.2031 C285.1406,20.4844 285.3125,20.7031 285.4063,21.1094 C285.4688,21.5156 285.5,21.6406 285.6406,21.7656 C285.7813,21.9063 286.0156,22.0156 286.2344,22.0156 C286.5,22.0156 286.7656,21.875 286.9375,21.6563 C287.0469,21.5 287.0781,21.3125 287.0781,20.8906 L287.0781,19.4688 C287.0781,19.0313 287.0625,18.9063 286.9688,18.75 C286.8125,18.4844 286.5313,18.3438 286.2344,18.3438 C285.9375,18.3438 285.7344,18.4375 285.5156,18.75 L285.3438,18.6719 Z " fill="#000000"/><text fill="#000000" font-family="sans-serif" font-size="14" lengthAdjust="spacing" textLength="70" x="297" y="27.8467">Customer</text><line style="stroke:#181818;stroke-width:0.5;" x1="269" x2="369" y1="39" y2="39"/><text fill="#000000" font-family="sans-serif" font-size="14" lengthAdjust="spacing" textLength="13" x="274" y="55.9951">id</text><text fill="#000000" font-family="sans-serif" font-size="14" lengthAdjust="spacing" textLength="40" x="274" y="72.292">name</text><line style="stroke:#181818;stroke-width:0.5;" x1="269" x2="369" y1="79.5938" y2="79.5938"/></g><!--class Order--><g id="elem_Order"><rect codeLine="8" fill="#F1F1F1" height="145.7813" id="Order" rx="2.5" ry="2.5" style="stroke:#181818;stroke-width:0.5;" width="185" x="7" y="36.5"/><ellipse cx="74.75" cy="52.5" fill="#ADD1B2" rx="11" ry="11" style="stroke:#181818;stroke-width:1.0;"/><path d="M77.0938,48.1719 C76.1563,47.7344 75.5625,47.5938 74.6875,47.5938 C72.0625,47.5938 70.0625,49.6719 70.0625,52.3906 L70.0625,53.5156 C70.0625,56.0938 72.1719,57.9844 75.0625,57.9844 C76.2813,57.9844 77.4375,57.6875 78.1875,57.1406 C78.7656,56.7344 79.0938,56.2813 79.0938,55.8906 C79.0938,55.4375 78.7031,55.0469 78.2344,55.0469 C78.0156,55.0469 77.8125,55.125 77.625,55.3125 C77.1719,55.7969 77.1719,55.7969 76.9844,55.8906 C76.5625,56.1563 75.875,56.2813 75.1094,56.2813 C73.0625,56.2813 71.7656,55.1875 71.7656,53.4844 L71.7656,52.3906 C71.7656,50.6094 73.0156,49.2969 74.75,49.2969 C75.3281,49.2969 75.9375,49.4531 76.4063,49.7031 C76.8906,49.9844 77.0625,50.2031 77.1563,50.6094 C77.2188,51.0156 77.25,51.1406 77.3906,51.2656 C77.5313,51.4063 77.7656,51.5156 77.9844,51.5156 C78.25,51.5156 78.5156,51.375 78.6875,51.1563 C78.7969,51 78.8281,50.8125 78.8281,50.3906 L78.8281,48.9688 C78.8281,48.5313 78.8125,48.4063 78.7188,48.25 C78.5625,47.9844 78.2813,47.8438 77.9844,47.8438 C77.6875,47.8438 77.4844,47.9375 77.2656,48.25 L77.0938,48.1719 Z " fill="#000000"/><text fill="#000000" font-family="sans-serif" font-size="14" lengthAdjust="spacing" textLength="41" x="95.25" y="57.3467">Order</text><line style="stroke:#181818;stroke-width:0.5;" x1="8" x2="191" y1="68.5" y2="68.5"/><text fill="#000000" font-family="sans-serif" font-size="14" lengthAdjust="spacing" textLength="13" x="13" y="85.4951">id</text><text fill="#000000" font-family="sans-serif" font-size="14" lengthAdjust="spacing" textLength="56" x="13" y="101.792">number</text><text fill="#000000" font-family="sans-serif" font-size="14" lengthAdjust="spacing" textLength="33" x="13" y="118.0889">date</text><text fill="#000000" font-family="sans-serif" font-size="14" lengthAdjust="spacing" textLength="55" x="13" y="134.3857">amount</text><text fill="#000000" font-family="sans-serif" font-size="14" lengthAdjust="spacing" textLength="147" x="13" y="150.6826">customer: Customer</text><text fill="#000000" font-family="sans-serif" font-size="14" lengthAdjust="spacing" textLength="173" x="13" y="166.9795">orderLines: OrderLines[]</text><line style="stroke:#181818;stroke-width:0.5;" x1="8" x2="191" y1="174.2813" y2="174.2813"/></g><!--class OrderLine--><g id="elem_OrderLine"><rect codeLine="17" fill="#F1F1F1" height="96.8906" id="OrderLine" rx="2.5" ry="2.5" style="stroke:#181818;stroke-width:0.5;" width="134" x="252" y="123"/><ellipse cx="280.95" cy="139" fill="#ADD1B2" rx="11" ry="11" style="stroke:#181818;stroke-width:1.0;"/><path d="M283.2938,134.6719 C282.3563,134.2344 281.7625,134.0938 280.8875,134.0938 C278.2625,134.0938 276.2625,136.1719 276.2625,138.8906 L276.2625,140.0156 C276.2625,142.5938 278.3719,144.4844 281.2625,144.4844 C282.4813,144.4844 283.6375,144.1875 284.3875,143.6406 C284.9656,143.2344 285.2938,142.7813 285.2938,142.3906 C285.2938,141.9375 284.9031,141.5469 284.4344,141.5469 C284.2156,141.5469 284.0125,141.625 283.825,141.8125 C283.3719,142.2969 283.3719,142.2969 283.1844,142.3906 C282.7625,142.6563 282.075,142.7813 281.3094,142.7813 C279.2625,142.7813 277.9656,141.6875 277.9656,139.9844 L277.9656,138.8906 C277.9656,137.1094 279.2156,135.7969 280.95,135.7969 C281.5281,135.7969 282.1375,135.9531 282.6063,136.2031 C283.0906,136.4844 283.2625,136.7031 283.3563,137.1094 C283.4188,137.5156 283.45,137.6406 283.5906,137.7656 C283.7313,137.9063 283.9656,138.0156 284.1844,138.0156 C284.45,138.0156 284.7156,137.875 284.8875,137.6563 C284.9969,137.5 285.0281,137.3125 285.0281,136.8906 L285.0281,135.4688 C285.0281,135.0313 285.0125,134.9063 284.9188,134.75 C284.7625,134.4844 284.4813,134.3438 284.1844,134.3438 C283.8875,134.3438 283.6844,134.4375 283.4656,134.75 L283.2938,134.6719 Z " fill="#000000"/><text fill="#000000" font-family="sans-serif" font-size="14" lengthAdjust="spacing" textLength="71" x="298.05" y="143.8467">OrderLine</text><line style="stroke:#181818;stroke-width:0.5;" x1="253" x2="385" y1="155" y2="155"/><text fill="#000000" font-family="sans-serif" font-size="14" lengthAdjust="spacing" textLength="13" x="258" y="171.9951">id</text><text fill="#000000" font-family="sans-serif" font-size="14" lengthAdjust="spacing" textLength="122" x="258" y="188.292">product: Product</text><text fill="#000000" font-family="sans-serif" font-size="14" lengthAdjust="spacing" textLength="60" x="258" y="204.5889">quantity</text><line style="stroke:#181818;stroke-width:0.5;" x1="253" x2="385" y1="211.8906" y2="211.8906"/></g><!--class Product--><g id="elem_Product"><rect codeLine="23" fill="#F1F1F1" height="96.8906" id="Product" rx="2.5" ry="2.5" style="stroke:#181818;stroke-width:0.5;" width="88" x="446" y="123"/><ellipse cx="461" cy="139" fill="#ADD1B2" rx="11" ry="11" style="stroke:#181818;stroke-width:1.0;"/><path d="M463.3438,134.6719 C462.4063,134.2344 461.8125,134.0938 460.9375,134.0938 C458.3125,134.0938 456.3125,136.1719 456.3125,138.8906 L456.3125,140.0156 C456.3125,142.5938 458.4219,144.4844 461.3125,144.4844 C462.5313,144.4844 463.6875,144.1875 464.4375,143.6406 C465.0156,143.2344 465.3438,142.7813 465.3438,142.3906 C465.3438,141.9375 464.9531,141.5469 464.4844,141.5469 C464.2656,141.5469 464.0625,141.625 463.875,141.8125 C463.4219,142.2969 463.4219,142.2969 463.2344,142.3906 C462.8125,142.6563 462.125,142.7813 461.3594,142.7813 C459.3125,142.7813 458.0156,141.6875 458.0156,139.9844 L458.0156,138.8906 C458.0156,137.1094 459.2656,135.7969 461,135.7969 C461.5781,135.7969 462.1875,135.9531 462.6563,136.2031 C463.1406,136.4844 463.3125,136.7031 463.4063,137.1094 C463.4688,137.5156 463.5,137.6406 463.6406,137.7656 C463.7813,137.9063 464.0156,138.0156 464.2344,138.0156 C464.5,138.0156 464.7656,137.875 464.9375,137.6563 C465.0469,137.5 465.0781,137.3125 465.0781,136.8906 L465.0781,135.4688 C465.0781,135.0313 465.0625,134.9063 464.9688,134.75 C464.8125,134.4844 464.5313,134.3438 464.2344,134.3438 C463.9375,134.3438 463.7344,134.4375 463.5156,134.75 L463.3438,134.6719 Z " fill="#000000"/><text fill="#000000" font-family="sans-serif" font-size="14" lengthAdjust="spacing" textLength="56" x="475" y="143.8467">Product</text><line style="stroke:#181818;stroke-width:0.5;" x1="447" x2="533" y1="155" y2="155"/><text fill="#000000" font-family="sans-serif" font-size="14" lengthAdjust="spacing" textLength="13" x="452" y="171.9951">id</text><text fill="#000000" font-family="sans-serif" font-size="14" lengthAdjust="spacing" textLength="40" x="452" y="188.292">name</text><text fill="#000000" font-family="sans-serif" font-size="14" lengthAdjust="spacing" textLength="37" x="452" y="204.5889">price</text><line style="stroke:#181818;stroke-width:0.5;" x1="447" x2="533" y1="211.8906" y2="211.8906"/></g><!--link Order to Customer--><g id="link_Order_Customer"><path codeLine="29" d="M192.109,83.386 C218.115,75.973 245.462,68.178 267.999,61.753 " fill="none" id="Order-Customer" style="stroke:#181818;stroke-width:1.0;"/></g><!--reverse link Order to OrderLine--><g id="link_Order_OrderLine"><path codeLine="31" d="M204.899,139.2598 C220.914,143.8249 237.055,148.426 251.93,152.6662 " fill="none" id="Order-backto-OrderLine" style="stroke:#181818;stroke-width:1.0;"/><polygon fill="#181818" points="192.109,135.6139,196.7824,141.1057,203.6492,138.904,198.9758,133.4122,192.109,135.6139" style="stroke:#181818;stroke-width:1.0;"/></g><!--link OrderLine to Product--><g id="link_OrderLine_Product"><path codeLine="33" d="M386.308,171.5 C406.282,171.5 427.68,171.5 445.746,171.5 " fill="none" id="OrderLine-Product" style="stroke:#181818;stroke-width:1.0;"/></g><!--SRC=[RO-z3W8X48Hxdc9hati1MbiJxOq5mggR7A2m5CRuxd8BtiKV6YOVo-pCY2S6Zf3eV65mbD0onQ2K7KtEi2wPeyS43mNra9Ch68_g-PxP9lSpKFmHaqXd64KO7qjWaRQxwjbVS9oCDXGmwsOgUd_uMZNHptNN55snh67NXC1RCO69xyll_lgdIpCXAwrQds5OmdMqgcnEqA64gRnxlm00]--></g></svg>