<?xml version="1.0" encoding="us-ascii" standalone="no"?><svg xmlns="http://www.w3.org/2000/svg" xmlns:xlink="http://www.w3.org/1999/xlink" contentStyleType="text/css" height="143px" preserveAspectRatio="none" style="width:335px;height:143px;background:#FFFFFF;" version="1.1" viewBox="0 0 335 143" width="335px" zoomAndPan="magnify"><defs/><g><!--class Customer--><g id="elem_Customer"><rect codeLine="3" fill="#F1F1F1" height="80.5938" id="Customer" rx="2.5" ry="2.5" style="stroke:#181818;stroke-width:0.5;" width="102" x="226" y="31"/><ellipse cx="241" cy="47" fill="#ADD1B2" rx="11" ry="11" style="stroke:#181818;stroke-width:1.0;"/><path d="M243.3438,42.6719 C242.4063,42.2344 241.8125,42.0938 240.9375,42.0938 C238.3125,42.0938 236.3125,44.1719 236.3125,46.8906 L236.3125,48.0156 C236.3125,50.5938 238.4219,52.4844 241.3125,52.4844 C242.5313,52.4844 243.6875,52.1875 244.4375,51.6406 C245.0156,51.2344 245.3438,50.7813 245.3438,50.3906 C245.3438,49.9375 244.9531,49.5469 244.4844,49.5469 C244.2656,49.5469 244.0625,49.625 243.875,49.8125 C243.4219,50.2969 243.4219,50.2969 243.2344,50.3906 C242.8125,50.6563 242.125,50.7813 241.3594,50.7813 C239.3125,50.7813 238.0156,49.6875 238.0156,47.9844 L238.0156,46.8906 C238.0156,45.1094 239.2656,43.7969 241,43.7969 C241.5781,43.7969 242.1875,43.9531 242.6563,44.2031 C243.1406,44.4844 243.3125,44.7031 243.4063,45.1094 C243.4688,45.5156 243.5,45.6406 243.6406,45.7656 C243.7813,45.9063 244.0156,46.0156 244.2344,46.0156 C244.5,46.0156 244.7656,45.875 244.9375,45.6563 C245.0469,45.5 245.0781,45.3125 245.0781,44.8906 L245.0781,43.4688 C245.0781,43.0313 245.0625,42.9063 244.9688,42.75 C244.8125,42.4844 244.5313,42.3438 244.2344,42.3438 C243.9375,42.3438 243.7344,42.4375 243.5156,42.75 L243.3438,42.6719 Z " fill="#000000"/><text fill="#000000" font-family="sans-serif" font-size="14" lengthAdjust="spacing" textLength="70" x="255" y="51.8467">Customer</text><line style="stroke:#181818;stroke-width:0.5;" x1="227" x2="327" y1="63" y2="63"/><text fill="#000000" font-family="sans-serif" font-size="14" lengthAdjust="spacing" textLength="13" x="232" y="79.9951">id</text><text fill="#000000" font-family="sans-serif" font-size="14" lengthAdjust="spacing" textLength="40" x="232" y="96.292">name</text><line style="stroke:#181818;stroke-width:0.5;" x1="227" x2="327" y1="103.5938" y2="103.5938"/></g><!--class Order--><g id="elem_Order"><rect codeLine="8" fill="#F1F1F1" height="129.4844" id="Order" rx="2.5" ry="2.5" style="stroke:#181818;stroke-width:0.5;" width="159" x="7" y="7"/><ellipse cx="61.75" cy="23" fill="#ADD1B2" rx="11" ry="11" style="stroke:#181818;stroke-width:1.0;"/><path d="M64.0938,18.6719 C63.1563,18.2344 62.5625,18.0938 61.6875,18.0938 C59.0625,18.0938 57.0625,20.1719 57.0625,22.8906 L57.0625,24.0156 C57.0625,26.5938 59.1719,28.4844 62.0625,28.4844 C63.2813,28.4844 64.4375,28.1875 65.1875,27.6406 C65.7656,27.2344 66.0938,26.7813 66.0938,26.3906 C66.0938,25.9375 65.7031,25.5469 65.2344,25.5469 C65.0156,25.5469 64.8125,25.625 64.625,25.8125 C64.1719,26.2969 64.1719,26.2969 63.9844,26.3906 C63.5625,26.6563 62.875,26.7813 62.1094,26.7813 C60.0625,26.7813 58.7656,25.6875 58.7656,23.9844 L58.7656,22.8906 C58.7656,21.1094 60.0156,19.7969 61.75,19.7969 C62.3281,19.7969 62.9375,19.9531 63.4063,20.2031 C63.8906,20.4844 64.0625,20.7031 64.1563,21.1094 C64.2188,21.5156 64.25,21.6406 64.3906,21.7656 C64.5313,21.9063 64.7656,22.0156 64.9844,22.0156 C65.25,22.0156 65.5156,21.875 65.6875,21.6563 C65.7969,21.5 65.8281,21.3125 65.8281,20.8906 L65.8281,19.4688 C65.8281,19.0313 65.8125,18.9063 65.7188,18.75 C65.5625,18.4844 65.2813,18.3438 64.9844,18.3438 C64.6875,18.3438 64.4844,18.4375 64.2656,18.75 L64.0938,18.6719 Z " fill="#000000"/><text fill="#000000" font-family="sans-serif" font-size="14" lengthAdjust="spacing" textLength="41" x="82.25" y="27.8467">Order</text><line style="stroke:#181818;stroke-width:0.5;" x1="8" x2="165" y1="39" y2="39"/><text fill="#000000" font-family="sans-serif" font-size="14" lengthAdjust="spacing" textLength="13" x="13" y="55.9951">id</text><text fill="#000000" font-family="sans-serif" font-size="14" lengthAdjust="spacing" textLength="56" x="13" y="72.292">number</text><text fill="#000000" font-family="sans-serif" font-size="14" lengthAdjust="spacing" textLength="33" x="13" y="88.5889">date</text><text fill="#000000" font-family="sans-serif" font-size="14" lengthAdjust="spacing" textLength="55" x="13" y="104.8857">amount</text><text fill="#000000" font-family="sans-serif" font-size="14" lengthAdjust="spacing" textLength="147" x="13" y="121.1826">customer: Customer</text><line style="stroke:#181818;stroke-width:0.5;" x1="8" x2="165" y1="128.4844" y2="128.4844"/></g><!--link Order to Customer--><g id="link_Order_Customer"><path codeLine="16" d="M166.076,71.5 C186.28,71.5 207.473,71.5 225.799,71.5 " fill="none" id="Order-Customer" style="stroke:#181818;stroke-width:1.0;"/></g><!--SRC=[POp13O0W40J_L74Dq81V2x264qub0IuvZfUnTnMLZ_lPoMOpaHO5PP2mRWe-23aDd8rn4Kk1iHRbH0AxWIl1jygOo1pVPnB_EzGqapJqgDG04zUi3Trh7Rh_jZqUQ_ju0W00]--></g></svg>