<?xml version="1.0" encoding="us-ascii" standalone="no"?><svg xmlns="http://www.w3.org/2000/svg" xmlns:xlink="http://www.w3.org/1999/xlink" contentStyleType="text/css" height="424px" preserveAspectRatio="none" style="width:494px;height:424px;background:#FFFFFF;" version="1.1" viewBox="0 0 494 424" width="494px" zoomAndPan="magnify"><defs/><g><!--class Categorized--><g id="elem_Categorized"><rect codeLine="1" fill="#F1F1F1" height="64.2969" id="Categorized" rx="2.5" ry="2.5" style="stroke:#181818;stroke-width:0.5;" width="118" x="115" y="180.5"/><ellipse cx="130" cy="196.5" fill="#B4A7E5" rx="11" ry="11" style="stroke:#181818;stroke-width:1.0;"/><path d="M130.9531,193.2813 L132.6719,193.2813 C133.0625,193.2813 133.25,193.25 133.375,193.1719 C133.6406,193.0156 133.7813,192.7344 133.7813,192.4375 C133.7813,192.1719 133.6719,191.9063 133.4375,191.7344 C133.2656,191.625 133.125,191.5938 132.6719,191.5938 L127.5313,191.5938 C127.0938,191.5938 126.9688,191.6094 126.8125,191.7031 C126.5625,191.8594 126.4063,192.1563 126.4063,192.4375 C126.4063,192.7188 126.5469,192.9688 126.7656,193.1406 C126.9219,193.25 127.1094,193.2813 127.5313,193.2813 L129.25,193.2813 L129.25,199.7969 L127.5313,199.7969 C127.0938,199.7969 126.9688,199.8125 126.8125,199.9219 C126.5625,200.0781 126.4063,200.3594 126.4063,200.6563 C126.4063,200.9063 126.5469,201.1719 126.7656,201.3281 C126.9219,201.4531 127.125,201.5 127.5313,201.5 L132.6719,201.5 C133.4219,201.5 133.7813,201.2188 133.7813,200.6563 C133.7813,200.375 133.6719,200.125 133.4375,199.9531 C133.2656,199.8281 133.125,199.7969 132.6719,199.7969 L130.9531,199.7969 L130.9531,193.2813 Z " fill="#000000"/><text fill="#000000" font-family="sans-serif" font-size="14" font-style="italic" lengthAdjust="spacing" textLength="86" x="144" y="201.3467">Categorized</text><line style="stroke:#181818;stroke-width:0.5;" x1="116" x2="232" y1="212.5" y2="212.5"/><text fill="#000000" font-family="sans-serif" font-size="14" lengthAdjust="spacing" textLength="64" x="121" y="229.4951">category</text><line style="stroke:#181818;stroke-width:0.5;" x1="116" x2="232" y1="236.7969" y2="236.7969"/></g><!--class Entity--><g id="elem_Entity"><rect codeLine="5" fill="#F1F1F1" height="64.2969" id="Entity" rx="2.5" ry="2.5" style="stroke:#181818;stroke-width:0.5;" width="147" x="100.5" y="337.5"/><ellipse cx="147.75" cy="353.5" fill="#ADD1B2" rx="11" ry="11" style="stroke:#181818;stroke-width:1.0;"/><path d="M146.5469,354.375 L148,354.375 L148,354.4844 C148,354.8906 148.0313,355.0469 148.1094,355.2031 C148.2656,355.4531 148.5469,355.6094 148.8438,355.6094 C149.0938,355.6094 149.3594,355.4688 149.5156,355.25 C149.6406,355.0938 149.6719,354.9375 149.6719,354.4844 L149.6719,352.5625 C149.6719,352.4063 149.6719,352.3594 149.6563,352.2031 C149.5938,351.7344 149.2813,351.4219 148.8281,351.4219 C148.5781,351.4219 148.3125,351.5625 148.1406,351.7813 C148.0313,351.9531 148,352.1094 148,352.5625 L148,352.6875 L146.5469,352.6875 L146.5469,350.2813 L150.5313,350.2813 L150.5313,351.1406 C150.5313,351.5469 150.5625,351.7188 150.6406,351.875 C150.8125,352.125 151.0938,352.2813 151.375,352.2813 C151.6406,352.2813 151.9063,352.1406 152.0781,351.9219 C152.1875,351.75 152.2188,351.6094 152.2188,351.1406 L152.2188,348.5938 L144.5938,348.5938 C144.1563,348.5938 144.0313,348.6094 143.875,348.7031 C143.625,348.8594 143.4688,349.1563 143.4688,349.4375 C143.4688,349.7188 143.6094,349.9688 143.8281,350.1406 C143.9844,350.25 144.1719,350.2813 144.5938,350.2813 L144.8438,350.2813 L144.8438,356.7969 L144.5938,356.7969 C144.1875,356.7969 144.0313,356.8125 143.875,356.9219 C143.625,357.0938 143.4688,357.3594 143.4688,357.6563 C143.4688,357.9219 143.6094,358.1719 143.8281,358.3281 C143.9688,358.4531 144.2031,358.5 144.5938,358.5 L152.5938,358.5 L152.5938,355.9219 C152.5938,355.4844 152.5625,355.3438 152.4844,355.1875 C152.3125,354.9375 152.0313,354.7813 151.75,354.7813 C151.4844,354.7813 151.2188,354.8906 151.0469,355.1406 C150.9375,355.2969 150.9063,355.4375 150.9063,355.9219 L150.9063,356.7969 L146.5469,356.7969 L146.5469,354.375 Z " fill="#000000"/><text fill="#000000" font-family="sans-serif" font-size="14" lengthAdjust="spacing" textLength="44" x="168.25" y="358.3467">Entity</text><line style="stroke:#181818;stroke-width:0.5;" x1="101.5" x2="246.5" y1="369.5" y2="369.5"/><text fill="#000000" font-family="sans-serif" font-size="14" lengthAdjust="spacing" textLength="135" x="106.5" y="386.4951">dynamicAttributes</text><line style="stroke:#181818;stroke-width:0.5;" x1="101.5" x2="246.5" y1="393.7969" y2="393.7969"/></g><!--class CategoryAttributeValue--><g id="elem_CategoryAttributeValue"><rect codeLine="9" fill="#F1F1F1" height="96.8906" id="CategoryAttributeValue" rx="2.5" ry="2.5" style="stroke:#181818;stroke-width:0.5;" width="205" x="282.5" y="321"/><ellipse cx="297.5" cy="337" fill="#ADD1B2" rx="11" ry="11" style="stroke:#181818;stroke-width:1.0;"/><path d="M299.8438,332.6719 C298.9063,332.2344 298.3125,332.0938 297.4375,332.0938 C294.8125,332.0938 292.8125,334.1719 292.8125,336.8906 L292.8125,338.0156 C292.8125,340.5938 294.9219,342.4844 297.8125,342.4844 C299.0313,342.4844 300.1875,342.1875 300.9375,341.6406 C301.5156,341.2344 301.8438,340.7813 301.8438,340.3906 C301.8438,339.9375 301.4531,339.5469 300.9844,339.5469 C300.7656,339.5469 300.5625,339.625 300.375,339.8125 C299.9219,340.2969 299.9219,340.2969 299.7344,340.3906 C299.3125,340.6563 298.625,340.7813 297.8594,340.7813 C295.8125,340.7813 294.5156,339.6875 294.5156,337.9844 L294.5156,336.8906 C294.5156,335.1094 295.7656,333.7969 297.5,333.7969 C298.0781,333.7969 298.6875,333.9531 299.1563,334.2031 C299.6406,334.4844 299.8125,334.7031 299.9063,335.1094 C299.9688,335.5156 300,335.6406 300.1406,335.7656 C300.2813,335.9063 300.5156,336.0156 300.7344,336.0156 C301,336.0156 301.2656,335.875 301.4375,335.6563 C301.5469,335.5 301.5781,335.3125 301.5781,334.8906 L301.5781,333.4688 C301.5781,333.0313 301.5625,332.9063 301.4688,332.75 C301.3125,332.4844 301.0313,332.3438 300.7344,332.3438 C300.4375,332.3438 300.2344,332.4375 300.0156,332.75 L299.8438,332.6719 Z " fill="#000000"/><text fill="#000000" font-family="sans-serif" font-size="14" lengthAdjust="spacing" textLength="173" x="311.5" y="341.8467">CategoryAttributeValue</text><line style="stroke:#181818;stroke-width:0.5;" x1="283.5" x2="486.5" y1="353" y2="353"/><text fill="#000000" font-family="sans-serif" font-size="14" lengthAdjust="spacing" textLength="66" x="288.5" y="369.9951">attribute</text><text fill="#000000" font-family="sans-serif" font-size="14" lengthAdjust="spacing" textLength="57" x="288.5" y="386.292">entityId</text><text fill="#000000" font-family="sans-serif" font-size="14" lengthAdjust="spacing" textLength="37" x="288.5" y="402.5889">value</text><line style="stroke:#181818;stroke-width:0.5;" x1="283.5" x2="486.5" y1="409.8906" y2="409.8906"/></g><!--class Category--><g id="elem_Category"><rect codeLine="15" fill="#F1F1F1" height="96.8906" id="Category" rx="2.5" ry="2.5" style="stroke:#181818;stroke-width:0.5;" width="98" x="336" y="7"/><ellipse cx="351" cy="23" fill="#ADD1B2" rx="11" ry="11" style="stroke:#181818;stroke-width:1.0;"/><path d="M353.3438,18.6719 C352.4063,18.2344 351.8125,18.0938 350.9375,18.0938 C348.3125,18.0938 346.3125,20.1719 346.3125,22.8906 L346.3125,24.0156 C346.3125,26.5938 348.4219,28.4844 351.3125,28.4844 C352.5313,28.4844 353.6875,28.1875 354.4375,27.6406 C355.0156,27.2344 355.3438,26.7813 355.3438,26.3906 C355.3438,25.9375 354.9531,25.5469 354.4844,25.5469 C354.2656,25.5469 354.0625,25.625 353.875,25.8125 C353.4219,26.2969 353.4219,26.2969 353.2344,26.3906 C352.8125,26.6563 352.125,26.7813 351.3594,26.7813 C349.3125,26.7813 348.0156,25.6875 348.0156,23.9844 L348.0156,22.8906 C348.0156,21.1094 349.2656,19.7969 351,19.7969 C351.5781,19.7969 352.1875,19.9531 352.6563,20.2031 C353.1406,20.4844 353.3125,20.7031 353.4063,21.1094 C353.4688,21.5156 353.5,21.6406 353.6406,21.7656 C353.7813,21.9063 354.0156,22.0156 354.2344,22.0156 C354.5,22.0156 354.7656,21.875 354.9375,21.6563 C355.0469,21.5 355.0781,21.3125 355.0781,20.8906 L355.0781,19.4688 C355.0781,19.0313 355.0625,18.9063 354.9688,18.75 C354.8125,18.4844 354.5313,18.3438 354.2344,18.3438 C353.9375,18.3438 353.7344,18.4375 353.5156,18.75 L353.3438,18.6719 Z " fill="#000000"/><text fill="#000000" font-family="sans-serif" font-size="14" lengthAdjust="spacing" textLength="66" x="365" y="27.8467">Category</text><line style="stroke:#181818;stroke-width:0.5;" x1="337" x2="433" y1="39" y2="39"/><text fill="#000000" font-family="sans-serif" font-size="14" lengthAdjust="spacing" textLength="40" x="342" y="55.9951">name</text><text fill="#000000" font-family="sans-serif" font-size="14" lengthAdjust="spacing" textLength="80" x="342" y="72.292">entityType</text><text fill="#000000" font-family="sans-serif" font-size="14" lengthAdjust="spacing" textLength="64" x="342" y="88.5889">isDefault</text><line style="stroke:#181818;stroke-width:0.5;" x1="337" x2="433" y1="95.8906" y2="95.8906"/></g><!--class CategoryAttribute--><g id="elem_CategoryAttribute"><rect codeLine="21" fill="#F1F1F1" height="96.8906" id="CategoryAttribute" rx="2.5" ry="2.5" style="stroke:#181818;stroke-width:0.5;" width="166" x="302" y="164"/><ellipse cx="317" cy="180" fill="#ADD1B2" rx="11" ry="11" style="stroke:#181818;stroke-width:1.0;"/><path d="M319.3438,175.6719 C318.4063,175.2344 317.8125,175.0938 316.9375,175.0938 C314.3125,175.0938 312.3125,177.1719 312.3125,179.8906 L312.3125,181.0156 C312.3125,183.5938 314.4219,185.4844 317.3125,185.4844 C318.5313,185.4844 319.6875,185.1875 320.4375,184.6406 C321.0156,184.2344 321.3438,183.7813 321.3438,183.3906 C321.3438,182.9375 320.9531,182.5469 320.4844,182.5469 C320.2656,182.5469 320.0625,182.625 319.875,182.8125 C319.4219,183.2969 319.4219,183.2969 319.2344,183.3906 C318.8125,183.6563 318.125,183.7813 317.3594,183.7813 C315.3125,183.7813 314.0156,182.6875 314.0156,180.9844 L314.0156,179.8906 C314.0156,178.1094 315.2656,176.7969 317,176.7969 C317.5781,176.7969 318.1875,176.9531 318.6563,177.2031 C319.1406,177.4844 319.3125,177.7031 319.4063,178.1094 C319.4688,178.5156 319.5,178.6406 319.6406,178.7656 C319.7813,178.9063 320.0156,179.0156 320.2344,179.0156 C320.5,179.0156 320.7656,178.875 320.9375,178.6563 C321.0469,178.5 321.0781,178.3125 321.0781,177.8906 L321.0781,176.4688 C321.0781,176.0313 321.0625,175.9063 320.9688,175.75 C320.8125,175.4844 320.5313,175.3438 320.2344,175.3438 C319.9375,175.3438 319.7344,175.4375 319.5156,175.75 L319.3438,175.6719 Z " fill="#000000"/><text fill="#000000" font-family="sans-serif" font-size="14" lengthAdjust="spacing" textLength="134" x="331" y="184.8467">CategoryAttribute</text><line style="stroke:#181818;stroke-width:0.5;" x1="303" x2="467" y1="196" y2="196"/><text fill="#000000" font-family="sans-serif" font-size="14" lengthAdjust="spacing" textLength="64" x="308" y="212.9951">category</text><text fill="#000000" font-family="sans-serif" font-size="14" lengthAdjust="spacing" textLength="40" x="308" y="229.292">name</text><text fill="#000000" font-family="sans-serif" font-size="14" lengthAdjust="spacing" textLength="35" x="308" y="245.5889">code</text><line style="stroke:#181818;stroke-width:0.5;" x1="303" x2="467" y1="252.8906" y2="252.8906"/></g><g id="elem_GMN7"><path d="M6,200 L6,225.1328 A0,0 0 0 0 6,225.1328 L80,225.1328 A0,0 0 0 0 80,225.1328 L80,218 L114.945,212.5 L80,210 L80,210 L70,200 L6,200 A0,0 0 0 0 6,200 " fill="#FEFFDD" style="stroke:#181818;stroke-width:0.5;"/><path d="M70,200 L70,210 L80,210 L70,200 " fill="#FEFFDD" style="stroke:#181818;stroke-width:0.5;"/><text fill="#000000" font-family="sans-serif" font-size="13" lengthAdjust="spacing" textLength="53" x="12" y="217.0669">Optional</text></g><!--reverse link Categorized to Entity--><g id="link_Categorized_Entity"><path codeLine="29" d="M174,265.102 C174,289.061 174,316.753 174,337.445 " fill="none" id="Categorized-backto-Entity" style="stroke:#181818;stroke-width:1.0;stroke-dasharray:7.0,7.0;"/><polygon fill="none" points="167,264.867,174,244.867,181,264.867,167,264.867" style="stroke:#181818;stroke-width:1.0;"/></g><!--link Entity to CategoryAttributeValue--><g id="link_Entity_CategoryAttributeValue"><path codeLine="31" d="M247.768,369.5 C254.881,369.5 261.994,369.5 269.108,369.5 " fill="none" id="Entity-to-CategoryAttributeValue" style="stroke:#181818;stroke-width:1.0;"/><polygon fill="#181818" points="282.344,369.5,276.344,365.5,270.344,369.5,276.344,373.5,282.344,369.5" style="stroke:#181818;stroke-width:1.0;"/></g><!--link CategoryAttribute to CategoryAttributeValue--><g id="link_CategoryAttribute_CategoryAttributeValue"><path codeLine="33" d="M385,261.27 C385,280.216 385,301.957 385,320.8879 " fill="none" id="CategoryAttribute-CategoryAttributeValue" style="stroke:#181818;stroke-width:1.0;"/></g><!--reverse link Category to CategoryAttribute--><g id="link_Category_CategoryAttribute"><path codeLine="35" d="M385,117.513 C385,132.923 385,149.246 385,163.888 " fill="none" id="Category-backto-CategoryAttribute" style="stroke:#181818;stroke-width:1.0;"/><polygon fill="#181818" points="385,104.27,381,110.27,385,116.27,389,110.27,385,104.27" style="stroke:#181818;stroke-width:1.0;"/></g><!--SRC=[XL2x3i8m3Dpz5PcHsWz0B0WOc5WGkqaS52aaLUiYXSU_qpPfrVBC4lbyTxRFEAPIeoInGgQJBysLbBY1Q9wCI80703as7CGcVh6lWiEpaKlcqXnhfgebIejLrPk5eNT0MrFIOGzsLNJUggwujBHtcoHineqr-r34qbHhqbXR_h70wqqJF-bLDzNvXcX9i_1w4iXSx0estg456EEBUvwdK01IEDdio_c3TBHLblqbYzadqXC0]--></g></svg>