<?xml version="1.0" encoding="us-ascii" standalone="no"?><svg xmlns="http://www.w3.org/2000/svg" xmlns:xlink="http://www.w3.org/1999/xlink" contentStyleType="text/css" height="127px" preserveAspectRatio="none" style="width:395px;height:127px;background:#FFFFFF;" version="1.1" viewBox="0 0 395 127" width="395px" zoomAndPan="magnify"><defs/><g><!--class Employee--><g id="elem_Employee"><rect codeLine="3" fill="#F1F1F1" height="113.1875" id="Employee" rx="2.5" ry="2.5" style="stroke:#181818;stroke-width:0.5;" width="199" x="7" y="7"/><ellipse cx="66.25" cy="23" fill="#ADD1B2" rx="11" ry="11" style="stroke:#181818;stroke-width:1.0;"/><path d="M68.5938,18.6719 C67.6563,18.2344 67.0625,18.0938 66.1875,18.0938 C63.5625,18.0938 61.5625,20.1719 61.5625,22.8906 L61.5625,24.0156 C61.5625,26.5938 63.6719,28.4844 66.5625,28.4844 C67.7813,28.4844 68.9375,28.1875 69.6875,27.6406 C70.2656,27.2344 70.5938,26.7813 70.5938,26.3906 C70.5938,25.9375 70.2031,25.5469 69.7344,25.5469 C69.5156,25.5469 69.3125,25.625 69.125,25.8125 C68.6719,26.2969 68.6719,26.2969 68.4844,26.3906 C68.0625,26.6563 67.375,26.7813 66.6094,26.7813 C64.5625,26.7813 63.2656,25.6875 63.2656,23.9844 L63.2656,22.8906 C63.2656,21.1094 64.5156,19.7969 66.25,19.7969 C66.8281,19.7969 67.4375,19.9531 67.9063,20.2031 C68.3906,20.4844 68.5625,20.7031 68.6563,21.1094 C68.7188,21.5156 68.75,21.6406 68.8906,21.7656 C69.0313,21.9063 69.2656,22.0156 69.4844,22.0156 C69.75,22.0156 70.0156,21.875 70.1875,21.6563 C70.2969,21.5 70.3281,21.3125 70.3281,20.8906 L70.3281,19.4688 C70.3281,19.0313 70.3125,18.9063 70.2188,18.75 C70.0625,18.4844 69.7813,18.3438 69.4844,18.3438 C69.1875,18.3438 68.9844,18.4375 68.7656,18.75 L68.5938,18.6719 Z " fill="#000000"/><text fill="#000000" font-family="sans-serif" font-size="14" lengthAdjust="spacing" textLength="72" x="86.75" y="27.8467">Employee</text><line style="stroke:#181818;stroke-width:0.5;" x1="8" x2="205" y1="39" y2="39"/><text fill="#000000" font-family="sans-serif" font-size="14" lengthAdjust="spacing" textLength="13" x="13" y="55.9951">id</text><text fill="#000000" font-family="sans-serif" font-size="14" lengthAdjust="spacing" textLength="71" x="13" y="72.292">firstName</text><text fill="#000000" font-family="sans-serif" font-size="14" lengthAdjust="spacing" textLength="67" x="13" y="88.5889">lastName</text><text fill="#000000" font-family="sans-serif" font-size="14" lengthAdjust="spacing" textLength="187" x="13" y="104.8857">department: Department</text><line style="stroke:#181818;stroke-width:0.5;" x1="8" x2="205" y1="112.1875" y2="112.1875"/></g><!--class Department--><g id="elem_Department"><rect codeLine="10" fill="#F1F1F1" height="80.5938" id="Department" rx="2.5" ry="2.5" style="stroke:#181818;stroke-width:0.5;" width="122" x="266" y="23"/><ellipse cx="281" cy="39" fill="#ADD1B2" rx="11" ry="11" style="stroke:#181818;stroke-width:1.0;"/><path d="M283.3438,34.6719 C282.4063,34.2344 281.8125,34.0938 280.9375,34.0938 C278.3125,34.0938 276.3125,36.1719 276.3125,38.8906 L276.3125,40.0156 C276.3125,42.5938 278.4219,44.4844 281.3125,44.4844 C282.5313,44.4844 283.6875,44.1875 284.4375,43.6406 C285.0156,43.2344 285.3438,42.7813 285.3438,42.3906 C285.3438,41.9375 284.9531,41.5469 284.4844,41.5469 C284.2656,41.5469 284.0625,41.625 283.875,41.8125 C283.4219,42.2969 283.4219,42.2969 283.2344,42.3906 C282.8125,42.6563 282.125,42.7813 281.3594,42.7813 C279.3125,42.7813 278.0156,41.6875 278.0156,39.9844 L278.0156,38.8906 C278.0156,37.1094 279.2656,35.7969 281,35.7969 C281.5781,35.7969 282.1875,35.9531 282.6563,36.2031 C283.1406,36.4844 283.3125,36.7031 283.4063,37.1094 C283.4688,37.5156 283.5,37.6406 283.6406,37.7656 C283.7813,37.9063 284.0156,38.0156 284.2344,38.0156 C284.5,38.0156 284.7656,37.875 284.9375,37.6563 C285.0469,37.5 285.0781,37.3125 285.0781,36.8906 L285.0781,35.4688 C285.0781,35.0313 285.0625,34.9063 284.9688,34.75 C284.8125,34.4844 284.5313,34.3438 284.2344,34.3438 C283.9375,34.3438 283.7344,34.4375 283.5156,34.75 L283.3438,34.6719 Z " fill="#000000"/><text fill="#000000" font-family="sans-serif" font-size="14" lengthAdjust="spacing" textLength="90" x="295" y="43.8467">Department</text><line style="stroke:#181818;stroke-width:0.5;" x1="267" x2="387" y1="55" y2="55"/><text fill="#000000" font-family="sans-serif" font-size="14" lengthAdjust="spacing" textLength="13" x="272" y="71.9951">id</text><text fill="#000000" font-family="sans-serif" font-size="14" lengthAdjust="spacing" textLength="40" x="272" y="88.292">name</text><line style="stroke:#181818;stroke-width:0.5;" x1="267" x2="387" y1="95.5938" y2="95.5938"/></g><!--link Employee to Department--><g id="link_Employee_Department"><path codeLine="15" d="M206.202,63.5 C226.559,63.5 247.409,63.5 265.89,63.5 " fill="none" id="Employee-Department" style="stroke:#181818;stroke-width:1.0;"/></g><!--SRC=[oqbDAr4eoLSeoapFA558oInAJIx9pC_ZuahEIImkLd3DBSZ9hqnDLQZcKW22p1GmbPPPL5pYbvYR2kO15I8uAQa5YKKbkQbv9LOABd0sLotCG8GOgf5v80E0gk0MwkeYgGK0]--></g></svg>