<?xml version="1.0" encoding="us-ascii" standalone="no"?><svg xmlns="http://www.w3.org/2000/svg" xmlns:xlink="http://www.w3.org/1999/xlink" contentStyleType="text/css" height="127px" preserveAspectRatio="none" style="width:625px;height:127px;background:#FFFFFF;" version="1.1" viewBox="0 0 625 127" width="625px" zoomAndPan="magnify"><defs/><g><!--class Employee--><g id="elem_Employee"><rect codeLine="3" fill="#F1F1F1" height="113.1875" id="Employee" rx="2.5" ry="2.5" style="stroke:#181818;stroke-width:0.5;" width="223" x="7" y="7"/><ellipse cx="78.25" cy="23" fill="#ADD1B2" rx="11" ry="11" style="stroke:#181818;stroke-width:1.0;"/><path d="M80.5938,18.6719 C79.6563,18.2344 79.0625,18.0938 78.1875,18.0938 C75.5625,18.0938 73.5625,20.1719 73.5625,22.8906 L73.5625,24.0156 C73.5625,26.5938 75.6719,28.4844 78.5625,28.4844 C79.7813,28.4844 80.9375,28.1875 81.6875,27.6406 C82.2656,27.2344 82.5938,26.7813 82.5938,26.3906 C82.5938,25.9375 82.2031,25.5469 81.7344,25.5469 C81.5156,25.5469 81.3125,25.625 81.125,25.8125 C80.6719,26.2969 80.6719,26.2969 80.4844,26.3906 C80.0625,26.6563 79.375,26.7813 78.6094,26.7813 C76.5625,26.7813 75.2656,25.6875 75.2656,23.9844 L75.2656,22.8906 C75.2656,21.1094 76.5156,19.7969 78.25,19.7969 C78.8281,19.7969 79.4375,19.9531 79.9063,20.2031 C80.3906,20.4844 80.5625,20.7031 80.6563,21.1094 C80.7188,21.5156 80.75,21.6406 80.8906,21.7656 C81.0313,21.9063 81.2656,22.0156 81.4844,22.0156 C81.75,22.0156 82.0156,21.875 82.1875,21.6563 C82.2969,21.5 82.3281,21.3125 82.3281,20.8906 L82.3281,19.4688 C82.3281,19.0313 82.3125,18.9063 82.2188,18.75 C82.0625,18.4844 81.7813,18.3438 81.4844,18.3438 C81.1875,18.3438 80.9844,18.4375 80.7656,18.75 L80.5938,18.6719 Z " fill="#000000"/><text fill="#000000" font-family="sans-serif" font-size="14" lengthAdjust="spacing" textLength="72" x="98.75" y="27.8467">Employee</text><line style="stroke:#181818;stroke-width:0.5;" x1="8" x2="229" y1="39" y2="39"/><text fill="#000000" font-family="sans-serif" font-size="14" lengthAdjust="spacing" textLength="13" x="13" y="55.9951">id</text><text fill="#000000" font-family="sans-serif" font-size="14" lengthAdjust="spacing" textLength="71" x="13" y="72.292">firstName</text><text fill="#000000" font-family="sans-serif" font-size="14" lengthAdjust="spacing" textLength="67" x="13" y="88.5889">lastName</text><text fill="#000000" font-family="sans-serif" font-size="14" lengthAdjust="spacing" textLength="211" x="13" y="104.8857">department: ExtDepartment</text><line style="stroke:#181818;stroke-width:0.5;" x1="8" x2="229" y1="112.1875" y2="112.1875"/></g><!--class ExtDepartment--><g id="elem_ExtDepartment"><rect codeLine="10" fill="#F1F1F1" height="80.5938" id="ExtDepartment" rx="2.5" ry="2.5" style="stroke:#181818;stroke-width:0.5;" width="146" x="290" y="23"/><ellipse cx="305" cy="39" fill="#ADD1B2" rx="11" ry="11" style="stroke:#181818;stroke-width:1.0;"/><path d="M307.3438,34.6719 C306.4063,34.2344 305.8125,34.0938 304.9375,34.0938 C302.3125,34.0938 300.3125,36.1719 300.3125,38.8906 L300.3125,40.0156 C300.3125,42.5938 302.4219,44.4844 305.3125,44.4844 C306.5313,44.4844 307.6875,44.1875 308.4375,43.6406 C309.0156,43.2344 309.3438,42.7813 309.3438,42.3906 C309.3438,41.9375 308.9531,41.5469 308.4844,41.5469 C308.2656,41.5469 308.0625,41.625 307.875,41.8125 C307.4219,42.2969 307.4219,42.2969 307.2344,42.3906 C306.8125,42.6563 306.125,42.7813 305.3594,42.7813 C303.3125,42.7813 302.0156,41.6875 302.0156,39.9844 L302.0156,38.8906 C302.0156,37.1094 303.2656,35.7969 305,35.7969 C305.5781,35.7969 306.1875,35.9531 306.6563,36.2031 C307.1406,36.4844 307.3125,36.7031 307.4063,37.1094 C307.4688,37.5156 307.5,37.6406 307.6406,37.7656 C307.7813,37.9063 308.0156,38.0156 308.2344,38.0156 C308.5,38.0156 308.7656,37.875 308.9375,37.6563 C309.0469,37.5 309.0781,37.3125 309.0781,36.8906 L309.0781,35.4688 C309.0781,35.0313 309.0625,34.9063 308.9688,34.75 C308.8125,34.4844 308.5313,34.3438 308.2344,34.3438 C307.9375,34.3438 307.7344,34.4375 307.5156,34.75 L307.3438,34.6719 Z " fill="#000000"/><text fill="#000000" font-family="sans-serif" font-size="14" lengthAdjust="spacing" textLength="114" x="319" y="43.8467">ExtDepartment</text><line style="stroke:#181818;stroke-width:0.5;" x1="291" x2="435" y1="55" y2="55"/><text fill="#000000" font-family="sans-serif" font-size="14" lengthAdjust="spacing" textLength="82" x="296" y="71.9951">description</text><text fill="#000000" font-family="sans-serif" font-size="14" lengthAdjust="spacing" textLength="103" x="296" y="88.292">manager: User</text><line style="stroke:#181818;stroke-width:0.5;" x1="291" x2="435" y1="95.5938" y2="95.5938"/></g><!--class Department--><g id="elem_Department"><rect codeLine="15" fill="#F1F1F1" height="80.5938" id="Department" rx="2.5" ry="2.5" style="stroke:#181818;stroke-width:0.5;" width="122" x="496" y="23"/><ellipse cx="511" cy="39" fill="#ADD1B2" rx="11" ry="11" style="stroke:#181818;stroke-width:1.0;"/><path d="M513.3438,34.6719 C512.4063,34.2344 511.8125,34.0938 510.9375,34.0938 C508.3125,34.0938 506.3125,36.1719 506.3125,38.8906 L506.3125,40.0156 C506.3125,42.5938 508.4219,44.4844 511.3125,44.4844 C512.5313,44.4844 513.6875,44.1875 514.4375,43.6406 C515.0156,43.2344 515.3438,42.7813 515.3438,42.3906 C515.3438,41.9375 514.9531,41.5469 514.4844,41.5469 C514.2656,41.5469 514.0625,41.625 513.875,41.8125 C513.4219,42.2969 513.4219,42.2969 513.2344,42.3906 C512.8125,42.6563 512.125,42.7813 511.3594,42.7813 C509.3125,42.7813 508.0156,41.6875 508.0156,39.9844 L508.0156,38.8906 C508.0156,37.1094 509.2656,35.7969 511,35.7969 C511.5781,35.7969 512.1875,35.9531 512.6563,36.2031 C513.1406,36.4844 513.3125,36.7031 513.4063,37.1094 C513.4688,37.5156 513.5,37.6406 513.6406,37.7656 C513.7813,37.9063 514.0156,38.0156 514.2344,38.0156 C514.5,38.0156 514.7656,37.875 514.9375,37.6563 C515.0469,37.5 515.0781,37.3125 515.0781,36.8906 L515.0781,35.4688 C515.0781,35.0313 515.0625,34.9063 514.9688,34.75 C514.8125,34.4844 514.5313,34.3438 514.2344,34.3438 C513.9375,34.3438 513.7344,34.4375 513.5156,34.75 L513.3438,34.6719 Z " fill="#000000"/><text fill="#000000" font-family="sans-serif" font-size="14" lengthAdjust="spacing" textLength="90" x="525" y="43.8467">Department</text><line style="stroke:#181818;stroke-width:0.5;" x1="497" x2="617" y1="55" y2="55"/><text fill="#000000" font-family="sans-serif" font-size="14" lengthAdjust="spacing" textLength="13" x="502" y="71.9951">id</text><text fill="#000000" font-family="sans-serif" font-size="14" lengthAdjust="spacing" textLength="40" x="502" y="88.292">name</text><line style="stroke:#181818;stroke-width:0.5;" x1="497" x2="617" y1="95.5938" y2="95.5938"/></g><!--link Employee to ExtDepartment--><g id="link_Employee_ExtDepartment"><path codeLine="20" d="M230.105,63.5 C250.342,63.5 270.977,63.5 289.732,63.5 " fill="none" id="Employee-ExtDepartment" style="stroke:#181818;stroke-width:1.0;"/></g><!--link ExtDepartment to Department--><g id="link_ExtDepartment_Department"><path codeLine="21" d="M436.04,63.5 C448.959,63.5 462.496,63.5 475.631,63.5 " fill="none" id="ExtDepartment-to-Department" style="stroke:#181818;stroke-width:1.0;"/><polygon fill="none" points="475.796,56.4999,495.796,63.5,475.796,70.4999,475.796,56.4999" style="stroke:#181818;stroke-width:1.0;"/></g><!--SRC=[POuz3i8m38NtdC8No0KwCD6LhGU84hTOofyS3o3WxgHHbRRWnNhMy_kUnrb04Z0jTm57Z5OeHQMiDwN06B9FJqHuAQX3hgsPkCZD16og6dVXC1kMW54661zoxL9zUkRnl0KxB9OfD_IgWubcGHvWAiZxwz_VLYYk-EhgTRN-eP-XMhylXx0l]--></g></svg>